<svg style="position: absolute; width: 0; height: 0;" width="0" height="0" version="1.1" xmlns="http://www.w3.org/2000/svg" xmlns:xlink="http://www.w3.org/1999/xlink"><defs><symbol id="uni-1" viewBox="0 -64 1024 1024"><path d="M0 0 l0 0 l0 0 l0 0 Z"></path></symbol><symbol id="uni-32" viewBox="0 -64 1024 1024"><path d="M0 0 l0 0 l0 0 l0 0 Z"></path></symbol><symbol id="uni-59648" viewBox="0 -64 1024 1024"><path d="M748 14 q60 0 111 24 q51 24 87.5 64 q36.5 40 57.5 94 q20 54 20 115 q0 69 -29 137 q-29 68 -89 137.5 q-60 69.5 -153 141.5 q-93 72 -220 149 q-5 3 -10.5 4.5 q-5.5 1.5 -10.5 1.5 q-5 0 -10.5 -1.5 q-5.5 -1.5 -10.5 -4.5 q-127 -77 -220 -149 q-93 -72 -153 -141.5 q-60 -69.5 -89 -137.5 q-29 -68 -29 -137 q0 -61 21 -115 q20 -54 56.5 -94 q36.5 -40 87.5 -64 q51 -24 111 -24 q64 0 119 28 q55 28 97 82 q6 7 11 14.5 q5 7.5 9 14.5 q4 -7 9 -14.5 q5 -7.5 11 -14.5 q42 -54 97 -82 q55 -28 119 -28 l0 0 ZM838 541 q54 -59 80 -116 q26 -57 26 -114 q0 -44 -14 -83 q-14 -39 -40 -69 q-26 -30 -62 -47 q-36 -18 -80 -18 q-45 0 -83.5 20 q-38.5 20 -69.5 60 q-23 30 -34 55.5 q-11 25.5 -11 25.5 q-4 13 -14.5 20.5 q-10.5 7.5 -23.5 7.5 q-13 0 -23.5 -7.5 q-10.5 -7.5 -14.5 -20.5 q0 0 -11 -26.5 q-11 -26.5 -36 -56.5 q-30 -39 -68 -58.5 q-38 -19.5 -83 -19.5 q-44 0 -80 18 q-36 17 -62 47 q-26 30 -40 69 q-14 39 -14 83 q0 57 26 114 q26 57 80 116 q26 30 60 60 q33 31 73.5 62.5 q40.5 31.5 88.5 63.5 q48 33 104 68 q56 -35 104 -68 q48 -32 88.5 -63.5 q40.5 -31.5 73.5 -62.5 q34 -30 60 -60 l0 0 Z"></path></symbol><symbol id="uni-59649" viewBox="0 -64 1024 1024"><path d="M482 189 q34 0 64.5 8.5 q30.5 8.5 58.5 26.5 q29 16 52 38.5 q23 22.5 39 51.5 q17 28 25.5 58.5 q8.5 30.5 8.5 64.5 q0 33 -8.5 64.5 q-8.5 31.5 -25.5 60.5 q-16 28 -39 50.5 q-23 22.5 -52 39.5 q-28 16 -58.5 24.5 q-30.5 8.5 -64.5 8.5 q-33 0 -64 -8.5 q-31 -8.5 -60 -24.5 q-28 -17 -51 -39.5 q-23 -22.5 -40 -50.5 q-16 -29 -24 -60.5 q-8 -31.5 -8 -64.5 q0 -34 8 -64.5 q8 -30.5 24 -58.5 q17 -29 40 -51.5 q23 -22.5 51 -38.5 q29 -18 60 -26.5 q31 -8.5 64 -8.5 ZM482 598 q34 0 62.5 -11.5 q28.5 -11.5 52.5 -35.5 q23 -24 35 -52.5 q12 -28.5 12 -61.5 q0 -34 -12 -62.5 q-12 -28.5 -35 -51.5 q-24 -24 -52.5 -36 q-28.5 -12 -62.5 -12 q-33 0 -61.5 12 q-28.5 12 -52.5 36 q-23 23 -35 51.5 q-12 28.5 -12 62.5 q0 33 12 61.5 q12 28.5 35 52.5 q24 24 52.5 35.5 q28.5 11.5 61.5 11.5 ZM799 178 q0 -11 -4.5 -21.5 q-4.5 -10.5 -12.5 -19.5 q-9 -8 -19 -12.5 q-10 -4.5 -22 -4.5 q-12 0 -22 4.5 q-10 4.5 -19 12.5 q-9 9 -13 19.5 q-4 10.5 -4 21.5 q0 12 4 22.5 q4 10.5 13 18.5 q9 9 19 13.5 q10 4.5 22 4.5 q12 0 21.5 -4.5 q9.5 -4.5 17.5 -13.5 q8 -8 13 -18.5 q5 -10.5 6 -22.5 ZM963 237 q1 30 1.5 80 q0.5 50 0.5 120 q0 70 -1 120.5 q-1 50.5 -3 81.5 q-1 30 -5.5 56.5 q-4.5 26.5 -12.5 49.5 q-9 27 -24 50.5 q-15 23.5 -36 44.5 q-19 19 -42.5 33.5 q-23.5 14.5 -50.5 24.5 q-22 7 -49 11.5 q-27 4.5 -58 5.5 q-30 2 -80.5 3 q-50.5 1 -120.5 1 q-70 0 -120.5 -1 q-50.5 -1 -81.5 -3 q-30 -1 -56.5 -6 q-26.5 -5 -49.5 -13 q-26 -9 -50 -23 q-24 -14 -44 -33 q-20 -21 -34.5 -44.5 q-14.5 -23.5 -23.5 -50.5 q-8 -23 -13 -49.5 q-5 -26.5 -7 -56.5 q-1 -31 -1.5 -81.5 q-0.5 -50.5 -0.5 -120.5 q0 -70 0.5 -120 q0.5 -50 1.5 -80 q2 -32 7 -59 q5 -27 13 -49 q9 -27 23.5 -50 q14.5 -23 34.5 -43 q20 -20 44 -35 q24 -15 50 -25 q23 -8 49.5 -12 q26.5 -4 56.5 -5 q31 -2 81.5 -3.5 q50.5 -1.5 120.5 -1.5 q70 0 120.5 1.5 q50.5 1.5 80.5 3.5 q31 1 58 5 q27 4 49 12 q27 10 50.5 25 q23.5 15 42.5 35 q21 20 36 43 q15 23 24 50 q8 22 13 49 q5 27 7 59 l0 0 ZM859 721 q7 -18 11 -47 q4 -29 7 -69 q1 -24 1.5 -57.5 q0.5 -33.5 0.5 -76.5 l0 -69 q0 -44 -0.5 -77.5 q-0.5 -33.5 -1.5 -55.5 q-3 -41 -7 -70 q-4 -29 -11 -46 q-13 -34 -36 -57 q-23 -23 -56 -36 q-17 -7 -46.5 -11 q-29.5 -4 -70.5 -6 q-23 -1 -56.5 -1.5 q-33.5 -0.5 -76.5 -0.5 l-69 0 q-43 0 -76.5 0.5 q-33.5 0.5 -57.5 1.5 q-39 2 -68.5 6 q-29.5 4 -47.5 11 q-33 13 -56.5 36 q-23.5 23 -35.5 57 q-7 17 -11.5 46 q-4.5 29 -6.5 70 q-1 24 -1.5 57 q-0.5 33 -0.5 76 l0 69 q0 43 0.5 76.5 q0.5 33.5 1.5 57.5 q2 40 6.5 69 q4.5 29 11.5 47 q14 34 37 57 q23 23 55 36 q18 6 47.5 10.5 q29.5 4.5 68.5 6.5 q24 1 57.5 1.5 q33.5 0.5 76.5 0.5 l69 0 q44 0 77.5 -0.5 q33.5 -0.5 55.5 -1.5 q41 -2 70.5 -6.5 q29.5 -4.5 46.5 -10.5 q33 -14 56 -37.5 q23 -23.5 36 -55.5 l0 0 Z"></path></symbol><symbol id="uni-59650" viewBox="0 -64 1024 1024"><path d="M215 265 l-200 0 l0 644 l200 0 l0 -644 ZM116 177 q24 0 44.5 -8.5 q20.5 -8.5 37.5 -26.5 q17 -17 26 -37.5 q9 -20.5 9 -43.5 q0 -24 -9 -44.5 q-9 -20.5 -26 -37.5 q-17 -18 -37.5 -26.5 q-20.5 -8.5 -44.5 -8.5 q-23 0 -43.5 8.5 q-20.5 8.5 -38.5 26.5 q-17 17 -25.5 37.5 q-8.5 20.5 -8.5 44.5 q0 23 8.5 43.5 q8.5 20.5 25.5 37.5 q18 18 38.5 26.5 q20.5 8.5 43.5 8.5 l0 0 ZM965 909 l0 -353 q0 -74 -11 -129 q-11 -55 -32 -91 q-28 -44 -77 -66 q-49 -22 -119 -22 q-35 0 -65 8.5 q-30 8.5 -56 25.5 q-23 14 -40.5 32 q-17.5 18 -28.5 39 l-2 0 l0 -88 l-192 0 l0 644 l199 0 l0 -319 q0 -37 5 -65.5 q5 -28.5 16 -48.5 q14 -26 38.5 -38.5 q24.5 -12.5 58.5 -12.5 q35 0 58 14.5 q23 14.5 35 43.5 q6 17 9.5 45 q3.5 28 3.5 67 l0 314 l200 0 l0 0 Z"></path></symbol><symbol id="uni-59651" viewBox="0 -64 1024 1024"><path d="M918 229 q31 -23 57.5 -50.5 q26.5 -27.5 48.5 -59.5 q-30 13 -60 21.5 q-30 8.5 -60 12.5 q34 -21 57 -50 q23 -29 35 -66 q-31 18 -64.5 30.5 q-33.5 12.5 -69.5 19.5 q-15 -15 -32.5 -27 q-17.5 -12 -37.5 -21 q-19 -9 -40 -13.5 q-21 -4.5 -44 -4.5 q-28 0 -54 7 q-26 7 -50 21 q-24 14 -43 33.5 q-19 19.5 -33 44.5 q-14 24 -21 50 q-7 26 -7 54 q0 12 1 24 q1 12 3 24 q-64 -3 -124.5 -19 q-60.5 -16 -117.5 -45 q-56 -29 -103.5 -68 q-47.5 -39 -86.5 -88 q-15 25 -22.5 51.5 q-7.5 26.5 -7.5 54.5 q0 27 6.5 52 q6.5 25 19.5 48 q13 23 30 42 q17 19 38 34 q-25 -1 -48.5 -8 q-23.5 -7 -45.5 -20 l0 4 q0 37 12 70 q12 33 36 62 q24 29 54 47.5 q30 18.5 66 26.5 q-14 3 -28 4.5 q-14 1.5 -28 1.5 q-9 0 -18.5 -0.5 q-9.5 -0.5 -19.5 -1.5 q10 31 28 57 q18 26 44 47 q27 20 58 30 q31 10 66 10 q-58 45 -123.5 67.5 q-65.5 22.5 -138.5 22.5 q-14 0 -26.5 -0.5 q-12.5 -0.5 -23.5 -1.5 q36 23 75 41 q38 18 78.5 29.5 q40.5 11.5 82.5 17.5 q42 6 86 6 q46 0 89 -6 q44 -6 84.5 -17.5 q40.5 -11.5 78.5 -29.5 q38 -18 74 -41 q65 -42 115.5 -98.5 q50.5 -56.5 86.5 -127.5 q35 -67 52.5 -136.5 q17.5 -69.5 17.5 -141.5 q0 -9 -0.5 -15.5 q-0.5 -6.5 -1.5 -10.5 l0 0 Z"></path></symbol><symbol id="uni-59652" viewBox="0 -64 1024 1024"><path d="M996 -64 q11 0 19.5 8.5 q8.5 8.5 8.5 19.5 l0 626 q0 12 -8.5 20.5 q-8.5 8.5 -19.5 8.5 q-12 0 -20.5 -8.5 q-8.5 -8.5 -8.5 -20.5 l0 -557 l-918 919 q-5 4 -10 6 q-5 2 -11 2 q-5 0 -10.5 -2 q-5.5 -2 -9.5 -6 q-8 -9 -8 -20.5 q0 -11.5 8 -20.5 l919 -918 l-557 0 q-12 0 -20.5 -8.5 q-8.5 -8.5 -8.5 -20.5 q0 -11 8.5 -19.5 q8.5 -8.5 20.5 -8.5 l626 0 l0 0 Z"></path></symbol><symbol id="uni-59653" viewBox="0 -64 1024 1024"><path d="M811 907 q31 0 60.5 -12.5 q29.5 -12.5 52.5 -34.5 q22 -23 34.5 -52.5 q12.5 -29.5 12.5 -60.5 l0 -512 q0 -32 -12.5 -61.5 q-12.5 -29.5 -34.5 -51.5 q-23 -23 -52.5 -35 q-29.5 -12 -60.5 -12 l-598 0 q-31 0 -60.5 12 q-29.5 12 -52.5 35 q-22 22 -34.5 51.5 q-12.5 29.5 -12.5 61.5 l0 512 q0 31 12.5 60.5 q12.5 29.5 34.5 52.5 q23 22 52.5 34.5 q29.5 12.5 60.5 12.5 l598 0 l0 0 ZM213 139 l598 0 q19 0 36.5 7 q17.5 7 31.5 21 q13 13 20.5 31 q7.5 18 7.5 37 l0 512 q0 19 -7.5 36.5 q-7.5 17.5 -20.5 31.5 q-14 13 -31.5 20.5 q-17.5 7.5 -36.5 7.5 l-598 0 q-19 0 -36.5 -7.5 q-17.5 -7.5 -31.5 -20.5 q-13 -14 -20.5 -31.5 q-7.5 -17.5 -7.5 -36.5 l0 -512 q0 -19 7.5 -37 q7.5 -18 20.5 -31 q14 -14 31.5 -21 q17.5 -7 36.5 -7 l0 0 ZM939 352 q6 0 12 -2.5 q6 -2.5 10 -6.5 q5 -5 7.5 -11 q2.5 -6 2.5 -12 l0 -85 q0 -32 -12.5 -61.5 q-12.5 -29.5 -34.5 -51.5 q-23 -23 -52.5 -35 q-29.5 -12 -60.5 -12 l-598 0 q-31 0 -60.5 12 q-29.5 12 -52.5 35 q-22 22 -34.5 51.5 q-12.5 29.5 -12.5 61.5 l0 85 q0 6 2.5 12 q2.5 6 7.5 11 q4 4 10 6.5 q6 2.5 12 2.5 l854 0 ZM117 288 l0 -53 q0 -19 7.5 -37 q7.5 -18 20.5 -31 q14 -14 31.5 -21 q17.5 -7 36.5 -7 l598 0 q19 0 36.5 7 q17.5 7 31.5 21 q13 13 20.5 31 q7.5 18 7.5 37 l0 53 l-790 0 l0 0 ZM683 224 q6 0 12 -2.5 q6 -2.5 10 -6.5 q5 -5 7.5 -11 q2.5 -6 2.5 -12 l0 -171 q0 -6 -2.5 -12 q-2.5 -6 -7.5 -10 q-4 -5 -10 -7.5 q-6 -2.5 -12 -2.5 q-7 0 -12.5 2.5 q-5.5 2.5 -10.5 7.5 q-4 4 -6.5 10 q-2.5 6 -2.5 12 l0 171 q0 6 2.5 12 q2.5 6 6.5 11 q5 4 10.5 6.5 q5.5 2.5 12.5 2.5 ZM341 224 q7 0 12.5 -2.5 q5.5 -2.5 10.5 -6.5 q4 -5 6.5 -11 q2.5 -6 2.5 -12 l0 -171 q0 -6 -2.5 -12 q-2.5 -6 -6.5 -10 q-5 -5 -10.5 -7.5 q-5.5 -2.5 -12.5 -2.5 q-6 0 -12 2.5 q-6 2.5 -10 7.5 q-5 4 -7.5 10 q-2.5 6 -2.5 12 l0 171 q0 6 2.5 12 q2.5 6 7.5 11 q4 4 10 6.5 q6 2.5 12 2.5 ZM469 693 q3 0 6.5 -0.5 q3.5 -0.5 6.5 -1.5 q2 -1 5 -3 q3 -2 5 -4 l171 -171 q4 -4 6 -10 q2 -6 2 -12 q0 -6 -2.5 -12 q-2.5 -6 -6.5 -10 q-5 -5 -10.5 -7 q-5.5 -2 -11.5 -3 q-6 0 -12 2.5 q-6 2.5 -11 6.5 l-148 148 l-62 -63 q-5 -4 -11 -6 q-6 -2 -12 -2 q-6 0 -11.5 2.5 q-5.5 2.5 -10.5 6.5 q-4 5 -6.5 10.5 q-2.5 5.5 -2.5 11.5 q0 6 2 12 q2 6 6 11 l86 85 q2 2 4.5 4 q2.5 2 5.5 3 q3 1 6 1.5 q3 0.5 6 0.5 l0 0 Z"></path></symbol><symbol id="uni-59654" viewBox="0 -64 1024 1024"><path d="M254 256 q5 0 9.5 1 q4.5 1 9.5 3 q4 2 8 5 q4 3 7 6 l224 261 l223 -261 q3 -3 6 -5.5 q3 -2.5 7 -5.5 q4 -2 8 -3 q4 -1 9 -2 q4 0 8 0.5 q4 0.5 8 1.5 q5 2 8.5 4 q3.5 2 6.5 5 q4 2 6.5 5.5 q2.5 3.5 4.5 7.5 q2 4 3 8 q1 4 1 8 q0 5 -0.5 9 q-0.5 4 -1.5 8 q-2 4 -4 8 q-2 4 -5 7 l-256 299 q-3 3 -6.5 6 q-3.5 3 -8.5 5 q-4 2 -8.5 3 q-4.5 1 -8.5 1 q-5 0 -9.5 -1 q-4.5 -1 -8.5 -3 q-4 -2 -8 -5 q-4 -3 -7 -6 l-256 -299 q-4 -5 -6.5 -10.5 q-2.5 -5.5 -3.5 -11.5 q-1 -6 0 -12 q1 -6 3 -11 q3 -6 6.5 -10.5 q3.5 -4.5 9.5 -8.5 q5 -3 10.5 -5 q5.5 -2 11.5 -2 l0 0 Z"></path></symbol><symbol id="uni-59655" viewBox="0 -64 1024 1024"><path d="M613 954 q-25 0 -43 -18 q-18 -18 -18 -43 l0 -140 l-80 0 l0 140 q0 25 -18 43 q-18 18 -43 18 q-24 0 -42 -18 q-18 -18 -18 -43 l0 -140 l-40 0 q-18 0 -29 -11.5 q-11 -11.5 -11 -29.5 l0 -402 l482 0 l0 402 q0 18 -11 29.5 q-11 11.5 -29 11.5 l-40 0 l0 140 q0 25 -18 43 q-18 18 -42 18 l0 0 ZM854 712 q-24 0 -42 -18 q-18 -18 -18 -42 l0 -282 q0 -24 18 -42 q18 -18 42 -18 q24 0 42 18 q18 18 18 42 l0 282 q0 24 -18 42 q-18 18 -42 18 ZM170 712 q-24 0 -42 -18 q-18 -18 -18 -42 l0 -282 q0 -24 18 -42 q18 -18 42 -18 q24 0 42 18 q18 18 18 42 l0 282 q0 24 -18 42 q-18 18 -42 18 ZM705 -4 q6 6 6 14 q0 8 -6 14 l-52 52 q13 9 24 19 q11 10 21 22 q24 28 38.5 64 q14.5 36 16.5 76 q0 0 0 0.5 q0 0.5 0 1.5 q0 2 0 5 q0 3 0 6 l-482 0 q0 -3 0 -6 q0 -3 0 -5 q0 -1 0 -1.5 q0 -0.5 0 -0.5 q2 -40 16.5 -76 q14.5 -36 38.5 -64 q10 -12 21 -22 q11 -10 24 -19 l-52 -52 q-6 -6 -6 -14 q0 -8 6 -14 q6 -6 14 -6 q8 0 14 6 l56 56 q24 -12 51 -18 q27 -6 57 -6 q1 0 1 0 q0 0 0 0 l0 0 q0 0 0 0 q0 0 1 0 q30 0 57 6 q27 6 51 18 l56 -56 q6 -6 14 -6 q8 0 14 6 l0 0 ZM411 199 q13 0 22 -8.5 q9 -8.5 9 -21.5 q0 -12 -9 -21 q-9 -9 -22 -9 q-12 0 -21 9 q-9 9 -9 21 q0 13 9 21.5 q9 8.5 21 8.5 ZM613 199 q12 0 21 -8.5 q9 -8.5 9 -21.5 q0 -12 -9 -21 q-9 -9 -21 -9 q-13 0 -21.5 9 q-8.5 9 -8.5 21 q0 13 8.5 21.5 q8.5 8.5 21.5 8.5 Z"></path></symbol><symbol id="uni-59656" viewBox="0 -64 1024 1024"><path d="M693 -10 q6 44 -8.5 85 q-14.5 41 -38.5 71 q-25 33 -65.5 55 q-40.5 22 -82.5 21 q-7 -42 8.5 -83 q15.5 -41 39.5 -70 q26 -32 67 -54 q41 -22 80 -25 l0 0 ZM896 313 q-61 34 -87 89 q-26 56 -21 113.5 q5 57.5 40 108.5 q34 50 96 73 q-17 38 -29 61 q-12 23 -34 56 q-30 46 -72.5 92.5 q-42.5 46.5 -95.5 47.5 q-47 0 -73.5 -20.5 q-26.5 -20.5 -90.5 -20.5 q-63 0 -90.5 20.5 q-27.5 20.5 -74.5 20.5 q-53 -1 -94 -43.5 q-41 -42.5 -71 -88.5 q-43 -65 -66 -134 q-24 -68 -30.5 -132.5 q-6.5 -64.5 4.5 -121.5 q10 -56 37 -97 q37 -57 91.5 -89 q54.5 -32 109.5 -32 q56 0 96.5 20.5 q40.5 20.5 87.5 20.5 q45 0 81.5 -20.5 q36.5 -20.5 101.5 -20.5 q49 0 98 25.5 q49 25.5 86 71.5 l0 0 Z"></path></symbol><symbol id="uni-59657" viewBox="0 -64 1024 1024"><path d="M939 448 q0 -18 -12.5 -30.5 q-12.5 -12.5 -30.5 -12.5 l-665 0 l226 -225 q12 -13 12 -30.5 q0 -17.5 -12 -30.5 q-13 -12 -30.5 -12 q-17.5 0 -29.5 12 l-299 299 q-13 12 -13 30 q0 18 13 30 l299 299 q6 6 13.5 9 q7.5 3 16.5 3 q8 0 16 -3 q8 -3 14 -9 q12 -13 12 -30.5 q0 -17.5 -12 -29.5 l-226 -226 l665 0 q18 0 30.5 -12.5 q12.5 -12.5 12.5 -30.5 l0 0 Z"></path></symbol><symbol id="uni-59658" viewBox="0 -64 1024 1024"><path d="M926 418 q13 12 13 30 q0 18 -13 30 l-299 299 q-12 12 -29.5 12 q-17.5 0 -30.5 -12 q-12 -13 -12 -30.5 q0 -17.5 12 -30.5 l226 -225 l-665 0 q-18 0 -30.5 -12.5 q-12.5 -12.5 -12.5 -30.5 q0 -18 12.5 -30.5 q12.5 -12.5 30.5 -12.5 l665 0 l-226 -226 q-12 -12 -12 -29.5 q0 -17.5 12 -30.5 q6 -6 14 -9 q8 -3 16 -3 q9 0 16.5 3 q7.5 3 13.5 9 l299 299 Z"></path></symbol><symbol id="uni-59659" viewBox="0 -64 1024 1024"><path d="M874 86 q36 36 64 78 q28 42 47 88 q19 46 29 95 q10 50 10 101 q0 51 -10 101 q-10 49 -29 95 q-19 46 -47 88 q-28 42 -64 78 q-36 36 -78 64 q-42 28 -88 47 q-46 19 -95 29 q-50 10 -101 10 q-51 0 -101 -10 q-49 -10 -95 -29 q-46 -19 -88 -47 q-42 -28 -78 -64 q-36 -36 -64 -78 q-28 -42 -47 -88 q-19 -46 -29 -95 q-10 -50 -10 -101 q0 -51 10 -101 q10 -49 29 -95 q19 -46 47 -88 q28 -42 64 -78 q36 -36 78 -64 q42 -28 88 -47 q46 -19 95 -29 q50 -10 101 -10 q51 0 101 10 q49 10 95 29 q46 19 88 47 q42 28 78 64 l0 0 ZM512 880 q89 0 168 -34 q79 -34 137.5 -92.5 q58.5 -58.5 92.5 -137.5 q34 -79 34 -168 q0 -89 -34 -168 q-34 -79 -92.5 -137.5 q-58.5 -58.5 -137.5 -92.5 q-79 -34 -168 -34 q-89 0 -168 34 q-79 34 -137.5 92.5 q-58.5 58.5 -92.5 137.5 q-34 79 -34 168 q0 89 34 168 q34 79 92.5 137.5 q58.5 58.5 137.5 92.5 q79 34 168 34 ZM552 408 l224 0 l0 80 l-304 0 l0 -400 l80 0 l0 320 l0 0 Z"></path></symbol><symbol id="uni-59660" viewBox="0 -64 1024 1024"><path d="M383 916 l175 0 l0 -427 l136 0 l23 -170 l-159 0 l0 -118 q0 -20 4 -35 q4 -15 11 -25 q9 -11 26.5 -16.5 q17.5 -5.5 42.5 -5.5 l90 0 l0 -151 q-25 -4 -58 -6 q-33 -2 -73 -2 q-49 0 -89 15 q-40 15 -70 45 q-29 29 -44 70 q-15 41 -15 94 l0 135 l-144 0 l0 170 l144 0 l0 427 l0 0 Z"></path></symbol><symbol id="uni-59661" viewBox="0 -64 1024 1024"><path d="M768 672 q6 0 12 -2.5 q6 -2.5 11 -6.5 q4 -5 6.5 -11 q2.5 -6 2.5 -12 l0 -384 q0 -45 -17 -86 q-17 -41 -49 -72 q-31 -32 -72 -49 q-41 -17 -86 -17 l-128 0 q-45 0 -86 17 q-41 17 -72 49 q-32 31 -49 72 q-17 41 -17 86 l0 384 q0 6 2.5 12 q2.5 6 6.5 11 q5 4 11 6.5 q6 2.5 12 2.5 q6 0 12 -2.5 q6 -2.5 11 -6.5 q4 -5 6.5 -11 q2.5 -6 2.5 -12 l0 -384 q0 -32 12 -61.5 q12 -29.5 35 -51.5 q22 -23 51.5 -35 q29.5 -12 61.5 -12 l128 0 q32 0 61.5 12 q29.5 12 51.5 35 q23 22 35 51.5 q12 29.5 12 61.5 l0 384 q0 6 2.5 12 q2.5 6 6.5 11 q5 4 11 6.5 q6 2.5 12 2.5 ZM256 672 q6 0 12 -2.5 q6 -2.5 11 -6.5 q4 -5 6.5 -11 q2.5 -6 2.5 -12 l0 -256 q0 -6 -2.5 -12 q-2.5 -6 -6.5 -11 q-5 -4 -11 -6.5 q-6 -2.5 -12 -2.5 l-64 0 q-19 0 -36.5 7.5 q-17.5 7.5 -31.5 20.5 q-13 14 -20.5 31.5 q-7.5 17.5 -7.5 36.5 l0 128 q0 19 7.5 36.5 q7.5 17.5 20.5 31.5 q14 13 31.5 20.5 q17.5 7.5 36.5 7.5 l64 0 ZM224 416 l0 192 l-32 0 q-6 0 -12 -2.5 q-6 -2.5 -11 -6.5 q-4 -5 -6.5 -11 q-2.5 -6 -2.5 -12 l0 -128 q0 -6 2.5 -12 q2.5 -6 6.5 -11 q5 -4 11 -6.5 q6 -2.5 12 -2.5 l32 0 ZM832 672 q19 0 36.5 -7.5 q17.5 -7.5 31.5 -20.5 q13 -14 20.5 -31.5 q7.5 -17.5 7.5 -36.5 l0 -128 q0 -19 -7.5 -36.5 q-7.5 -17.5 -20.5 -31.5 q-14 -13 -31.5 -20.5 q-17.5 -7.5 -36.5 -7.5 l-64 0 q-6 0 -12 2.5 q-6 2.5 -11 6.5 q-4 5 -6.5 11 q-2.5 6 -2.5 12 l0 256 q0 6 2.5 12 q2.5 6 6.5 11 q5 4 11 6.5 q6 2.5 12 2.5 l64 0 ZM800 416 l32 0 q6 0 12 2.5 q6 2.5 11 6.5 q4 5 6.5 11 q2.5 6 2.5 12 l0 128 q0 6 -2.5 12 q-2.5 6 -6.5 11 q-5 4 -11 6.5 q-6 2.5 -12 2.5 l-32 0 l0 -192 ZM544 864 q19 0 36.5 -7.5 q17.5 -7.5 31.5 -20.5 q13 -14 20.5 -31.5 q7.5 -17.5 7.5 -36.5 q0 -14 -4 -27.5 q-4 -13.5 -12 -25.5 q-8 -12 -19 -21 q-11 -9 -24 -15 q-13 -5 -27.5 -6.5 q-14.5 -1.5 -28.5 1.5 q-14 3 -26.5 9.5 q-12.5 6.5 -22.5 16.5 q-10 10 -16.5 22.5 q-6.5 12.5 -9.5 26.5 q-3 14 -1.5 28.5 q1.5 14.5 6.5 27.5 q6 13 15 24 q9 11 21 19 q12 8 25.5 12 q13.5 4 27.5 4 l0 0 ZM544 736 q6 0 12 2.5 q6 2.5 11 6.5 q4 5 6.5 11 q2.5 6 2.5 12 q0 5 -1.5 9.5 q-1.5 4.5 -3.5 8.5 q-3 4 -6.5 7 q-3.5 3 -8.5 5 q-4 1 -9 1.5 q-5 0.5 -9 -0.5 q-5 -1 -9 -3 q-4 -2 -8 -5 q-3 -4 -5 -8 q-2 -4 -3 -9 q-1 -4 -0.5 -9 q0.5 -5 1.5 -9 q2 -5 5 -8.5 q3 -3.5 7 -6.5 q4 -2 8.5 -3.5 q4.5 -1.5 9.5 -1.5 l0 0 ZM672 800 q25 0 49 -9.5 q24 -9.5 42 -27.5 q18 -18 27.5 -42 q9.5 -24 9.5 -49 l0 -160 q0 -6 -2.5 -12 q-2.5 -6 -6.5 -11 q-5 -4 -11 -6.5 q-6 -2.5 -12 -2.5 q-6 0 -12 2.5 q-6 2.5 -11 6.5 q-4 5 -6.5 11 q-2.5 6 -2.5 12 l0 160 q0 13 -5 24.5 q-5 11.5 -14 20.5 q-9 9 -20.5 14 q-11.5 5 -24.5 5 l-64 0 q-6 0 -12 2.5 q-6 2.5 -11 6.5 q-4 5 -6.5 11 q-2.5 6 -2.5 12 q0 6 2.5 12 q2.5 6 6.5 11 q5 4 11 6.5 q6 2.5 12 2.5 l64 0 Z"></path></symbol><symbol id="uni-59662" viewBox="0 -64 1024 1024"><path d="M461 38 q42 0 80 16 q37 17 64.5 44.5 q27.5 27.5 44.5 64.5 q16 38 16 80 q0 43 -16 80 q-17 37 -44.5 65 q-27.5 28 -64.5 44 q-38 16 -80 16 q-43 0 -80 -16 q-37 -16 -65 -44 q-28 -28 -44 -65 q-16 -37 -16 -80 q0 -42 16 -80 q16 -37 44 -64.5 q28 -27.5 65 -44.5 q37 -16 80 -16 ZM154 243 q0 64 24 120 q24 56 65.5 97.5 q41.5 41.5 97.5 65.5 q56 24 120 24 q63 0 119 -24 q56 -24 98 -65.5 q42 -41.5 66 -97.5 q24 -56 24 -120 q0 -63 -24 -119 q-24 -56 -66 -98 q-42 -42 -98 -66 q-56 -24 -119 -24 q-64 0 -120 24 q-56 24 -97.5 66 q-41.5 42 -65.5 98 q-24 56 -24 119 l0 0 ZM144 684 q-62 39 -103 96.5 q-41 57.5 -41 128.5 q0 21 15 36 q15 15 36 15 q21 0 36 -15 q15 -15 15 -36 q0 -35 23.5 -71 q23.5 -36 72.5 -67 q49 -30 116.5 -48.5 q67.5 -18.5 146.5 -18.5 q79 0 146.5 18.5 q67.5 18.5 115.5 48.5 q49 31 72.5 67 q23.5 36 23.5 71 q0 21 15 36 q15 15 36 15 q22 0 37 -15 q15 -15 15 -36 q0 -71 -41 -128.5 q-41 -57.5 -103 -96.5 q-32 -19 -68 -35 q-36 -15 -76.5 -25.5 q-40.5 -10.5 -83.5 -16.5 q-44 -5 -89 -5 q-46 0 -89 5 q-44 6 -84 16.5 q-40 10.5 -76 25.5 q-37 16 -68 35 l0 0 Z"></path></symbol><symbol id="uni-59663" viewBox="0 -64 1024 1024"><path d="M27 858 l90 93 l907 -923 l-91 -92 l-906 922 l0 0 ZM91 -55 l-91 93 l907 922 l90 -92 l-906 -923 l0 0 Z"></path></symbol><symbol id="uni-59664" viewBox="0 -64 1024 1024"><path d="M320 705.5 q0 -5 1 -10 q1 -5 3 -9 q2 -4 5 -8 q3 -4 6 -7 l262 -224 l-262 -223 q-3 -3 -5.5 -6 q-2.5 -3 -5.5 -7 q-2 -4 -3 -8 q-1 -4 -1 -9 q-1 -4 -0.5 -8 q0.5 -4 1.5 -8 q2 -5 4 -8.5 q2 -3.5 5 -6.5 q2 -4 5.5 -6.5 q3.5 -2.5 7.5 -4.5 q4 -2 8 -3 q4 -1 8 -1 q5 0 9 0.5 q4 0.5 8 1.5 q4 2 8 4 q4 2 7 5 l299 256 q3 3 6 6.5 q3 3.5 5 8.5 q2 4 3 8.5 q1 4.5 1 8.5 q0 5 -1 9.5 q-1 4.5 -3 8.5 q-2 4 -5 8 q-3 4 -6 7 l-299 256 q-5 4 -10.5 6.5 q-5.5 2.5 -11.5 3.5 q-6 1 -12 0 q-6 -1 -11 -3 q-6 -3 -10.5 -6.5 q-4.5 -3.5 -8.5 -9.5 q-3 -5 -5 -10.5 q-2 -5.5 -2 -11.5 l0 0 Z"></path></symbol><symbol id="uni-59665" viewBox="0 -64 1024 1024"><path d="M427 821.26 q40 0 79 -8.5 q39 -8.5 75 -25.5 q36 -16 68 -40 q32 -24 58 -55 q4 -4 6 -10 q2 -6 2 -13 q-1 -6 -4 -12 q-3 -6 -7 -10 q-3 -2 -5.5 -3.5 q-2.5 -1.5 -5.5 -2.5 q-3 -1 -6.5 -1.5 q-3.5 -0.5 -6.5 0.5 q-3 0 -6 1 q-3 1 -6 2 q-3 1 -5.5 3 q-2.5 2 -4.5 5 q-21 24 -47.5 44 q-26.5 20 -56.5 33 q-30 14 -62 21 q-32 7 -65 7 q-39 0 -77 -9.5 q-38 -9.5 -72 -27.5 q-34 -19 -63 -45.5 q-29 -26.5 -50 -58.5 q-21 -33 -33.5 -70 q-12.5 -37 -15.5 -75 q-3 -39 4 -77.5 q7 -38.5 23 -73.5 q16 -36 40.5 -66 q24.5 -30 55.5 -54 q31 -23 67 -38 q36 -15 74 -21 q39 -5 77.5 -1 q38.5 4 74.5 17 q37 14 69 36 q32 22 57 52 q2 2 4.5 4 q2.5 2 5.5 3 q3 2 6 2.5 q3 0.5 6 1.5 q3 0 6.5 -0.5 q3.5 -0.5 6.5 -1.5 q3 -1 5.5 -2.5 q2.5 -1.5 5.5 -3.5 q4 -4 7 -10 q3 -6 4 -12 q0 -6 -2 -12 q-2 -6 -6 -11 q-31 -35 -69.5 -61.5 q-38.5 -26.5 -82.5 -42.5 q-44 -17 -90.5 -21.5 q-46.5 -4.5 -93.5 2.5 q-46 7 -89 25 q-43 18 -81 46 q-37 28 -66.5 64.5 q-29.5 36.5 -48.5 79.5 q-19 43 -27 89 q-8 46 -5 93 q3 46 18 90.5 q15 44.5 41 84.5 q25 39 59.5 71 q34.5 32 75.5 54 q41 22 86.5 33.5 q45.5 11.5 92.5 11.5 l0 0 ZM811 608.26 q3 0 6 -0.5 q3 -0.5 6 -1.5 q3 -2 5.5 -3.5 q2.5 -1.5 4.5 -3.5 l128 -128 q5 -5 7.5 -11 q2.5 -6 2.5 -12 q0 -6 -2.5 -12 q-2.5 -6 -7.5 -11 l-128 -128 q-4 -4 -10 -6 q-6 -2 -12 -2 q-6 0 -12 2.5 q-6 2.5 -10 6.5 q-5 5 -7 10.5 q-2 5.5 -3 11.5 q0 6 2.5 12 q2.5 6 6.5 11 l105 105 l-105 105 q-4 5 -6.5 11 q-2.5 6 -2.5 12 q0 6 2.5 12 q2.5 6 6.5 11 q2 2 5 3.5 q3 1.5 5 3.5 q3 1 6.5 1.5 q3.5 0.5 6.5 0.5 l0 0 ZM939 480.26 q6 0 12 -2.5 q6 -2.5 10 -6.5 q5 -5 7.5 -11 q2.5 -6 2.5 -12 q0 -6 -2.5 -12 q-2.5 -6 -7.5 -11 q-4 -4 -10 -6.5 q-6 -2.5 -12 -2.5 l-470 0 q-6 0 -12 2.5 q-6 2.5 -10 6.5 q-5 5 -7.5 11 q-2.5 6 -2.5 12 q0 6 2.5 12 q2.5 6 7.5 11 q4 4 10 6.5 q6 2.5 12 2.5 l470 0 Z"></path></symbol><symbol id="uni-59666" viewBox="0 -64 1024 1024"><path d="M363 907 q10 0 19 -2 q9 -2 18 -6 q8 -3 16 -8.5 q8 -5.5 15 -12.5 l124 -124 q6 -6 14 -9.5 q8 -3.5 17 -3.5 l267 0 q24 0 45.5 -9 q21.5 -9 37.5 -25 q17 -17 26 -38.5 q9 -21.5 9 -44.5 l0 -512 q0 -24 -9 -45.5 q-9 -21.5 -26 -37.5 q-16 -17 -37.5 -26 q-21.5 -9 -45.5 -9 l-682 0 q-24 0 -45.5 9 q-21.5 9 -37.5 26 q-17 16 -26 37.5 q-9 21.5 -9 45.5 l0 512 q0 23 9 44.5 q9 21.5 26 38.5 q16 16 37.5 25 q21.5 9 45.5 9 l53 0 q8 0 16 3.5 q8 3.5 14 9.5 q6 6 9.5 13.5 q3.5 7.5 3.5 16.5 l0 27 q0 14 4 27.5 q4 13.5 12 25.5 q8 12 19 21 q11 9 24 14 q9 4 18.5 6 q9.5 2 18.5 2 l0 0 ZM171 58 l682 0 q11 0 21 4 q10 4 17 12 q8 7 12 17 q4 10 4 21 l0 512 q0 10 -4 20 q-4 10 -12 17 q-7 8 -17 12 q-10 4 -21 4 l-267 0 q-22 0 -41.5 8 q-19.5 8 -34.5 23 l-125 125 q-3 3 -7 5.5 q-4 2.5 -9 3.5 q-5 1 -9.5 0.5 q-4.5 -0.5 -9.5 -2.5 q-4 -2 -7.5 -5 q-3.5 -3 -6.5 -7 q-3 -4 -4 -8.5 q-1 -4.5 -1 -8.5 l0 -27 q0 -21 -8.5 -41 q-8.5 -20 -23.5 -35 q-15 -15 -34.5 -23 q-19.5 -8 -40.5 -8 l-53 0 q-11 0 -21 -4 q-10 -4 -17 -12 q-8 -7 -12 -17 q-4 -10 -4 -20 l0 -512 q0 -11 4 -21 q4 -10 12 -17 q7 -8 17 -12 q10 -4 21 -4 l0 0 ZM725 314 q7 0 12.5 -2.5 q5.5 -2.5 10.5 -6.5 q4 -5 6.5 -10.5 q2.5 -5.5 2.5 -12.5 q0 -6 -2.5 -12 q-2.5 -6 -6.5 -10 q-5 -5 -10.5 -7.5 q-5.5 -2.5 -12.5 -2.5 l-426 0 q-7 0 -12.5 2.5 q-5.5 2.5 -10.5 7.5 q-4 4 -6.5 10 q-2.5 6 -2.5 12 q0 7 2.5 12.5 q2.5 5.5 6.5 10.5 q5 4 10.5 6.5 q5.5 2.5 12.5 2.5 l426 0 ZM555 485 q6 0 12 -2.5 q6 -2.5 10 -6.5 q5 -5 7.5 -11 q2.5 -6 2.5 -12 q0 -6 -2.5 -12 q-2.5 -6 -7.5 -11 q-4 -4 -10 -6.5 q-6 -2.5 -12 -2.5 l-256 0 q-7 0 -12.5 2.5 q-5.5 2.5 -10.5 6.5 q-4 5 -6.5 11 q-2.5 6 -2.5 12 q0 6 2.5 12 q2.5 6 6.5 11 q5 4 10.5 6.5 q5.5 2.5 12.5 2.5 l256 0 Z"></path></symbol><symbol id="uni-59667" viewBox="0 -64 1024 1024"><path d="M934 358 l-212 0 l0 64 q51 5 95 28 q43 23 75.5 59 q32.5 36 51.5 82 q19 47 19 99 q0 56 -22 105 q-21 49 -57.5 85.5 q-36.5 36.5 -85.5 58.5 q-49 21 -105 21 q-48 0 -91 -15.5 q-43 -15.5 -78 -43.5 l-50 50 q-9 8 -21.5 8 q-12.5 0 -21.5 -8 l-39 -39 l-39 39 q-9 8 -21.5 8 q-12.5 0 -21.5 -8 l-38 -39 l-39 39 q-9 8 -21.5 8 q-12.5 0 -20.5 -8 l-41 -41 l-38 40 q-14 15 -33 7.5 q-19 -7.5 -19 -28.5 l0 -843 q0 -62 44 -106 q44 -44 106 -44 q8 0 100 0 q92 0 201 0 q109 0 202 0 q92 0 100 0 q63 0 107 44.5 q44 44.5 44 106.5 l0 241 q0 13 -9 21.5 q-9 8.5 -21 8.5 l0 0 ZM904 87 q0 -38 -27 -64.5 q-27 -26.5 -64 -26.5 q-38 0 -64.5 26.5 q-26.5 26.5 -26.5 64.5 l0 211 l182 0 l0 -211 l0 0 ZM453 887 l29 -29 q-50 -61 -57 -134 q-8 -73 18.5 -137 q26.5 -64 82.5 -110 q57 -46 136 -55 l0 -335 q0 -26 8 -49 q8 -23 22 -42 l-482 0 q-37 0 -63.5 26.5 q-26.5 26.5 -26.5 63.5 l0 769 l8 -9 q9 -8 21.5 -8.5 q12.5 -0.5 21.5 8.5 l41 41 l38 -38 q9 -9 21.5 -9 q12.5 0 21.5 9 l38 38 l40 -39 q9 -9 21 -9 q12 0 21 9 l40 39 l0 0 ZM903 690 q0 -43 -17 -82 q-16 -38 -44.5 -66.5 q-28.5 -28.5 -67.5 -44.5 q-38 -17 -81 -17 q-44 0 -82 17 q-38 16 -66.5 44.5 q-28.5 28.5 -45.5 66.5 q-16 39 -16 82 q0 43 16 82 q17 38 45.5 66.5 q28.5 28.5 66.5 44.5 q38 17 82 17 q43 0 81 -17 q39 -16 67.5 -44.5 q28.5 -28.5 44.5 -66.5 q17 -39 17 -82 ZM673 607 q0 -13 8.5 -21.5 q8.5 -8.5 21.5 -8.5 q12 0 21 8.5 q9 8.5 9 21.5 l0 91 q0 12 -9 21 q-9 9 -21 9 l-91 0 q-12 0 -21 -9 q-9 -9 -9 -21 q0 -12 9 -21 q9 -9 21 -9 l61 0 l0 -61 ZM445 209 q43 33 31.5 81.5 q-11.5 48.5 -56.5 63.5 l0 6 q0 13 -9 21.5 q-9 8.5 -21 8.5 q-13 0 -21.5 -8.5 q-8.5 -8.5 -8.5 -21.5 l0 -3 q-12 -3 -23 -7.5 q-11 -4.5 -20 -10.5 q-10 -6 -12.5 -18.5 q-2.5 -12.5 4.5 -22.5 q6 -11 18.5 -13.5 q12.5 -2.5 22.5 4.5 q11 8 27 10 q16 2 25 -2 q7 -3 11.5 -9 q4.5 -6 4.5 -12 q2 -14 -12 -21.5 q-14 -7.5 -26 -12.5 q-16 -6 -33.5 -15.5 q-17.5 -9.5 -28.5 -29.5 q-15 -28 -3 -60.5 q12 -32.5 45 -44.5 l0 -5 q0 -12 8.5 -21 q8.5 -9 21.5 -9 q12 0 21 9 q9 9 9 21 l0 3 q9 3 18 7.5 q9 4.5 16 10.5 q9 9 9.5 21 q0.5 12 -8.5 22 q-8 9 -20.5 9.5 q-12.5 0.5 -21.5 -8.5 q-5 -4 -17 -5.5 q-12 -1.5 -19 3.5 q-4 3 -6 8.5 q-2 5.5 0 9.5 q6 11 29.5 17.5 q23.5 6.5 44.5 23.5 l0 0 ZM362 448 q12 0 21 9 q9 9 9 21 q0 13 -9 21.5 q-9 8.5 -21 8.5 l-150 0 q-12 0 -21 -8.5 q-9 -8.5 -9 -21.5 q0 -12 9 -21 q9 -9 21 -9 l150 0 ZM362 568 q12 0 21 9 q9 9 9 21 q0 13 -9 21.5 q-9 8.5 -21 8.5 l-150 0 q-13 0 -21.5 -8.5 q-8.5 -8.5 -8.5 -21.5 q0 -12 8.5 -21 q8.5 -9 21.5 -9 l150 0 ZM362 688 q12 0 21 9 q9 9 9 21 q0 13 -9 21.5 q-9 8.5 -21 8.5 l-150 0 q-13 0 -21.5 -8.5 q-8.5 -8.5 -8.5 -21.5 q0 -12 8.5 -21 q8.5 -9 21.5 -9 l150 0 Z"></path></symbol><symbol id="uni-59668" viewBox="0 -64 1024 1024"><path d="M132 951 q18 0 29.5 -12.5 q11.5 -12.5 13.5 -29.5 l0 -843 q0 -18 -12.5 -30.5 q-12.5 -12.5 -30.5 -12.5 q-17 0 -29.5 12.5 q-12.5 12.5 -12.5 30.5 l0 843 q0 17 12.5 29.5 q12.5 12.5 29.5 12.5 ZM292 646 q61 -1 120 -22.5 q59 -21.5 117 -45.5 q53 -24 104 -43 q51 -19 99 -19 q37 0 68.5 13 q31.5 13 63.5 40 q10 8 22 10 q12 2 23 -3 q11 -5 18 -15.5 q7 -10.5 7 -23.5 l0 -484 q0 -9 -4 -17 q-4 -8 -11 -15 q-43 -38 -88.5 -56 q-45.5 -18 -98.5 -18 q-63 0 -121 21 q-58 21 -116 47 q-53 24 -104 43 q-51 19 -99 19 q-37 0 -68.5 -13 q-31.5 -13 -63.5 -41 q-10 -8 -22 -9.5 q-12 -1.5 -23 3.5 q-11 5 -18 15.5 q-7 10.5 -7 22.5 l0 485 q0 9 4 17 q4 8 11 15 q43 38 88.5 56 q45.5 18 98.5 18 l0 0 ZM173 520 l0 -386 q29 15 58 21.5 q29 6.5 61 6.5 q63 0 121 -21.5 q58 -21.5 116 -46.5 q53 -24 104 -43 q51 -19 99 -19 q33 0 62.5 11 q29.5 11 56.5 32 l0 386 q-29 -15 -58 -21.5 q-29 -6.5 -61 -6.5 q-63 0 -121 21.5 q-58 21.5 -116 46.5 q-53 24 -104 43 q-51 19 -99 19 q-33 0 -62.5 -11 q-29.5 -11 -56.5 -32 l0 0 Z"></path></symbol><symbol id="uni-59669" viewBox="0 -64 1024 1024"><path d="M134 903 q3 0 6 0 q3 0 6 -1 l216 -35 q12 -2 22 -7.5 q10 -5.5 19 -13.5 l503 -503 q14 -14 25.5 -30.5 q11.5 -16.5 19.5 -35.5 q8 -18 12 -38 q4 -20 4 -40 q0 -20 -4 -40 q-4 -20 -11 -38 q-8 -19 -19 -35.5 q-11 -16.5 -25 -31.5 q-15 -14 -31.5 -25 q-16.5 -11 -35.5 -19 q-18 -7 -38 -11 q-20 -4 -40 -4 q-20 0 -39.5 4 q-19.5 4 -38.5 12 q-19 8 -35.5 19.5 q-16.5 11.5 -30.5 25.5 l-503 503 q-8 9 -13.5 19.5 q-5.5 10.5 -7.5 21.5 l-35 216 q-2 8 -1.5 16.5 q0.5 8.5 3.5 16.5 q2 7 5.5 14.5 q3.5 7.5 9.5 13.5 q5 6 11.5 11 q6.5 5 13.5 8 q8 4 15.5 5.5 q7.5 1.5 16.5 1.5 l0 0 ZM762 61 l0 0 q21 0 40.5 6 q19.5 6 36.5 17 q18 12 31 27.5 q13 15.5 21 34.5 q7 19 9.5 39.5 q2.5 20.5 -2.5 41.5 q-4 20 -13.5 38 q-9.5 18 -23.5 33 l-504 503 q-1 1 -2.5 1.5 q-1.5 0.5 -2.5 1.5 l-217 35 q-1 0 -2.5 0 q-1.5 0 -2.5 0 q-1 -1 -2 -1.5 q-1 -0.5 -2 -1.5 q-1 -1 -1.5 -2 q-0.5 -1 -1.5 -2 q0 -1 0 -2.5 q0 -1.5 0 -2.5 l35 -216 q1 -2 1.5 -3.5 q0.5 -1.5 1.5 -2.5 l503 -504 q10 -9 21.5 -16.5 q11.5 -7.5 23.5 -13.5 q13 -5 26.5 -7.5 q13.5 -2.5 26.5 -2.5 l0 0 ZM387 849 q4 0 8.5 -1 q4.5 -1 8.5 -4 q4 -3 7 -6.5 q3 -3.5 5 -7.5 q2 -5 2.5 -9.5 q0.5 -4.5 -0.5 -9.5 q-1 -5 -3 -9 q-2 -4 -6 -7 l-241 -242 q-3 -2 -5.5 -4 q-2.5 -2 -5.5 -3 q-3 -1 -6 -2 q-3 -1 -6 -1 q-3 0 -6.5 0.5 q-3.5 0.5 -6.5 1.5 q-3 2 -5.5 3.5 q-2.5 1.5 -4.5 3.5 q-3 3 -4.5 5.5 q-1.5 2.5 -2.5 5.5 q-2 3 -2.5 6 q-0.5 3 -0.5 7 q0 3 1 6 q1 3 2 6 q1 3 3 5.5 q2 2.5 4 4.5 l242 242 q2 2 4.5 4 q2.5 2 5.5 3 q3 1 6 1.5 q3 0.5 7 0.5 l0 0 ZM834 401 q5 0 9.5 -1 q4.5 -1 8.5 -4 q4 -3 7 -6.5 q3 -3.5 5 -7.5 q1 -5 1.5 -9.5 q0.5 -4.5 -0.5 -9.5 q0 -5 -2.5 -9 q-2.5 -4 -5.5 -7 l-242 -242 q-4 -4 -10 -6.5 q-6 -2.5 -12 -2.5 q-7 0 -12.5 2.5 q-5.5 2.5 -10.5 7.5 q-4 4 -6.5 10 q-2.5 6 -2.5 12 q0 6 2.5 12 q2.5 6 6.5 10 l242 242 q2 2 4.5 4 q2.5 2 5.5 3 q3 1 6 1.5 q3 0.5 6 0.5 l0 0 Z"></path></symbol><symbol id="uni-59670" viewBox="0 -64 1024 1024"><path d="M512 906.67 q46 0 90 -9 q44 -9 85.5 -26.5 q41.5 -17.5 78.5 -42.5 q38 -25 70 -57 q32 -32 57 -70 q25 -37 42.5 -78.5 q17.5 -41.5 26.5 -85.5 q9 -44 9 -90 q0 -68 -20 -133 q-20 -65 -58 -122 q-37 -56 -90 -99.5 q-53 -43.5 -115 -69.5 q-63 -26 -131 -32.5 q-68 -6.5 -134 6.5 q-67 13 -127 45.5 q-60 32.5 -108 80.5 q-48 48 -80.5 108 q-32.5 60 -45.5 127 q-13 66 -6.5 134 q6.5 68 32.5 131 q26 62 69.5 115 q43.5 53 99.5 90 q57 38 122 58 q65 20 133 20 l0 0 ZM512 52.67 q78 0 150.5 30.5 q72.5 30.5 128.5 85.5 q55 56 85.5 128.5 q30.5 72.5 30.5 150.5 q0 59 -17 115 q-17 56 -50 104 q-32 49 -77.5 86 q-45.5 37 -99.5 60 q-54 22 -112.5 28 q-58.5 6 -115.5 -6 q-57 -11 -109 -39 q-52 -28 -93 -69 q-41 -41 -69 -93 q-28 -52 -39 -109 q-12 -57 -6 -115.5 q6 -58.5 28 -112.5 q23 -54 60 -99.5 q37 -45.5 86 -77.5 q48 -33 104 -50 q56 -17 115 -17 l0 0 ZM512 650.67 q6 0 12 -2.5 q6 -2.5 11 -7.5 q4 -4 6.5 -10 q2.5 -6 2.5 -12 l0 -342 q0 -6 -2.5 -12 q-2.5 -6 -6.5 -10 q-5 -5 -11 -7.5 q-6 -2.5 -12 -2.5 q-6 0 -12 2.5 q-6 2.5 -11 7.5 q-4 4 -6.5 10 q-2.5 6 -2.5 12 l0 342 q0 6 2.5 12 q2.5 6 6.5 10 q5 5 11 7.5 q6 2.5 12 2.5 ZM683 479.67 q6 0 12 -2.5 q6 -2.5 10 -6.5 q5 -5 7.5 -11 q2.5 -6 2.5 -12 q0 -6 -2.5 -12 q-2.5 -6 -7.5 -11 q-4 -4 -10 -6.5 q-6 -2.5 -12 -2.5 l-342 0 q-6 0 -12 2.5 q-6 2.5 -10 6.5 q-5 5 -7.5 11 q-2.5 6 -2.5 12 q0 6 2.5 12 q2.5 6 7.5 11 q4 4 10 6.5 q6 2.5 12 2.5 l342 0 Z"></path></symbol><symbol id="uni-59671" viewBox="0 -64 1024 1024"><path d="M905 55 q15 15 26.5 32.5 q11.5 17.5 19.5 36.5 q8 19 12 39.5 q4 20.5 4 41.5 l0 364 q0 43 -16.5 81.5 q-16.5 38.5 -45.5 68.5 q-30 30 -69 46 q-39 16 -81 16 l-426 0 q-11 0 -21 2.5 q-10 2.5 -20 7.5 q-9 5 -17.5 11.5 q-8.5 6.5 -14.5 15.5 l-35 49 q-9 11 -20.5 19.5 q-11.5 8.5 -25.5 12.5 q-14 4 -28 4 q-14 0 -28 -5 q-13 -4 -25 -12.5 q-12 -8.5 -20 -20.5 q-8 -11 -12.5 -25 q-4.5 -14 -4.5 -28 l0 -607 q0 -21 4 -41.5 q4 -20.5 12 -39.5 q8 -19 19.5 -36.5 q11.5 -17.5 26.5 -32.5 q15 -15 32.5 -26.5 q17.5 -11.5 36.5 -19.5 q19 -8 39.5 -12 q20.5 -4 41.5 -4 l486 0 q21 0 41.5 4 q20.5 4 39.5 12 q19 8 36.5 19.5 q17.5 11.5 32.5 26.5 l0 0 ZM906 569 l0 -364 q0 -30 -11.5 -58 q-11.5 -28 -32.5 -49 q-21 -21 -49 -33 q-28 -12 -58 -12 l-486 0 q-15 0 -29.5 3 q-14.5 3 -28.5 9 q-14 6 -26.5 14 q-12.5 8 -22.5 19 q-11 10 -19 22.5 q-8 12.5 -14 26.5 q-6 14 -9 28.5 q-3 14.5 -3 29.5 l0 607 q1 5 2.5 9.5 q1.5 4.5 3.5 8.5 q3 4 7 6.5 q4 2.5 8 4.5 q5 1 9.5 1 q4.5 0 9.5 -1 q4 -1 8 -4 q4 -3 7 -7 l36 -48 q11 -14 24.5 -25.5 q13.5 -11.5 29.5 -19.5 q16 -8 33 -12 q17 -4 35 -4 l425 0 q30 0 57.5 -11.5 q27.5 -11.5 49.5 -32.5 q21 -22 32.5 -49.5 q11.5 -27.5 11.5 -58.5 l0 0 ZM304 204 l-35 13 l21 31 l1 37 l36 -10 l36 10 l1 -37 l21 -31 l-35 -13 l-23 -29 l-23 29 ZM455 204 l-34 13 l20 31 l2 37 l36 -10 l35 10 l2 -37 l20 -31 l-34 -13 l-23 -29 l-24 29 ZM630 175 l-23 29 l-34 13 l20 31 l2 37 l35 -10 l36 10 l2 -37 l20 -31 l-34 -13 l-24 -29 l0 0 ZM269 600 l243 0 l0 -61 l-243 0 l0 61 ZM269 448 l516 0 l0 -61 l-516 0 l0 61 Z"></path></symbol><symbol id="uni-59672" viewBox="0 -64 1024 1024"><path d="M1002 402 l-180 175 q-5 6 -7.5 13.5 q-2.5 7.5 -1.5 15.5 l42 247 q3 16 -1 31.5 q-4 15.5 -15 27.5 q-10 13 -25 20 q-15 7 -31 7 q-9 0 -17.5 -2.5 q-8.5 -2.5 -16.5 -6.5 l-222 -117 q-7 -3 -15 -3 q-8 0 -15 3 l-222 117 q-23 12 -48.5 7 q-25.5 -5 -41.5 -25 q-11 -12 -15 -27.5 q-4 -15.5 -1 -31.5 l42 -247 q1 -8 -1.5 -15.5 q-2.5 -7.5 -7.5 -13.5 l-180 -175 q-15 -15 -20 -35 q-5 -20 2 -40 q6 -20 22 -33.5 q16 -13.5 37 -16.5 l248 -36 q8 -1 14.5 -6 q6.5 -5 9.5 -12 l111 -225 q9 -19 27 -30 q18 -11 39 -11 q21 0 39 11 q18 11 27 30 l111 225 q3 7 9.5 12 q6.5 5 14.5 6 l248 36 q21 3 37 16.5 q16 13.5 22 33.5 q7 20 2 40 q-5 20 -20 35 l0 0 Z"></path></symbol><symbol id="uni-59673" viewBox="0 -64 1024 1024"><path d="M964 425.55 q25 4 42.5 23.5 q17.5 19.5 17.5 46.5 l0 160 q0 26 -17.5 45.5 q-17.5 19.5 -42.5 23.5 l0 125 q0 45 -32.5 77.5 q-32.5 32.5 -77.5 32.5 l-744 0 q-45 0 -77.5 -32.5 q-32.5 -32.5 -32.5 -77.5 l0 -544 q0 -44 30 -75.5 q30 -31.5 73 -34.5 l-14 -38 q-5 -14 -4.5 -27.5 q0.5 -13.5 6.5 -26.5 q6 -13 16.5 -22 q10.5 -9 23.5 -14 l350 -127 q13 -5 26.5 -4.5 q13.5 0.5 26.5 6.5 q13 6 22.5 16 q9.5 10 13.5 24 l25 69 l193 0 q29 0 49.5 20.5 q20.5 20.5 20.5 49.5 l0 74 q44 1 75 33 q31 32 31 77 l0 120 l0 0 ZM964 495.55 q0 -4 -3 -7 q-3 -3 -7 -3 l-160 0 q-37 0 -63.5 26.5 q-26.5 26.5 -26.5 63.5 q0 37 26.5 63.5 q26.5 26.5 63.5 26.5 l160 0 q4 0 7 -3 q3 -3 3 -7 l0 -160 ZM145 136.55 l22 59 l281 0 l0 -74 q0 -29 20.5 -49.5 q20.5 -20.5 49.5 -20.5 l14 0 l-18 -49 q-1 -3 -2.5 -4 q-1.5 -1 -2.5 -2 q-1 0 -3 -0.5 q-2 -0.5 -5 0.5 l-350 127 q-2 1 -3.5 2.5 q-1.5 1.5 -1.5 2.5 q-1 1 -1 3 q0 2 0 5 l0 0 ZM798 121.55 q0 -4 -3 -7 q-3 -3 -7 -3 l-270 0 q-4 0 -7 3 q-3 3 -3 7 l0 74 l290 0 l0 -74 ZM854 899.55 q21 0 35.5 -15 q14.5 -15 14.5 -35 l0 -124 l-110 0 q-62 0 -106 -44 q-44 -44 -44 -106 q0 -62 44 -106 q44 -44 106 -44 l110 0 l0 -120 q0 -21 -14.5 -35.5 q-14.5 -14.5 -35.5 -14.5 l-744 0 q-21 0 -35.5 14.5 q-14.5 14.5 -14.5 35.5 l0 544 q0 20 14.5 35 q14.5 15 35.5 15 l744 0 l0 0 ZM794 605.55 q-12 0 -21 -9 q-9 -9 -9 -21 q0 -13 9 -21.5 q9 -8.5 21 -8.5 q12 0 21 8.5 q9 8.5 9 21.5 q0 12 -9 21 q-9 9 -21 9 Z"></path></symbol><symbol id="uni-59674" viewBox="0 -64 1024 1024"><path d="M512 906.67 q46 0 90 -9 q44 -9 85.5 -26.5 q41.5 -17.5 78.5 -42.5 q38 -25 70 -57 q32 -32 57 -70 q25 -37 42.5 -78.5 q17.5 -41.5 26.5 -85.5 q9 -44 9 -90 q0 -68 -20 -133 q-20 -65 -58 -122 q-37 -56 -90 -99.5 q-53 -43.5 -115 -69.5 q-63 -26 -131 -32.5 q-68 -6.5 -134 6.5 q-67 13 -127 45.5 q-60 32.5 -108 80.5 q-48 48 -80.5 108 q-32.5 60 -45.5 127 q-13 66 -6.5 134 q6.5 68 32.5 131 q26 62 69.5 115 q43.5 53 99.5 90 q57 38 122 58 q65 20 133 20 l0 0 ZM512 52.67 q78 0 150.5 30.5 q72.5 30.5 128.5 85.5 q55 56 85.5 128.5 q30.5 72.5 30.5 150.5 q0 59 -17 115 q-17 56 -50 104 q-32 49 -77.5 86 q-45.5 37 -99.5 60 q-54 22 -112.5 28 q-58.5 6 -115.5 -6 q-57 -11 -109 -39 q-52 -28 -93 -69 q-41 -41 -69 -93 q-28 -52 -39 -109 q-12 -57 -6 -115.5 q6 -58.5 28 -112.5 q23 -54 60 -99.5 q37 -45.5 86 -77.5 q48 -33 104 -50 q56 -17 115 -17 l0 0 ZM512 479.67 q32 0 61.5 -12 q29.5 -12 51.5 -35 q23 -22 35 -51.5 q12 -29.5 12 -61.5 q0 -24 -7 -46.5 q-7 -22.5 -20 -42.5 q-13 -20 -31.5 -35 q-18.5 -15 -40.5 -24 q-22 -9 -45.5 -11.5 q-23.5 -2.5 -46.5 2.5 q-23 5 -44 16 q-21 11 -38 28 q-17 17 -28 38 q-11 21 -16 44 q-5 23 -2.5 46.5 q2.5 23.5 11.5 45.5 q9 22 24 40.5 q15 18.5 35 31.5 q20 13 42.5 20 q22.5 7 46.5 7 l0 0 ZM512 223.67 q19 0 36.5 7.5 q17.5 7.5 31.5 20.5 q13 14 20.5 31.5 q7.5 17.5 7.5 36.5 q0 14 -4 27.5 q-4 13.5 -12 25.5 q-8 12 -19 21 q-11 9 -24 15 q-13 5 -27.5 6.5 q-14.5 1.5 -28.5 -1.5 q-14 -3 -26.5 -9.5 q-12.5 -6.5 -22.5 -16.5 q-10 -10 -16.5 -22.5 q-6.5 -12.5 -9.5 -26.5 q-3 -14 -1.5 -28.5 q1.5 -14.5 6.5 -27.5 q6 -13 15 -24 q9 -11 21 -19 q12 -8 25.5 -12 q13.5 -4 27.5 -4 l0 0 ZM725 692.67 q3 0 5.5 0 q2.5 0 4.5 -1 q3 -1 6 -2.5 q3 -1.5 5 -3.5 q3 -3 5 -5.5 q2 -2.5 3 -4.5 q1 -3 2 -6 q1 -3 1 -6 q0 -4 0 -7 q0 -3 -1 -6 l-23 -69 q-6 -18 -17 -33 q-11 -15 -26 -26 q-15 -10 -32.5 -16 q-17.5 -6 -36.5 -6 l-218 0 q-19 0 -36.5 6 q-17.5 6 -32.5 16 q-15 11 -26 26 q-11 15 -16 33 l-24 69 q-2 6 -1.5 12.5 q0.5 6.5 3.5 12.5 q3 5 8 9.5 q5 4.5 11 6.5 q6 2 12 1.5 q6 -0.5 12 -3.5 q6 -3 10 -8 q4 -5 6 -11 l23 -69 q3 -8 8 -15 q5 -7 12 -12 q6 -5 14 -7.5 q8 -2.5 17 -2.5 l218 0 q9 0 17 2.5 q8 2.5 14 7.5 q7 5 12 12 q5 7 8 15 l23 69 q2 5 5 9 q3 4 7 7 q4 3 8.5 4.5 q4.5 1.5 9.5 1.5 l0 0 Z"></path></symbol><symbol id="uni-59675" viewBox="0 -64 1024 1024"><path d="M813 -33 q44 0 82 17 q39 16 67.5 44.5 q28.5 28.5 44.5 67.5 q17 38 17 82 q0 43 -17 81 q-16 39 -44.5 67.5 q-28.5 28.5 -67.5 45.5 q-38 16 -82 16 l-269 0 l0 65 l161 20 q34 4 56.5 29.5 q22.5 25.5 22.5 59.5 l0 337 q0 12 -9 21 q-9 9 -21 9 l-360 0 q-13 0 -21.5 -9 q-8.5 -9 -8.5 -21 l0 -106 l-131 -110 q-29 -25 -31 -62 q-2 -37 25 -63 q26 -26 64 -27.5 q38 -1.5 65 21.5 l8 6 l0 -170 l-153 0 q-44 0 -82 -16 q-39 -17 -67.5 -45.5 q-28.5 -28.5 -44.5 -67.5 q-17 -38 -17 -81 q0 -44 17 -82 q16 -39 44.5 -67.5 q28.5 -28.5 67.5 -44.5 q38 -17 82 -17 l602 0 l0 0 ZM424 869 l300 0 l0 -60 l-300 0 l0 60 l0 0 ZM698 532 l-188 -23 q-11 -2 -18.5 -10.5 q-7.5 -8.5 -7.5 -19.5 l0 -240 q0 -12 -9 -21 q-9 -9 -21 -9 q-13 0 -21.5 9 q-8.5 9 -8.5 21 l0 384 q0 19 -17.5 27 q-17.5 8 -31.5 -4 l-57 -48 q-10 -8 -24.5 -7.5 q-14.5 0.5 -23.5 9.5 q-8 8 -8 19 q0 11 9 18 l134 112 l319 0 l0 -187 q0 -11 -7.5 -19.5 q-7.5 -8.5 -18.5 -10.5 l0 0 ZM813 328 q63 0 107 -44 q44 -44 44 -106 q0 -63 -44 -107 q-44 -44 -107 -44 l-602 0 q-63 0 -107 44 q-44 44 -44 107 q0 62 44 106 q44 44 107 44 l153 0 l0 -89 q0 -37 26.5 -63.5 q26.5 -26.5 63.5 -26.5 q37 0 63.5 26.5 q26.5 26.5 26.5 63.5 l0 89 l269 0 ZM791 96 q8 -9 20.5 -9 q12.5 0 21.5 9 q9 9 9 21 q0 12 -9 21 l-120 120 q-9 9 -21.5 9 q-12.5 0 -20.5 -9 l-60 -60 q-9 -9 -9 -21 q0 -12 9 -21 q8 -9 20.5 -9 q12.5 0 21.5 9 l39 39 l99 -99 l0 0 Z"></path></symbol><symbol id="uni-59676" viewBox="0 -64 1024 1024"><path d="M811 907 q31 0 60.5 -12.5 q29.5 -12.5 52.5 -34.5 q22 -23 34.5 -52.5 q12.5 -29.5 12.5 -60.5 l0 -512 q0 -32 -12.5 -61.5 q-12.5 -29.5 -34.5 -51.5 q-23 -23 -52.5 -35 q-29.5 -12 -60.5 -12 l-598 0 q-31 0 -60.5 12 q-29.5 12 -52.5 35 q-22 22 -34.5 51.5 q-12.5 29.5 -12.5 61.5 l0 512 q0 31 12.5 60.5 q12.5 29.5 34.5 52.5 q23 22 52.5 34.5 q29.5 12.5 60.5 12.5 l598 0 ZM213 139 l598 0 q19 0 36.5 7 q17.5 7 31.5 21 q13 13 20.5 31 q7.5 18 7.5 37 l0 512 q0 19 -7.5 36.5 q-7.5 17.5 -20.5 31.5 q-14 13 -31.5 20.5 q-17.5 7.5 -36.5 7.5 l-598 0 q-19 0 -36.5 -7.5 q-17.5 -7.5 -31.5 -20.5 q-13 -14 -20.5 -31.5 q-7.5 -17.5 -7.5 -36.5 l0 -512 q0 -19 7.5 -37 q7.5 -18 20.5 -31 q14 -14 31.5 -21 q17.5 -7 36.5 -7 l0 0 ZM939 352 q6 0 12 -2.5 q6 -2.5 10 -6.5 q5 -5 7.5 -11 q2.5 -6 2.5 -12 l0 -85 q0 -32 -12.5 -61.5 q-12.5 -29.5 -34.5 -51.5 q-23 -23 -52.5 -35 q-29.5 -12 -60.5 -12 l-598 0 q-31 0 -60.5 12 q-29.5 12 -52.5 35 q-22 22 -34.5 51.5 q-12.5 29.5 -12.5 61.5 l0 85 q0 6 2.5 12 q2.5 6 7.5 11 q4 4 10 6.5 q6 2.5 12 2.5 l854 0 l0 0 ZM117 288 l0 -53 q0 -19 7.5 -37 q7.5 -18 20.5 -31 q14 -14 31.5 -21 q17.5 -7 36.5 -7 l598 0 q19 0 36.5 7 q17.5 7 31.5 21 q13 13 20.5 31 q7.5 18 7.5 37 l0 53 l-790 0 l0 0 ZM683 224 q6 0 12 -2.5 q6 -2.5 10 -6.5 q5 -5 7.5 -11 q2.5 -6 2.5 -12 l0 -171 q0 -6 -2.5 -12 q-2.5 -6 -7.5 -10 q-4 -5 -10 -7.5 q-6 -2.5 -12 -2.5 q-7 0 -12.5 2.5 q-5.5 2.5 -10.5 7.5 q-4 4 -6.5 10 q-2.5 6 -2.5 12 l0 171 q0 6 2.5 12 q2.5 6 6.5 11 q5 4 10.5 6.5 q5.5 2.5 12.5 2.5 ZM341 224 q7 0 12.5 -2.5 q5.5 -2.5 10.5 -6.5 q4 -5 6.5 -11 q2.5 -6 2.5 -12 l0 -171 q0 -6 -2.5 -12 q-2.5 -6 -6.5 -10 q-5 -5 -10.5 -7.5 q-5.5 -2.5 -12.5 -2.5 q-6 0 -12 2.5 q-6 2.5 -10 7.5 q-5 4 -7.5 10 q-2.5 6 -2.5 12 l0 171 q0 6 2.5 12 q2.5 6 7.5 11 q4 4 10 6.5 q6 2.5 12 2.5 ZM469 693 q3 0 6.5 -0.5 q3.5 -0.5 6.5 -1.5 q2 -1 5 -3 q3 -2 5 -4 l171 -171 q4 -4 6 -10 q2 -6 2 -12 q0 -6 -2.5 -12 q-2.5 -6 -6.5 -10 q-5 -5 -10.5 -7 q-5.5 -2 -11.5 -3 q-6 0 -12 2.5 q-6 2.5 -11 6.5 l-148 148 l-62 -63 q-5 -4 -11 -6 q-6 -2 -12 -2 q-6 0 -11.5 2.5 q-5.5 2.5 -10.5 6.5 q-4 5 -6.5 10.5 q-2.5 5.5 -2.5 11.5 q0 6 2 12 q2 6 6 11 l86 85 q2 2 4.5 4 q2.5 2 5.5 3 q3 1 6 1.5 q3 0.5 6 0.5 l0 0 Z"></path></symbol><symbol id="uni-59677" viewBox="0 -64 1024 1024"><path d="M725 116.5 q17 -2 33 0 q16 2 31 7 q16 6 29.5 14.5 q13.5 8.5 25.5 20.5 q12 11 20.5 25 q8.5 14 13.5 29 q6 16 7.5 32 q1.5 16 -0.5 32 l0 427 q2 16 0.5 32.5 q-1.5 16.5 -7.5 31.5 q-5 15 -13.5 29 q-8.5 14 -20.5 26 q-12 11 -25.5 20 q-13.5 9 -29.5 14 q-15 5 -31 7 q-16 2 -33 0 l-426 0 q-17 2 -33 0 q-16 -2 -31 -7 q-16 -5 -29.5 -14 q-13.5 -9 -25.5 -20 q-12 -12 -20.5 -26 q-8.5 -14 -13.5 -29 q-6 -15 -7.5 -31.5 q-1.5 -16.5 0.5 -32.5 l0 -427 q-2 -16 -0.5 -32 q1.5 -16 7.5 -32 q5 -15 13.5 -29 q8.5 -14 20.5 -25 q12 -12 25.5 -20.5 q13.5 -8.5 29.5 -14.5 q15 -5 31 -7 q16 -2 33 0 l11 0 q0 -9 2 -17.5 q2 -8.5 6 -16.5 q4 -9 9 -16 q5 -7 12 -13 q7 -6 14.5 -10.5 q7.5 -4.5 16.5 -7.5 q8 -3 17 -4 q9 -1 18 0 l214 0 q9 -1 18 0 q9 1 17 4 q9 3 16.5 7.5 q7.5 4.5 14.5 10.5 q7 6 12 13 q5 7 9 16 q4 8 6 16.5 q2 8.5 2 17.5 l11 0 l0 0 ZM373 170.5 q0 19 6.5 25.5 q6.5 6.5 25.5 6.5 l214 0 q19 0 25.5 -6.5 q6.5 -6.5 6.5 -25.5 l0 -43 q0 -19 -6.5 -25.5 q-6.5 -6.5 -25.5 -6.5 l-214 0 q-19 0 -25.5 6.5 q-6.5 6.5 -6.5 25.5 l0 43 ZM821 703.5 l0 -427 q0 -50 -22.5 -73 q-22.5 -23 -73.5 -23 l-11 0 q0 9 -2 18 q-2 9 -6 17 q-4 8 -9 15.5 q-5 7.5 -12 13.5 q-7 6 -14.5 10.5 q-7.5 4.5 -16.5 7.5 q-8 3 -17 4 q-9 1 -18 0 l-214 0 q-9 1 -18 0 q-9 -1 -17 -4 q-9 -3 -16.5 -7.5 q-7.5 -4.5 -14.5 -10.5 q-7 -6 -12 -13.5 q-5 -7.5 -9 -15.5 q-4 -8 -6 -17 q-2 -9 -2 -18 l-11 0 q-51 0 -73.5 23 q-22.5 23 -22.5 73 l0 427 q0 50 22.5 73 q22.5 23 73.5 23 l426 0 q51 0 73.5 -23 q22.5 -23 22.5 -73 l0 0 ZM651 511.5 q0 -6 -2.5 -12 q-2.5 -6 -7.5 -11 q-4 -4 -10 -6.5 q-6 -2.5 -12 -2.5 l-75 0 l0 -75 q0 -6 -2.5 -12 q-2.5 -6 -6.5 -10 q-5 -5 -11 -7.5 q-6 -2.5 -12 -2.5 q-6 0 -12 2.5 q-6 2.5 -11 7.5 q-4 4 -6.5 10 q-2.5 6 -2.5 12 l0 75 l-75 0 q-6 0 -12 2.5 q-6 2.5 -10 6.5 q-5 5 -7.5 11 q-2.5 6 -2.5 12 q0 6 2.5 12 q2.5 6 7.5 11 q4 4 10 6.5 q6 2.5 12 2.5 l75 0 l0 75 q0 6 2.5 12 q2.5 6 6.5 10 q5 5 11 7.5 q6 2.5 12 2.5 q6 0 12 -2.5 q6 -2.5 11 -7.5 q4 -4 6.5 -10 q2.5 -6 2.5 -12 l0 -75 l75 0 q6 0 12 -2.5 q6 -2.5 10 -6.5 q5 -5 7.5 -11 q2.5 -6 2.5 -12 Z"></path></symbol><symbol id="uni-59678" viewBox="0 -64 1024 1024"><path d="M384 544 q19 0 36.5 -7.5 q17.5 -7.5 31.5 -20.5 q13 -14 20.5 -31.5 q7.5 -17.5 7.5 -36.5 l0 -320 q0 -19 -7.5 -36.5 q-7.5 -17.5 -20.5 -31.5 q-14 -13 -31.5 -20.5 q-17.5 -7.5 -36.5 -7.5 l-128 0 q-19 0 -36.5 7.5 q-17.5 7.5 -31.5 20.5 q-13 14 -20.5 31.5 q-7.5 17.5 -7.5 36.5 l0 320 q0 19 7.5 36.5 q7.5 17.5 20.5 31.5 q14 13 31.5 20.5 q17.5 7.5 36.5 7.5 l128 0 ZM384 96 q6 0 12 2.5 q6 2.5 11 6.5 q4 5 6.5 11 q2.5 6 2.5 12 l0 320 q0 6 -2.5 12 q-2.5 6 -6.5 11 q-5 4 -11 6.5 q-6 2.5 -12 2.5 l-128 0 q-6 0 -12 -2.5 q-6 -2.5 -11 -6.5 q-4 -5 -6.5 -11 q-2.5 -6 -2.5 -12 l0 -320 q0 -6 2.5 -12 q2.5 -6 6.5 -11 q5 -4 11 -6.5 q6 -2.5 12 -2.5 l128 0 ZM384 864 q19 0 36.5 -7.5 q17.5 -7.5 31.5 -20.5 q13 -14 20.5 -31.5 q7.5 -17.5 7.5 -36.5 l0 -64 q0 -19 -7.5 -36.5 q-7.5 -17.5 -20.5 -31.5 q-14 -13 -31.5 -20.5 q-17.5 -7.5 -36.5 -7.5 l-128 0 q-19 0 -36.5 7.5 q-17.5 7.5 -31.5 20.5 q-13 14 -20.5 31.5 q-7.5 17.5 -7.5 36.5 l0 64 q0 19 7.5 36.5 q7.5 17.5 20.5 31.5 q14 13 31.5 20.5 q17.5 7.5 36.5 7.5 l128 0 ZM384 672 q6 0 12 2.5 q6 2.5 11 6.5 q4 5 6.5 11 q2.5 6 2.5 12 l0 64 q0 6 -2.5 12 q-2.5 6 -6.5 11 q-5 4 -11 6.5 q-6 2.5 -12 2.5 l-128 0 q-6 0 -12 -2.5 q-6 -2.5 -11 -6.5 q-4 -5 -6.5 -11 q-2.5 -6 -2.5 -12 l0 -64 q0 -6 2.5 -12 q2.5 -6 6.5 -11 q5 -4 11 -6.5 q6 -2.5 12 -2.5 l128 0 ZM768 864 q19 0 36.5 -7.5 q17.5 -7.5 31.5 -20.5 q13 -14 20.5 -31.5 q7.5 -17.5 7.5 -36.5 l0 -320 q0 -19 -7.5 -36.5 q-7.5 -17.5 -20.5 -31.5 q-14 -13 -31.5 -20.5 q-17.5 -7.5 -36.5 -7.5 l-128 0 q-19 0 -36.5 7.5 q-17.5 7.5 -31.5 20.5 q-13 14 -20.5 31.5 q-7.5 17.5 -7.5 36.5 l0 320 q0 19 7.5 36.5 q7.5 17.5 20.5 31.5 q14 13 31.5 20.5 q17.5 7.5 36.5 7.5 l128 0 ZM768 416 q6 0 12 2.5 q6 2.5 11 6.5 q4 5 6.5 11 q2.5 6 2.5 12 l0 320 q0 6 -2.5 12 q-2.5 6 -6.5 11 q-5 4 -11 6.5 q-6 2.5 -12 2.5 l-128 0 q-6 0 -12 -2.5 q-6 -2.5 -11 -6.5 q-4 -5 -6.5 -11 q-2.5 -6 -2.5 -12 l0 -320 q0 -6 2.5 -12 q2.5 -6 6.5 -11 q5 -4 11 -6.5 q6 -2.5 12 -2.5 l128 0 ZM768 288 q19 0 36.5 -7.5 q17.5 -7.5 31.5 -20.5 q13 -14 20.5 -31.5 q7.5 -17.5 7.5 -36.5 l0 -64 q0 -19 -7.5 -36.5 q-7.5 -17.5 -20.5 -31.5 q-14 -13 -31.5 -20.5 q-17.5 -7.5 -36.5 -7.5 l-128 0 q-19 0 -36.5 7.5 q-17.5 7.5 -31.5 20.5 q-13 14 -20.5 31.5 q-7.5 17.5 -7.5 36.5 l0 64 q0 19 7.5 36.5 q7.5 17.5 20.5 31.5 q14 13 31.5 20.5 q17.5 7.5 36.5 7.5 l128 0 ZM768 96 q6 0 12 2.5 q6 2.5 11 6.5 q4 5 6.5 11 q2.5 6 2.5 12 l0 64 q0 6 -2.5 12 q-2.5 6 -6.5 11 q-5 4 -11 6.5 q-6 2.5 -12 2.5 l-128 0 q-6 0 -12 -2.5 q-6 -2.5 -11 -6.5 q-4 -5 -6.5 -11 q-2.5 -6 -2.5 -12 l0 -64 q0 -6 2.5 -12 q2.5 -6 6.5 -11 q5 -4 11 -6.5 q6 -2.5 12 -2.5 l128 0 Z"></path></symbol><symbol id="uni-59679" viewBox="0 -64 1024 1024"><path d="M672 864 q32 0 61.5 -12 q29.5 -12 51.5 -35 q23 -22 35 -51.5 q12 -29.5 12 -61.5 l0 -512 q0 -6 -2.5 -12 q-2.5 -6 -6.5 -11 q-5 -4 -11 -6.5 q-6 -2.5 -12 -2.5 l-576 0 q-6 0 -12 2.5 q-6 2.5 -11 6.5 q-4 5 -6.5 11 q-2.5 6 -2.5 12 l0 512 q0 32 12 61.5 q12 29.5 35 51.5 q22 23 51.5 35 q29.5 12 61.5 12 l320 0 ZM768 224 l0 480 q0 19 -7.5 36.5 q-7.5 17.5 -20.5 31.5 q-14 13 -31.5 20.5 q-17.5 7.5 -36.5 7.5 l-320 0 q-19 0 -36.5 -7.5 q-17.5 -7.5 -31.5 -20.5 q-13 -14 -20.5 -31.5 q-7.5 -17.5 -7.5 -36.5 l0 -480 l512 0 ZM672 224 q6 0 12 -2.5 q6 -2.5 11 -6.5 q4 -5 6.5 -11 q2.5 -6 2.5 -12 l0 -64 q0 -19 -7.5 -36.5 q-7.5 -17.5 -20.5 -31.5 q-14 -13 -31.5 -20.5 q-17.5 -7.5 -36.5 -7.5 l-192 0 q-19 0 -36.5 7.5 q-17.5 7.5 -31.5 20.5 q-13 14 -20.5 31.5 q-7.5 17.5 -7.5 36.5 l0 64 q0 6 2.5 12 q2.5 6 6.5 11 q5 4 11 6.5 q6 2.5 12 2.5 l320 0 l0 0 ZM384 128 q0 -6 2.5 -12 q2.5 -6 6.5 -11 q5 -4 11 -6.5 q6 -2.5 12 -2.5 l192 0 q6 0 12 2.5 q6 2.5 11 6.5 q4 5 6.5 11 q2.5 6 2.5 12 l0 32 l-256 0 l0 -32 ZM864 224 q6 0 12 -2.5 q6 -2.5 11 -6.5 q4 -5 6.5 -11 q2.5 -6 2.5 -12 q0 -6 -2.5 -12 q-2.5 -6 -6.5 -11 q-5 -4 -11 -6.5 q-6 -2.5 -12 -2.5 l-689 0 q-6 0 -12 2.5 q-6 2.5 -11 6.5 q-4 5 -6.5 11 q-2.5 6 -2.5 12 q0 6 2.5 12 q2.5 6 6.5 11 q5 4 11 6.5 q6 2.5 12 2.5 l689 0 ZM416 672 q6 0 12 -2.5 q6 -2.5 11 -6.5 q4 -5 6.5 -11 q2.5 -6 2.5 -12 l0 -256 q0 -6 -2.5 -12 q-2.5 -6 -6.5 -11 q-5 -4 -11 -6.5 q-6 -2.5 -12 -2.5 q-6 0 -12 2.5 q-6 2.5 -11 6.5 q-4 5 -6.5 11 q-2.5 6 -2.5 12 l0 256 q0 6 2.5 12 q2.5 6 6.5 11 q5 4 11 6.5 q6 2.5 12 2.5 ZM608 672 q6 0 12 -2.5 q6 -2.5 11 -6.5 q4 -5 6.5 -11 q2.5 -6 2.5 -12 l0 -256 q0 -6 -2.5 -12 q-2.5 -6 -6.5 -11 q-5 -4 -11 -6.5 q-6 -2.5 -12 -2.5 q-6 0 -12 2.5 q-6 2.5 -11 6.5 q-4 5 -6.5 11 q-2.5 6 -2.5 12 l0 256 q0 6 2.5 12 q2.5 6 6.5 11 q5 4 11 6.5 q6 2.5 12 2.5 Z"></path></symbol><symbol id="uni-59680" viewBox="0 -64 1024 1024"><path d="M755 904 q30 0 58 -11.5 q28 -11.5 49 -32.5 q21 -22 32.5 -49.5 q11.5 -27.5 12.5 -57.5 l0 -446 q0 -19 -4.5 -37 q-4.5 -18 -13.5 -34 q-9 -17 -21.5 -30.5 q-12.5 -13.5 -27.5 -24.5 l-243 -162 q-19 -12 -40.5 -19 q-21.5 -7 -44.5 -7 q-23 0 -44.5 7 q-21.5 7 -40.5 19 l-242 162 q-15 11 -27.5 24.5 q-12.5 13.5 -21.5 30.5 q-9 16 -13.5 34 q-4.5 18 -4.5 37 l0 446 q0 30 11.5 57.5 q11.5 27.5 32.5 49.5 q22 21 49.5 32.5 q27.5 11.5 57.5 11.5 l486 0 l0 0 ZM512 54 q13 1 26 4.5 q13 3.5 24 11.5 l243 161 q10 6 17.5 14.5 q7.5 8.5 12.5 18.5 q5 10 8 21 q3 11 3 22 l0 446 q0 18 -7 34.5 q-7 16.5 -20 29.5 q-13 13 -29.5 20 q-16.5 7 -34.5 7 l-486 0 q-18 0 -34.5 -7 q-16.5 -7 -29.5 -20 q-13 -13 -20 -29.5 q-7 -16.5 -7 -34.5 l0 -446 q0 -11 3 -22 q3 -11 8 -21 q5 -10 12.5 -18 q7.5 -8 17.5 -14 l243 -162 q11 -8 24 -11.5 q13 -3.5 26 -4.5 l0 0 ZM391 692 l0 60 l242 0 l0 -60 l-242 0 l0 0 Z"></path></symbol><symbol id="uni-59681" viewBox="0 -64 1024 1024"><path d="M75 917 q-31 0 -53 -21.5 q-22 -21.5 -22 -52.5 l0 -491 q0 -31 22 -53 q22 -22 53 -22 l106 0 q31 0 53 22 q22 22 22 53 l0 491 q0 31 -22 52.5 q-22 21.5 -53 21.5 l-106 0 l0 0 ZM545 -32 q32 0 85.5 37.5 q53.5 37.5 53.5 133.5 q0 80 -16 125 q-16 45 -16 45 l201 0 q80 0 131 61 q51 61 37 139 l-47 277 q-11 62 -58.5 102 q-47.5 40 -109.5 40 l-69 0 q-79 0 -145 -8 q-65 -8 -117 -19.5 q-52 -11.5 -91 -25.5 q-38 -14 -64 -25 l0 -529 q24 -16 52 -39 q28 -23 52.5 -51.5 q24.5 -28.5 40.5 -62.5 q16 -34 16 -72 q0 -80 16 -104 q16 -24 48 -24 l0 0 Z"></path></symbol><symbol id="uni-59682" viewBox="0 -64 1024 1024"><path d="M977 852 q12 0 20.5 8.5 q8.5 8.5 8.5 20.5 q0 12 -8.5 20 q-8.5 8 -20.5 8 q-34 0 -54 -7 q-20 -7 -36 -15 q-14 -6 -27.5 -11 q-13.5 -5 -36.5 -5 q-24 0 -37.5 5 q-13.5 5 -27.5 11 q-16 8 -36 15 q-20 7 -54 7 q-34 0 -54 -7 q-20 -7 -36 -15 q-14 -6 -27.5 -11 q-13.5 -5 -36.5 -5 q-24 0 -37.5 5 q-13.5 5 -27.5 11 q-16 8 -36 15 q-20 7 -54 7 q-34 0 -54 -7 q-20 -7 -36 -15 q-14 -6 -27.5 -11 q-13.5 -5 -36.5 -5 q-24 0 -37.5 5 q-13.5 5 -27.5 11 q-16 8 -36 15 q-20 7 -54 7 q-12 0 -20.5 -8 q-8.5 -8 -8.5 -20 q0 -12 8.5 -20.5 q8.5 -8.5 20.5 -8.5 q24 0 37.5 -4.5 q13.5 -4.5 26.5 -11.5 q6 -3 12 -6 q6 -3 13 -5 l-98 -256 q-5 -14 -4 -30 q1 -16 8 -31 q7 -14 19.5 -24 q12.5 -10 28.5 -14 l67 -17 l0 -201 q0 -31 22.5 -53.5 q22.5 -22.5 53.5 -22.5 l133 0 l0 -74 q0 -44 31.5 -75.5 q31.5 -31.5 75.5 -31.5 l75 0 q44 0 75.5 31.5 q31.5 31.5 31.5 75.5 l0 74 l133 0 q31 0 53.5 22.5 q22.5 22.5 22.5 53.5 l0 201 l67 17 q16 4 28.5 14 q12.5 10 19.5 24 q7 15 8 31 q1 16 -4 30 l-98 256 q7 2 13 5 q6 3 12 6 q13 7 26.5 11.5 q13.5 4.5 37.5 4.5 l0 0 ZM427 102 l0 74 l173 0 l0 -74 q0 -21 -14.5 -35.5 q-14.5 -14.5 -34.5 -14.5 l-75 0 q-20 0 -34.5 14.5 q-14.5 14.5 -14.5 35.5 l0 0 ZM218 252 l0 186 l288 -75 q4 -1 7.5 -1 q3.5 0 7.5 1 l288 75 l0 -186 q0 -7 -5.5 -12.5 q-5.5 -5.5 -12.5 -5.5 l-555 0 q-7 0 -12.5 5.5 q-5.5 5.5 -5.5 12.5 l0 0 ZM732 836 q16 -8 36 -15 q20 -7 55 -7 q2 0 4 0 q2 0 4 0 l101 -265 q1 -5 0.5 -8.5 q-0.5 -3.5 -1.5 -5.5 q-1 -2 -3.5 -5 q-2.5 -3 -7.5 -4 l-406 -106 l-407 106 q-5 1 -7.5 4 q-2.5 3 -3.5 5 q-1 2 -1.5 5.5 q-0.5 3.5 0.5 8.5 l101 265 q2 0 4 0 q2 0 5 0 q34 0 54 7 q20 7 36 15 q13 7 26.5 11.5 q13.5 4.5 37.5 4.5 q24 0 37.5 -4.5 q13.5 -4.5 26.5 -11.5 q16 -8 36 -15 q20 -7 55 -7 q34 0 54 7 q20 7 36 15 q13 7 26.5 11.5 q13.5 4.5 37.5 4.5 q24 0 37.5 -4.5 q13.5 -4.5 26.5 -11.5 l0 0 ZM780 567 q12 3 18 13.5 q6 10.5 3 21.5 q-3 10 -10.5 16 q-7.5 6 -17.5 6 q-2 0 -4 -0.5 q-2 -0.5 -3 -0.5 l-252 -66 l-253 66 q-11 3 -21.5 -3 q-10.5 -6 -13.5 -18 q-3 -11 3 -21.5 q6 -10.5 18 -13.5 l259 -67 q4 -1 7.5 -1 q3.5 0 7.5 1 l259 67 l0 0 Z"></path></symbol><symbol id="uni-59683" viewBox="0 -64 1024 1024"><path d="M867 237 q32 0 54.5 22.5 q22.5 22.5 22.5 53.5 l0 77 q0 13 -9 22 q-9 9 -21 9 q-13 0 -22 -9 q-9 -9 -9 -22 l0 -77 q0 -6 -4.5 -10.5 q-4.5 -4.5 -11.5 -4.5 l-15 0 l0 306 q0 38 -17 69.5 q-17 31.5 -45 52.5 l0 62 q0 26 -18 44 q-18 18 -43 18 l-62 0 q-25 0 -43 -18 q-18 -18 -18 -44 l0 -30 l-185 0 l0 30 q0 26 -18 44 q-18 18 -43 18 l-62 0 q-25 0 -43 -18 q-18 -18 -18 -44 l0 -62 q-28 -21 -45 -52.5 q-17 -31.5 -17 -69.5 l0 -306 l-15 0 q-7 0 -11.5 4.5 q-4.5 4.5 -4.5 10.5 l0 77 q0 13 -9 22 q-9 9 -21 9 q-13 0 -22 -9 q-9 -9 -9 -22 l0 -77 q0 -31 22.5 -53.5 q22.5 -22.5 54.5 -22.5 l15 0 l0 -31 q0 -63 45 -108 q45 -45 109 -45 l369 0 q64 0 109 45 q45 45 45 108 l0 31 l15 0 l0 0 ZM237 237 l0 225 q21 10 43.5 15 q22.5 5 45.5 5 l376 0 q23 0 45.5 -5 q22.5 -5 42.5 -15 l0 -225 l-553 0 l0 0 ZM329 114 q-30 0 -53.5 17.5 q-23.5 17.5 -33.5 43.5 l543 0 q-10 -26 -33.5 -43.5 q-23.5 -17.5 -53.5 -17.5 l-369 0 l0 0 ZM360 758 l-31 0 q-8 0 -15.5 -1 q-7.5 -1 -15.5 -2 l0 33 l62 0 l0 -30 ZM729 755 q-8 1 -15.5 2 q-7.5 1 -15.5 1 l-31 0 l0 30 l62 0 l0 -33 ZM698 696 q38 0 65 -27 q27 -27 27 -65 l0 -76 q-21 7 -43.5 11 q-22.5 4 -44.5 4 l-376 0 q-23 0 -45.5 -4 q-22.5 -4 -43.5 -11 l0 76 q0 38 27 65 q27 27 65 27 l369 0 l0 0 ZM329 635 q-13 0 -22 -9 q-9 -9 -9 -22 q0 -12 9 -21 q9 -9 22 -9 q13 0 22 9 q9 9 9 21 q0 13 -9 22 q-9 9 -22 9 ZM698 635 q-13 0 -22 -9 q-9 -9 -9 -22 q0 -12 9 -21 q9 -9 22 -9 q13 0 22 9 q9 9 9 21 q0 13 -9 22 q-9 9 -22 9 Z"></path></symbol><symbol id="uni-59684" viewBox="0 -64 1024 1024"><path d="M299 395 q15 0 28.5 -6 q13.5 -6 23.5 -16 q11 -11 16.5 -24.5 q5.5 -13.5 5.5 -28.5 l0 -171 q0 -15 -5.5 -28.5 q-5.5 -13.5 -16.5 -23.5 q-10 -11 -23.5 -16.5 q-13.5 -5.5 -28.5 -5.5 l-171 0 q-15 0 -28.5 5.5 q-13.5 5.5 -24.5 16.5 q-10 10 -16 23.5 q-6 13.5 -6 28.5 l0 171 q0 15 6 28.5 q6 13.5 16 24.5 q11 10 24.5 16 q13.5 6 28.5 6 l171 0 ZM128 139 l171 0 q2 0 4 0.5 q2 0.5 3 2.5 q2 1 2.5 3 q0.5 2 0.5 4 l0 171 q0 2 -0.5 4 q-0.5 2 -2.5 4 q-1 1 -3 2 q-2 1 -4 1 l-171 0 q-2 0 -4 -1 q-2 -1 -4 -2 q-1 -2 -2 -4 q-1 -2 -1 -4 l0 -171 q0 -2 1 -4 q1 -2 2 -3 q2 -2 4 -2.5 q2 -0.5 4 -0.5 l0 0 ZM299 821 q15 0 28.5 -5.5 q13.5 -5.5 23.5 -16.5 q11 -10 16.5 -23.5 q5.5 -13.5 5.5 -28.5 l0 -171 q0 -15 -5.5 -28.5 q-5.5 -13.5 -16.5 -24.5 q-10 -10 -23.5 -16 q-13.5 -6 -28.5 -6 l-171 0 q-15 0 -28.5 6 q-13.5 6 -24.5 16 q-10 11 -16 24.5 q-6 13.5 -6 28.5 l0 171 q0 15 6 28.5 q6 13.5 16 23.5 q11 11 24.5 16.5 q13.5 5.5 28.5 5.5 l171 0 ZM128 565 l171 0 q2 0 4 1 q2 1 3 2 q2 2 2.5 4 q0.5 2 0.5 4 l0 171 q0 2 -0.5 4 q-0.5 2 -2.5 3 q-1 2 -3 2.5 q-2 0.5 -4 0.5 l-171 0 q-2 0 -4 -0.5 q-2 -0.5 -4 -2.5 q-1 -1 -2 -3 q-1 -2 -1 -4 l0 -171 q0 -2 1 -4 q1 -2 2 -4 q2 -1 4 -2 q2 -1 4 -1 l0 0 ZM939 181 q6 0 12 -2.5 q6 -2.5 10 -6.5 q5 -5 7.5 -10.5 q2.5 -5.5 2.5 -12.5 q0 -6 -2.5 -12 q-2.5 -6 -7.5 -10 q-4 -5 -10 -7.5 q-6 -2.5 -12 -2.5 l-427 0 q-6 0 -12 2.5 q-6 2.5 -11 7.5 q-4 4 -6.5 10 q-2.5 6 -2.5 12 q0 7 2.5 12.5 q2.5 5.5 6.5 10.5 q5 4 11 6.5 q6 2.5 12 2.5 l427 0 l0 0 ZM768 352 q6 0 12 -2.5 q6 -2.5 11 -6.5 q4 -5 6.5 -11 q2.5 -6 2.5 -12 q0 -6 -2.5 -12 q-2.5 -6 -6.5 -11 q-5 -4 -11 -6.5 q-6 -2.5 -12 -2.5 l-256 0 q-6 0 -12 2.5 q-6 2.5 -11 6.5 q-4 5 -6.5 11 q-2.5 6 -2.5 12 q0 6 2.5 12 q2.5 6 6.5 11 q5 4 11 6.5 q6 2.5 12 2.5 l256 0 ZM939 608 q6 0 12 -2.5 q6 -2.5 10 -6.5 q5 -5 7.5 -11 q2.5 -6 2.5 -12 q0 -6 -2.5 -12 q-2.5 -6 -7.5 -11 q-4 -4 -10 -6.5 q-6 -2.5 -12 -2.5 l-427 0 q-6 0 -12 2.5 q-6 2.5 -11 6.5 q-4 5 -6.5 11 q-2.5 6 -2.5 12 q0 6 2.5 12 q2.5 6 6.5 11 q5 4 11 6.5 q6 2.5 12 2.5 l427 0 l0 0 ZM768 779 q6 0 12 -2.5 q6 -2.5 11 -7.5 q4 -4 6.5 -10 q2.5 -6 2.5 -12 q0 -7 -2.5 -12.5 q-2.5 -5.5 -6.5 -10.5 q-5 -4 -11 -6.5 q-6 -2.5 -12 -2.5 l-256 0 q-6 0 -12 2.5 q-6 2.5 -11 6.5 q-4 5 -6.5 10.5 q-2.5 5.5 -2.5 12.5 q0 6 2.5 12 q2.5 6 6.5 10 q5 5 11 7.5 q6 2.5 12 2.5 l256 0 Z"></path></symbol><symbol id="uni-59685" viewBox="0 -64 1024 1024"><path d="M512 156 q79 0 134.5 56 q55.5 56 55.5 134 q0 79 -55.5 134.5 q-55.5 55.5 -134.5 55.5 q-79 0 -134.5 -55.5 q-55.5 -55.5 -55.5 -134.5 q0 -78 55.5 -134 q55.5 -56 134.5 -56 ZM512 456 q46 0 78 -32 q32 -32 32 -78 q0 -45 -32 -77.5 q-32 -32.5 -78 -32.5 q-46 0 -78 32.5 q-32 32.5 -32 77.5 q0 46 32 78 q32 32 78 32 l0 0 ZM512 -64 q85 0 160 32 q74 33 130 88.5 q56 55.5 88 130.5 q32 74 32 159 l0 12 q0 42 -12 89 q-12 46 -36.5 96 q-24.5 50 -61.5 102 q-36 53 -85 109 q-70 81 -128.5 132 q-58.5 51 -61.5 54 l-25 20 l-25 -20 q-3 -3 -61.5 -54 q-58.5 -51 -128.5 -132 q-49 -56 -85 -109 q-37 -52 -61.5 -102 q-24.5 -50 -36.5 -96 q-12 -47 -12 -89 l0 -12 q0 -85 32 -159 q32 -75 88 -130.5 q56 -55.5 130 -88.5 q75 -32 160 -32 l0 0 ZM842 346 q0 -68 -26 -128 q-26 -60 -70.5 -105 q-44.5 -45 -105.5 -71 q-60 -26 -128 -26 q-68 0 -128 26 q-61 26 -105.5 71 q-44.5 45 -70.5 105 q-26 60 -26 128 l0 12 q0 72 40 149 q40 77 94.5 145.5 q54.5 68.5 109.5 122.5 q56 54 86 81 q30 -27 86 -81 q55 -54 109.5 -122.5 q54.5 -68.5 94.5 -145.5 q40 -77 40 -149 l0 -12 Z"></path></symbol><symbol id="uni-59686" viewBox="0 -64 1024 1024"><path d="M447 44 q75 0 141 29 q66 28 115.5 77.5 q49.5 49.5 78.5 115.5 q28 67 28 142 q0 64 -21 122 q-21 58 -59 105 l152 151 q5 6 8 13.5 q3 7.5 3 15.5 q0 8 -3 15 q-3 7 -9 13 q-5 5 -12.5 8.5 q-7.5 3.5 -15.5 3.5 q-8 0 -15.5 -3 q-7.5 -3 -12.5 -9 l-152 -151 q-47 37 -104.5 58.5 q-57.5 21.5 -121.5 21.5 q-76 0 -142 -29 q-66 -29 -115.5 -78.5 q-49.5 -49.5 -78.5 -115.5 q-28 -66 -28 -141 q0 -75 28 -142 q29 -66 78.5 -115.5 q49.5 -49.5 115.5 -77.5 q66 -29 142 -29 l0 0 ZM447 125 q-59 0 -111 22 q-51 22 -89.5 60.5 q-38.5 38.5 -60.5 89.5 q-22 52 -22 111 q0 59 22 110 q22 52 60.5 90 q38.5 38 89.5 61 q52 22 111 22 q58 0 110 -22 q51 -23 89.5 -61 q38.5 -38 60.5 -90 q22 -51 22 -110 q0 -59 -22 -111 q-22 -51 -60.5 -89.5 q-38.5 -38.5 -89.5 -60.5 q-52 -22 -110 -22 l0 0 Z"></path></symbol><symbol id="uni-59687" viewBox="0 -64 1024 1024"><path d="M1000 103 q24 24 24 57.5 q0 33.5 -24 57.5 l-574 575 q-12 12 -27 17.5 q-15 5.5 -31 5.5 q-15 0 -30 -5.5 q-15 -5.5 -27 -17.5 l-287 -288 q-24 -23 -24 -57 q0 -34 24 -57 q24 -24 57.5 -24 q33.5 0 57.5 24 l229 229 l517 -517 q24 -23 57.5 -23 q33.5 0 57.5 23 l0 0 Z"></path></symbol><symbol id="uni-59688" viewBox="0 -64 1024 1024"><path d="M0 269 l1024 0 l0 -103 l-1024 0 l0 103 ZM0 730 l819 0 l0 -103 l-819 0 l0 103 Z"></path></symbol><symbol id="uni-59689" viewBox="0 -64 1024 1024"><path d="M965 810 q6 0 11.5 2 q5.5 2 10.5 6 q4 5 6.5 10.5 q2.5 5.5 2.5 11.5 q0 6 -2.5 12 q-2.5 6 -6.5 10 q-5 4 -10.5 6.5 q-5.5 2.5 -11.5 2.5 l-130 0 q0 0 -1 0 q-1 0 -1 0 q-1 0 -1.5 0 q-0.5 0 -1.5 0 l-768 0 q-6 0 -11.5 -2.5 q-5.5 -2.5 -10.5 -6.5 q-4 -4 -6.5 -10 q-2.5 -6 -2.5 -12 q0 -6 2.5 -11.5 q2.5 -5.5 6.5 -10.5 q5 -4 10.5 -6 q5.5 -2 11.5 -2 l14 0 l0 -623 q0 -74 40 -114 q40 -40 114 -40 l256 0 q74 0 113.5 40 q39.5 40 39.5 114 l0 623 l163 0 l0 -125 q-19 -6 -35.5 -17 q-16.5 -11 -28.5 -26 q-13 -16 -19 -35 q-6 -19 -6 -38 l0 -93 q0 -24 9 -46 q9 -22 26 -39 q17 -17 39 -26.5 q22 -9.5 47 -9.5 q24 0 46 9.5 q22 9.5 39 26.5 q17 17 26.5 39 q9.5 22 9.5 46 l0 93 q-1 20 -7.5 39 q-6.5 19 -18.5 34 q-12 16 -29 27 q-17 11 -36 16 l0 125 l101 0 l0 0 ZM577 810 l0 -623 q0 -49 -21.5 -71 q-21.5 -22 -69.5 -22 l-256 0 q-48 0 -70 22 q-22 22 -22 71 l0 623 l191 0 l0 -123 q0 -6 2.5 -11.5 q2.5 -5.5 6.5 -10.5 q4 -4 10 -6.5 q6 -2.5 12 -2.5 q6 0 11.5 2.5 q5.5 2.5 9.5 6.5 q5 5 7 10.5 q2 5.5 2 11.5 l0 123 l187 0 l0 0 ZM834 628 q11 0 22 -4.5 q11 -4.5 20 -12.5 q8 -9 12.5 -20 q4.5 -11 4.5 -22 l0 -93 q0 -12 -4.5 -23 q-4.5 -11 -12.5 -19 q-9 -8 -20 -12.5 q-11 -4.5 -22 -4.5 q-12 0 -23 4.5 q-11 4.5 -20 12.5 q-8 8 -12.5 19 q-4.5 11 -4.5 23 l0 93 q0 11 4.5 22 q4.5 11 12.5 20 q9 8 20 12.5 q11 4.5 23 4.5 l0 0 ZM493 278 q0 -6 -2.5 -11.5 q-2.5 -5.5 -6.5 -9.5 q-4 -5 -10 -7 q-6 -2 -12 -2 l-203 0 q-3 0 -6 0 q-3 0 -6 1 q-3 1 -6 3 q-3 2 -5 4 q-3 2 -4.5 4.5 q-1.5 2.5 -3.5 5.5 q-1 3 -1.5 6 q-0.5 3 -0.5 6 q0 4 0.5 7 q0.5 3 1.5 6 q2 3 3.5 5.5 q1.5 2.5 4.5 4.5 q2 2 5 3.5 q3 1.5 6 2.5 q3 1 6 1.5 q3 0.5 6 0.5 l203 0 q6 0 12 -2.5 q6 -2.5 10 -6.5 q4 -4 6.5 -10 q2.5 -6 2.5 -12 l0 0 ZM493 431 q0 -6 -2.5 -11.5 q-2.5 -5.5 -6.5 -9.5 q-4 -4 -10 -6.5 q-6 -2.5 -12 -2.5 l-203 0 q-6 0 -11.5 2.5 q-5.5 2.5 -10.5 6.5 q-4 4 -6.5 9.5 q-2.5 5.5 -2.5 11.5 q0 7 2.5 12.5 q2.5 5.5 6.5 9.5 q5 4 10.5 6.5 q5.5 2.5 11.5 2.5 l203 0 q6 0 12 -2.5 q6 -2.5 10 -6.5 q4 -4 6.5 -9.5 q2.5 -5.5 2.5 -12.5 l0 0 Z"></path></symbol><symbol id="uni-59690" viewBox="0 -64 1024 1024"><path d="M444 928 q23 0 43.5 -8.5 q20.5 -8.5 36.5 -24.5 l404 -404 q31 -32 47.5 -72 q16.5 -40 16.5 -84 l0 -255 q0 -47 -33 -79.5 q-33 -32.5 -79 -32.5 l-256 0 q-44 0 -84 16.5 q-40 16.5 -71 47.5 l-404 404 q-32 33 -32 79.5 q0 46.5 32 79.5 l299 299 q16 16 36.5 24.5 q20.5 8.5 43.5 9.5 q0 0 0 0 q0 0 0 0 l0 0 ZM624 42 l256 0 q15 0 26 11 q11 11 11 27 l0 255 q0 29 -10.5 55.5 q-10.5 26.5 -31.5 47.5 l-404 404 q-6 5 -12.5 8 q-6.5 3 -14.5 3 l0 0 q-8 -1 -14.5 -3.5 q-6.5 -2.5 -11.5 -8.5 l-300 -299 q-11 -11 -11 -26.5 q0 -15.5 11 -26.5 l404 -404 q20 -21 46.5 -31.5 q26.5 -10.5 55.5 -10.5 l0 -1 ZM721 348 q46 0 79 -33 q33 -33 33 -79 q0 -47 -33 -80 q-33 -33 -79 -33 q-47 0 -80 33 q-33 33 -33 80 q0 46 33 79 q33 33 80 33 ZM721 198 q15 0 26 11 q11 11 11 27 q0 15 -11 26 q-11 11 -26 11 q-16 0 -27 -11 q-11 -11 -11 -26 q0 -16 11 -27 q11 -11 27 -11 Z"></path></symbol><symbol id="uni-59691" viewBox="0 -64 1024 1024"><path d="M981 841 q7 0 12.5 2.5 q5.5 2.5 10.5 6.5 q4 5 6.5 10.5 q2.5 5.5 2.5 12.5 q0 6 -2.5 12 q-2.5 6 -6.5 10 q-5 5 -10.5 7.5 q-5.5 2.5 -12.5 2.5 l-938 0 q-7 0 -12.5 -2.5 q-5.5 -2.5 -10.5 -7.5 q-4 -4 -6.5 -10 q-2.5 -6 -2.5 -12 q0 -7 2.5 -12.5 q2.5 -5.5 6.5 -10.5 q5 -4 10.5 -6.5 q5.5 -2.5 12.5 -2.5 l10 0 l0 -96 q0 -15 6 -28.5 q6 -13.5 16 -24.5 q11 -10 24.5 -16 q13.5 -6 28.5 -6 l11 0 l0 -234 l-11 0 q-15 -1 -28.5 -6.5 q-13.5 -5.5 -24.5 -15.5 q-10 -11 -16 -24.5 q-6 -13.5 -6 -28.5 l0 -142 q1 -11 4.5 -21.5 q3.5 -10.5 9.5 -19.5 q6 -10 14.5 -17 q8.5 -7 18.5 -11 l384 -154 q14 -5 28 -5 q14 0 28 5 l384 154 q10 4 18.5 11 q8.5 7 14.5 17 q6 9 9.5 19.5 q3.5 10.5 4.5 21.5 l0 142 q0 15 -6 28.5 q-6 13.5 -16 24.5 q-11 10 -24.5 15.5 q-13.5 5.5 -28.5 6.5 l-11 0 l0 234 l11 0 q15 0 28.5 6 q13.5 6 24.5 16 q10 11 16 24.5 q6 13.5 6 28.5 l0 96 l10 0 l0 0 ZM128 371 l768 0 q2 0 4 -0.5 q2 -0.5 4 -2.5 q1 -1 2 -3 q1 -2 1 -4 l0 -142 q-1 -3 -2.5 -5.5 q-1.5 -2.5 -4.5 -4.5 l-384 -154 q-1 0 -2 0 q-1 0 -2 0 q-1 0 -2 0 q-1 0 -2 0 l-384 154 q-1 1 -2 2 q-1 1 -2 2 q-1 2 -1.5 3.5 q-0.5 1.5 -1.5 2.5 l0 142 q0 2 1 4 q1 2 3 3 q1 2 3 2.5 q2 0.5 4 0.5 l0 0 ZM715 435 l0 235 l106 0 l0 -235 l-106 0 ZM544 435 l0 235 l107 0 l0 -235 l-107 0 ZM373 435 l0 235 l107 0 l0 -235 l-107 0 ZM203 435 l0 235 l106 0 l0 -235 l-106 0 ZM907 841 l0 -96 q0 -2 -1 -4 q-1 -2 -2 -4 q-2 -1 -4 -2 q-2 -1 -4 -1 l-768 0 q-2 0 -4 1 q-2 1 -4 2 q-1 2 -2 4 q-1 2 -1 4 l0 96 l790 0 l0 0 ZM512 137 q19 0 36.5 7 q17.5 7 31.5 21 q13 13 20.5 31 q7.5 18 7.5 37 q0 14 -4 27.5 q-4 13.5 -12 25.5 q-8 12 -19 21 q-11 9 -24 15 q-13 5 -27.5 6.5 q-14.5 1.5 -28.5 -1.5 q-14 -3 -26.5 -9.5 q-12.5 -6.5 -22.5 -16.5 q-10 -10 -16.5 -22.5 q-6.5 -12.5 -9.5 -26.5 q-3 -14 -1.5 -28.5 q1.5 -14.5 6.5 -27.5 q6 -13 15 -24 q9 -11 21 -19 q12 -8 25.5 -12 q13.5 -4 27.5 -4 l0 0 ZM512 265 q6 0 12 -2.5 q6 -2.5 11 -7.5 q4 -4 6.5 -10 q2.5 -6 2.5 -12 q0 -5 -1.5 -9.5 q-1.5 -4.5 -3.5 -8.5 q-3 -4 -6.5 -7 q-3.5 -3 -8.5 -5 q-4 -2 -9 -2 q-5 0 -9 0 q-5 1 -9 3.5 q-4 2.5 -8 5.5 q-3 4 -5 8 q-2 4 -3 9 q-1 4 -0.5 9 q0.5 5 1.5 9 q2 4 5 8 q3 4 7 6 q4 3 8.5 4.5 q4.5 1.5 9.5 1.5 l0 0 Z"></path></symbol><symbol id="uni-59692" viewBox="0 -64 1024 1024"><path d="M977 882.68 q12 0 20.5 8.5 q8.5 8.5 8.5 20.5 q0 12 -8.5 20.5 q-8.5 8.5 -20.5 8.5 l-927 0 q-12 0 -20.5 -8.5 q-8.5 -8.5 -8.5 -20.5 q0 -12 8.5 -20.5 q8.5 -8.5 20.5 -8.5 l166 0 l42 -132 l-223 -161 q-10 -7 -11.5 -18.5 q-1.5 -11.5 5.5 -21.5 q7 -9 18.5 -11 q11.5 -2 21.5 5 l233 167 l281 0 l-129 -382 l-301 100 q-13 4 -24.5 -3 q-11.5 -7 -13.5 -21 q-7 -58 5 -114 q12 -56 42.5 -105.5 q30.5 -49.5 78.5 -89.5 q48 -40 113 -66 l-10 -28 q-3 -12 2 -22.5 q5 -10.5 17 -14.5 q11 -4 21.5 1.5 q10.5 5.5 14.5 16.5 l10 28 q67 -18 130 -14 q62 3 116.5 24.5 q54.5 21.5 97.5 58.5 q44 38 73 89 q7 11 2 24 q-5 13 -18 17 l-301 100 l135 401 l187 0 q8 0 15 4 q7 4 11 12 l78 156 l42 0 l0 0 ZM399 73.68 q-36 12 -48.5 83 q-12.5 71 4.5 144 l216 -72 q-13 -31 -33 -60 q-20 -29 -44 -52 q-45 -44 -70 -43.5 q-25 0.5 -25 0.5 q0 0 0 0 q0 0 0 0 l0 0 ZM756 166.68 q-44 -59 -109 -87.5 q-65 -28.5 -138 -25.5 q37 29 68 71 q31 42 49 86 l130 -44 l0 0 ZM299 123.68 q-62 43 -95.5 105 q-33.5 62 -33.5 133 l130 -43 q-11 -46 -12 -98 q-1 -52 11 -97 l0 0 ZM663 767.68 l39 115 l169 0 l-58 -115 l-150 0 ZM313 767.68 l-37 115 l365 0 l-39 -115 l-289 0 l0 0 Z"></path></symbol><symbol id="uni-59693" viewBox="0 -64 1024 1024"><path d="M807 143.33 q28 0 47.5 19.5 q19.5 19.5 19.5 47.5 l0 665 q0 27 -19.5 47 q-19.5 20 -47.5 20 l-587 0 q-28 0 -47.5 -20 q-19.5 -20 -19.5 -47 l0 -692 q0 -22 12.5 -39.5 q12.5 -17.5 33.5 -24.5 l471 -155 q16 -5 32 -2.5 q16 2.5 29 11.5 q13 10 20.5 24.5 q7.5 14.5 7.5 30.5 l0 115 l48 0 l0 0 ZM816 210.33 q0 -4 -2.5 -7 q-2.5 -3 -6.5 -3 l-587 0 q-4 0 -6.5 3 q-2.5 3 -2.5 7 l0 665 q0 3 2.5 6 q2.5 3 6.5 3 l587 0 q4 0 6.5 -3 q2.5 -3 2.5 -6 l0 -665 ZM688 19.33 l-377 124 l390 0 l0 -115 q0 -3 -1.5 -5 q-1.5 -2 -2.5 -3 q-1 -1 -3.5 -1.5 q-2.5 -0.5 -5.5 0.5 l0 0 ZM321 533.33 q-12 0 -20.5 -8.5 q-8.5 -8.5 -8.5 -20.5 q0 -12 8.5 -20.5 q8.5 -8.5 20.5 -8.5 l9 0 q9 -59 52 -102 q43 -43 103 -52 l0 -15 q0 -12 8.5 -20.5 q8.5 -8.5 20.5 -8.5 q11 0 19.5 8.5 q8.5 8.5 8.5 20.5 l0 15 q60 9 103 52 q43 43 52 102 l9 0 q12 0 20.5 8.5 q8.5 8.5 8.5 20.5 q0 12 -8.5 20.5 q-8.5 8.5 -20.5 8.5 l-385 0 l0 0 ZM514 376.33 q-46 0 -81 28 q-35 28 -45 71 l251 0 q-10 -43 -45 -71 q-35 -28 -80 -28 ZM471 610.33 q12 0 20.5 8.5 q8.5 8.5 8.5 20.5 q0 12 -8.5 20.5 q-8.5 8.5 -20.5 8.5 l-139 0 q-12 0 -20 -8.5 q-8 -8.5 -8 -20.5 q0 -12 8 -20.5 q8 -8.5 20 -8.5 l139 0 ZM699 725.33 q12 0 20 8.5 q8 8.5 8 20.5 q0 12 -8 20.5 q-8 8.5 -20 8.5 l-371 0 q-12 0 -20 -8.5 q-8 -8.5 -8 -20.5 q0 -12 8 -20.5 q8 -8.5 20 -8.5 l371 0 Z"></path></symbol><symbol id="uni-59694" viewBox="0 -64 1024 1024"><path d="M815 62.11 q30 30 54 65 q23 35 39 73.5 q16 38.5 24 79.5 q8 42 8 85 q2 53 -29 125 q-30 73 -74.5 147.5 q-44.5 74.5 -93.5 141.5 q-49 67 -83 109 q-27 34 -65.5 53 q-38.5 19 -82.5 19 q-42 0 -79.5 -17.5 q-37.5 -17.5 -64.5 -49.5 q-45 -60 -95 -127 q-49 -67 -90.5 -136 q-41.5 -69 -68.5 -136 q-28 -68 -30 -129 q-2 -87 32 -165 q35 -79 94 -138 q59 -59 137 -93 q79 -35 165 -33 l0 0 q43 0 85 8 q41 9 79.5 24.5 q38.5 15.5 73.5 39.5 q35 23 65 54 l0 0 ZM597 839.11 q63 -80 112 -151 q49 -72 82.5 -132.5 q33.5 -60.5 50.5 -108.5 q18 -49 18 -82 q0 -72 -27 -136 q-28 -63 -75 -110.5 q-47 -47.5 -110 -74.5 q-64 -28 -136 -28 l0 0 q-72 0 -135 28 q-64 27 -111 74.5 q-47 47.5 -75 110.5 q-27 64 -27 136 q0 33 18 82 q18 48 52 109 q34 61 83 132 q49 72 111 151 q31 41 84.5 41 q53.5 0 84.5 -41 l0 0 ZM514 534.11 q71 0 120.5 -50 q49.5 -50 49.5 -120 q-3 -84 -56 -127 q-52 -42 -114 -42 q-62 0 -114 42 q-52 42 -56 127 q0 70 50 120 q50 50 120 50 ZM514 274.11 q37 0 63.5 26.5 q26.5 26.5 26.5 63.5 q-2 45 -29 67 q-28 23 -61 23 q-33 0 -60 -23 q-28 -22 -30 -67 q0 -37 26.5 -63.5 q26.5 -26.5 63.5 -26.5 l0 0 Z"></path></symbol><symbol id="uni-59695" viewBox="0 -64 1024 1024"><path d="M455 960 l114 0 l0 -1024 l-114 0 l0 1024 ZM1024 505 l0 -114 l-1024 0 l0 114 l1024 0 Z"></path></symbol><symbol id="uni-59696" viewBox="0 -64 1024 1024"><path d="M824 181 q-5 0 -12.5 3 q-7.5 3 -9.5 15 l-91 560 q-2 15 -13 24.5 q-11 9.5 -26 9.5 l-632 0 q-9 0 -17 -3.5 q-8 -3.5 -13 -10.5 q-6 -7 -8.5 -15.5 q-2.5 -8.5 -0.5 -16.5 l91 -562 q6 -37 34 -60.5 q28 -23.5 65 -23.5 l623 0 q1 0 2 0 q1 0 2 0 q1 0 2.5 0 q1.5 0 2.5 0 q0 0 0.5 0 q0.5 0 0.5 0 q38 0 66 23.5 q28 23.5 34 60.5 l45 253 q3 16 -6.5 30 q-9.5 14 -26.5 16 q-16 3 -29.5 -6.5 q-13.5 -9.5 -16.5 -25.5 l-45 -253 q-2 -12 -9.5 -15 q-7.5 -3 -11.5 -3 q0 0 0 0 q0 0 0 0 l0 0 ZM723 186 q0 -1 0.5 -2.5 q0.5 -1.5 0.5 -2.5 l-533 0 q-7 0 -13 4.5 q-6 4.5 -7 12.5 l-84 515 l551 0 l85 -527 l0 0 ZM1015 781 q5 -7 7.5 -15.5 q2.5 -8.5 0.5 -17.5 l-22 -128 q-3 -16 -16.5 -25.5 q-13.5 -9.5 -30.5 -6.5 q-16 2 -25.5 16 q-9.5 14 -6.5 30 l14 81 l-104 0 q-17 0 -28.5 11.5 q-11.5 11.5 -11.5 28.5 q0 17 11.5 28.5 q11.5 11.5 28.5 11.5 l152 0 q9 0 17 -3.5 q8 -3.5 14 -10.5 l0 0 ZM208 447 q0 17 11.5 28.5 q11.5 11.5 28.5 11.5 l312 0 q17 0 28.5 -11.5 q11.5 -11.5 11.5 -28.5 q0 -17 -11.5 -28.5 q-11.5 -11.5 -28.5 -11.5 l-312 0 q-17 0 -28.5 11.5 q-11.5 11.5 -11.5 28.5 Z"></path></symbol><symbol id="uni-59697" viewBox="0 -64 1024 1024"><path d="M551 54 q0 17 11.5 28.5 q11.5 11.5 28.5 11.5 q150 1 175.5 0 q25.5 -1 39.5 3 l-480 480 q-11 12 -11 28.5 q0 16.5 11 28.5 q12 11 28.5 11 q16.5 0 28.5 -11 l479 -479 q3 13 2.5 37.5 q-0.5 24.5 -0.5 176.5 q0 17 12 28.5 q12 11.5 28 11.5 q17 0 28.5 -11.5 q11.5 -11.5 11.5 -28.5 l0 -195 q0 -66 -47 -113 q-47 -47 -113 -47 l-193 0 q-17 0 -28.5 12 q-11.5 12 -11.5 28 l0 0 ZM984 565 q17 0 28.5 12 q11.5 12 11.5 28 l0 58 q0 103 -47 156 q-47 53 -52 59 q-39 40 -90.5 61 q-51.5 21 -107.5 21 l-430 0 q-56 0 -107.5 -21 q-51.5 -21 -90.5 -61 q-5 -6 -52 -59 q-47 -53 -47 -156 l0 -430 q0 -103 47 -156 q47 -53 52 -59 q39 -40 90.5 -61 q51.5 -21 107.5 -21 l58 0 q16 0 28 11.5 q12 11.5 12 28.5 q0 17 -12 28.5 q-12 11.5 -28 11.5 l-58 0 q-40 0 -76.5 15 q-36.5 15 -65.5 44 q-4 6 -39.5 44 q-35.5 38 -35.5 114 l0 430 q0 75 35.5 113.5 q35.5 38.5 39.5 44.5 q29 29 65.5 44 q36.5 15 76.5 15 l430 0 q40 0 76.5 -15 q36.5 -15 65.5 -44 q4 -6 39.5 -44 q35.5 -38 35.5 -114 l0 -58 q0 -16 11.5 -28 q11.5 -12 28.5 -12 l0 0 Z"></path></symbol><symbol id="uni-59698" viewBox="0 -64 1024 1024"><path d="M288 115 l-64 0 l0 499 l-41 -42 l-46 46 l119 118 l119 -118 l-46 -46 l-41 42 l0 -499 l0 0 ZM416 595 l0 64 l160 0 l0 -64 l-160 0 ZM416 435 l0 64 l256 0 l0 -64 l-256 0 ZM416 275 l0 64 l352 0 l0 -64 l-352 0 ZM416 115 l0 64 l448 0 l0 -64 l-448 0 Z"></path></symbol><symbol id="uni-59699" viewBox="0 -64 1024 1024"><path d="M347 511 l-43 -42 q-16 -16 -21 -37 q-5 -21 2 -42 q7 -22 23.5 -36 q16.5 -14 38.5 -17 l59 -9 q4 0 6.5 -2 q2.5 -2 3.5 -5 l27 -54 q10 -19 28.5 -31 q18.5 -12 40.5 -12 q22 0 40.5 12 q18.5 12 28.5 31 l27 54 q1 3 3.5 5 q2.5 2 6.5 2 l59 9 q22 3 38.5 17 q16.5 14 23.5 36 q7 21 2 42 q-5 21 -21 37 l-43 42 q-3 2 -4 5 q-1 3 0 6 l10 59 q4 22 -4.5 42.5 q-8.5 20.5 -26.5 33.5 q-17 13 -39 14.5 q-22 1.5 -42 -8.5 l-53 -28 q-3 -2 -6 -2 q-3 0 -6 2 l-53 28 q-9 4 -18 6.5 q-9 2.5 -18 2.5 q-12 0 -23.5 -4 q-11.5 -4 -21.5 -11 q-18 -13 -26.5 -33.5 q-8.5 -20.5 -4.5 -42.5 l10 -59 q1 -3 0 -6 q-1 -3 -4 -5 l0 0 ZM346 409 q-1 2 -1 6 q0 4 4 8 l43 42 q14 13 19.5 31 q5.5 18 2.5 37 l-10 59 q-1 5 1 8.5 q2 3.5 4 4.5 q2 1 5.5 2 q3.5 1 8.5 -1 l53 -28 q0 0 0 0 q0 0 0 0 q17 -9 36 -9 q19 0 36 9 l53 28 q5 2 8.5 1 q3.5 -1 5.5 -2 q2 -1 4 -4.5 q2 -3.5 1 -8.5 l-10 -59 q-3 -19 2.5 -37 q5.5 -18 19.5 -31 l43 -42 q4 -4 4 -8 q0 -4 -1 -6 q0 -2 -2.5 -5 q-2.5 -3 -7.5 -4 l-60 -8 q-18 -3 -33.5 -14 q-15.5 -11 -24.5 -28 l-26 -54 q-3 -5 -6.5 -6.5 q-3.5 -1.5 -5.5 -1.5 q-2 0 -5.5 1.5 q-3.5 1.5 -6.5 6.5 l-26 54 q-9 17 -24.5 28 q-15.5 11 -33.5 14 l-60 8 q-5 1 -7.5 4 q-2.5 3 -2.5 5 l0 0 ZM102 589 l0 -282 q0 -44 22 -83 q22 -39 61 -61 l244 -141 q38 -22 83 -22 q45 0 83 22 l244 141 q39 22 61 61 q22 39 22 83 l0 282 q0 44 -22 83 q-22 39 -61 61 l-244 141 q-19 11 -40 16.5 q-21 5.5 -43 5.5 q-22 0 -43 -5.5 q-21 -5.5 -40 -16.5 l-244 -141 q-39 -22 -61 -61 q-22 -39 -22 -83 l0 0 ZM166 589 q0 27 13.5 51 q13.5 24 37.5 37 l244 141 q23 14 51 14 q28 0 51 -14 l244 -141 q24 -13 37.5 -37 q13.5 -24 13.5 -51 l0 -282 q0 -27 -13.5 -51 q-13.5 -24 -37.5 -37 l-244 -141 q-12 -7 -25 -10.5 q-13 -3.5 -26 -3.5 q-13 0 -26 3.5 q-13 3.5 -25 10.5 l-244 141 q-24 13 -37.5 37 q-13.5 24 -13.5 51 l0 282 Z"></path></symbol><symbol id="uni-59700" viewBox="0 -64 1024 1024"><path d="M869 712 q69 34 112 100 q43 66 43 148 l-80 0 q0 -41 -15 -76 q-16 -36 -42.5 -62.5 q-26.5 -26.5 -62.5 -42.5 q-35 -15 -76 -15 q-41 0 -76 15 q-36 16 -62.5 42.5 q-26.5 26.5 -42.5 62.5 q-15 35 -15 76 l-80 0 q0 -41 -15 -76 q-16 -36 -42.5 -62.5 q-26.5 -26.5 -62.5 -42.5 q-35 -15 -76 -15 q-41 0 -76 15 q-36 16 -62.5 42.5 q-26.5 26.5 -42.5 62.5 q-15 35 -15 76 l-80 0 q0 -82 43 -148 q43 -66 112 -100 q-22 -23 -34.5 -52.5 q-12.5 -29.5 -12.5 -63.5 q0 -60 37 -105.5 q37 -45.5 93 -58.5 q9 -70 50.5 -126 q41.5 -56 102.5 -86 q-22 -23 -34.5 -52.5 q-12.5 -29.5 -12.5 -63.5 q0 -69 49.5 -118.5 q49.5 -49.5 118.5 -49.5 q69 0 118.5 49.5 q49.5 49.5 49.5 118.5 q0 34 -12.5 63.5 q-12.5 29.5 -34.5 52.5 q61 30 102.5 86 q41.5 56 50.5 126 q56 13 93 58.5 q37 45.5 37 105.5 q0 34 -12.5 63.5 q-12.5 29.5 -34.5 52.5 l0 0 ZM512 16 q-36 0 -62 26 q-26 26 -26 62 q0 36 26 62 q26 26 62 26 q36 0 62 -26 q26 -26 26 -62 q0 -36 -26 -62 q-26 -26 -62 -26 ZM276 684 q36 0 62 -26 q26 -26 26 -62 q0 -36 -26 -62 q-26 -26 -62 -26 q-36 0 -62 26 q-26 26 -26 62 q0 36 26 62 q26 26 62 26 ZM627 712 q-22 -23 -34.5 -52.5 q-12.5 -29.5 -12.5 -63.5 q0 -58 35.5 -103 q35.5 -45 89.5 -59 q-12 -69 -66.5 -115.5 q-54.5 -46.5 -126.5 -46.5 q-72 0 -126.5 46.5 q-54.5 46.5 -66.5 115.5 q54 14 89.5 59 q35.5 45 35.5 103 q0 34 -12.5 63.5 q-12.5 29.5 -34.5 52.5 q36 18 65 44.5 q29 26.5 50 60.5 q21 -34 50 -60.5 q29 -26.5 65 -44.5 l0 0 ZM748 684 q36 0 62 -26 q26 -26 26 -62 q0 -36 -26 -62 q-26 -26 -62 -26 q-36 0 -62 26 q-26 26 -26 62 q0 36 26 62 q26 26 62 26 Z"></path></symbol><symbol id="uni-59701" viewBox="0 -64 1024 1024"><path d="M272 408 l-80 0 l0 -200 q0 -50 35 -85 q35 -35 85 -35 q50 0 85 35 q35 35 35 85 l0 200 l-80 0 l0 -80 l-80 0 l0 80 ZM312 168 q-17 0 -28.5 11.5 q-11.5 11.5 -11.5 28.5 l0 40 l80 0 l0 -40 q0 -17 -11.5 -28.5 q-11.5 -11.5 -28.5 -11.5 ZM752 488 l0 80 l80 0 l0 80 l-80 0 l0 40 q0 17 11.5 28.5 q11.5 11.5 28.5 11.5 l40 0 l0 80 l-40 0 q-23 0 -43.5 -8 q-20.5 -8 -36.5 -23 q-16 15 -36.5 23 q-20.5 8 -43.5 8 l-40 0 l0 -80 l40 0 q17 0 28.5 -11.5 q11.5 -11.5 11.5 -28.5 l0 -40 l-80 0 l0 -80 l80 0 l0 -80 l80 0 ZM152 568 q-50 0 -85 -35 q-35 -35 -35 -85 l0 -392 q0 -50 35 -85 q35 -35 85 -35 l320 0 q50 0 85 35 q35 35 35 85 l0 392 q0 50 -35 85 q-35 35 -85 35 l-320 0 ZM112 448 q0 17 11.5 28.5 q11.5 11.5 28.5 11.5 l320 0 q17 0 28.5 -11.5 q11.5 -11.5 11.5 -28.5 l0 -392 q0 -17 -11.5 -28.5 q-11.5 -11.5 -28.5 -11.5 l-320 0 q-17 0 -28.5 11.5 q-11.5 11.5 -11.5 28.5 l0 392 l0 0 ZM872 328 q50 0 85 35 q35 35 35 85 l0 392 q0 50 -35 85 q-35 35 -85 35 l-320 0 q-50 0 -85 -35 q-35 -35 -35 -85 l0 -192 l80 0 l0 192 q0 17 11.5 28.5 q11.5 11.5 28.5 11.5 l320 0 q17 0 28.5 -11.5 q11.5 -11.5 11.5 -28.5 l0 -392 q0 -17 -11.5 -28.5 q-11.5 -11.5 -28.5 -11.5 l-200 0 l0 -80 l200 0 l0 0 ZM192 768 q0 17 11.5 28.5 q11.5 11.5 28.5 11.5 l120 0 l0 80 l-120 0 q-50 0 -85 -35 q-35 -35 -35 -85 l0 -120 l80 0 l0 120 l0 0 ZM832 128 q0 -17 -11.5 -28.5 q-11.5 -11.5 -28.5 -11.5 l-120 0 l0 -80 l120 0 q50 0 85 35 q35 35 35 85 l0 120 l-80 0 l0 -120 Z"></path></symbol><symbol id="uni-59702" viewBox="0 -64 1024 1024"><path d="M352 64 q39 0 68.5 25 q29.5 25 49.5 57 q20 32 31 69 q11 37 11 73 q0 62 -37.5 104 q-37.5 42 -90.5 53 l0 355 l-64 0 l0 -355 q-53 -11 -90.5 -53 q-37.5 -42 -37.5 -104 q0 -36 11 -73 q11 -37 31 -69 q20 -32 49.5 -57 q29.5 -25 68.5 -25 ZM640 64 l0 224 q0 27 18.5 45.5 q18.5 18.5 45.5 18.5 q27 0 45.5 -18.5 q18.5 -18.5 18.5 -45.5 l0 -224 l64 0 l0 224 q0 44 -27.5 78 q-27.5 34 -68.5 45 l0 389 l-64 0 l0 -389 q-41 -11 -68.5 -45 q-27.5 -34 -27.5 -78 l0 -224 l64 0 ZM736 64 l0 224 q0 13 -9.5 22.5 q-9.5 9.5 -22.5 9.5 q-13 0 -22.5 -9.5 q-9.5 -9.5 -9.5 -22.5 l0 -224 l64 0 ZM352 128 q-14 0 -31 13 q-17 13 -32 38 q-15 25 -24 55 q-9 30 -9 54 q0 48 27 72 q27 24 69 24 q42 0 69 -24 q27 -24 27 -72 q0 -24 -9 -54 q-9 -30 -24 -55 q-15 -25 -32 -38 q-17 -13 -31 -13 Z"></path></symbol><symbol id="uni-59703" viewBox="0 -64 1024 1024"><path d="M747 405 q28 0 55.5 -8 q27.5 -8 50.5 -24 q24 -16 42 -38 q18 -22 29 -48 q11 -27 14 -55 q3 -28 -3 -56 q-6 -28 -19 -53 q-13 -25 -34 -45 q-20 -21 -45 -34 q-25 -13 -53 -19 q-28 -6 -56 -3 q-28 3 -55 14 q-26 11 -48 29 q-22 18 -38 42 q-16 23 -24 50.5 q-8 27.5 -8 55.5 l0 150 q0 8 3 16 q3 8 9 14 q6 6 14 9 q8 3 16 3 l150 0 l0 0 ZM640 320 l0 -107 q0 -15 4.5 -30.5 q4.5 -15.5 13.5 -28.5 q9 -13 21 -23 q12 -10 27 -16 q14 -6 30 -7.5 q16 -1.5 31 1.5 q16 3 30 10.5 q14 7.5 25 18.5 q11 11 18.5 25 q7.5 14 10.5 30 q3 15 1.5 31 q-1.5 16 -7.5 30 q-6 15 -16 27 q-10 12 -23 21 q-13 9 -28.5 13.5 q-15.5 4.5 -30.5 4.5 l-107 0 l0 0 ZM747 875 q38 0 73 -15 q35 -15 62 -42 q27 -27 42 -62 q15 -35 15 -73 q0 -39 -15 -74 q-15 -35 -42 -62 q-27 -27 -62 -41.5 q-35 -14.5 -73 -14.5 l-150 0 q-8 0 -16 3 q-8 3 -14 9 q-6 6 -9 14 q-3 8 -3 16 l0 150 q0 38 14.5 73 q14.5 35 41.5 62 q27 27 62.5 42 q35.5 15 73.5 15 l0 0 ZM640 576 l107 0 q15 0 30.5 4.5 q15.5 4.5 28.5 13.5 q13 9 23 21 q10 12 16 27 q6 14 7.5 30 q1.5 16 -1.5 31 q-3 16 -10.5 30 q-7.5 14 -18.5 25 q-11 11 -25 18.5 q-14 7.5 -30 10.5 q-15 3 -31 1.5 q-16 -1.5 -30 -7.5 q-15 -6 -27 -16 q-12 -10 -21 -23 q-9 -13 -13.5 -28.5 q-4.5 -15.5 -4.5 -30.5 l0 -107 l0 0 ZM427 405 q8 0 16 -3 q8 -3 14 -9 q6 -6 9 -14 q3 -8 3 -16 l0 -150 q0 -28 -8 -55.5 q-8 -27.5 -24 -50.5 q-16 -24 -38 -42 q-22 -18 -48 -29 q-27 -11 -55 -14 q-28 -3 -56 3 q-28 6 -53 19 q-25 13 -45 34 q-21 20 -34 45 q-13 25 -19 53 q-6 28 -3 56 q3 28 14 55 q11 26 29 48 q18 22 42 38 q23 16 50.5 24 q27.5 8 55.5 8 l150 0 l0 0 ZM277 107 q22 0 41.5 8 q19.5 8 34.5 23 q15 15 23 34.5 q8 19.5 8 40.5 l0 107 l-107 0 q-21 0 -40.5 -8 q-19.5 -8 -34.5 -23 q-15 -15 -23 -34.5 q-8 -19.5 -8 -41.5 q0 -21 8 -40.5 q8 -19.5 23 -34.5 q15 -15 34.5 -23 q19.5 -8 40.5 -8 l0 0 ZM277 875 q38 0 73.5 -15 q35.5 -15 62.5 -42 q27 -27 41.5 -62 q14.5 -35 14.5 -73 l0 -150 q0 -8 -3 -16 q-3 -8 -9 -14 q-6 -6 -14 -9 q-8 -3 -16 -3 l-150 0 q-38 0 -73 14.5 q-35 14.5 -62 41.5 q-27 27 -42 62 q-15 35 -15 74 q0 38 15 73 q15 35 42 62 q27 27 62 42 q35 15 73 15 l0 0 ZM277 576 l107 0 l0 107 q0 15 -4.5 30.5 q-4.5 15.5 -13.5 28.5 q-9 13 -21 23 q-12 10 -27 16 q-14 6 -30 7.5 q-16 1.5 -31 -1.5 q-16 -3 -30 -10.5 q-14 -7.5 -25 -18.5 q-11 -11 -18.5 -25 q-7.5 -14 -10.5 -30 q-3 -15 -1.5 -31 q1.5 -16 7.5 -30 q6 -15 16 -27 q10 -12 23 -21 q13 -9 28.5 -13.5 q15.5 -4.5 30.5 -4.5 l0 0 Z"></path></symbol><symbol id="uni-59704" viewBox="0 -64 1024 1024"><path d="M272 368 q-17 0 -28.5 -11.5 q-11.5 -11.5 -11.5 -28.5 q0 -17 11.5 -28.5 q11.5 -11.5 28.5 -11.5 l80 0 q17 0 28.5 11.5 q11.5 11.5 11.5 28.5 q0 17 -11.5 28.5 q-11.5 11.5 -28.5 11.5 l-80 0 ZM672 368 q-17 0 -28.5 -11.5 q-11.5 -11.5 -11.5 -28.5 q0 -17 11.5 -28.5 q11.5 -11.5 28.5 -11.5 l80 0 q17 0 28.5 11.5 q11.5 11.5 11.5 28.5 q0 17 -11.5 28.5 q-11.5 11.5 -28.5 11.5 l-80 0 ZM512 288 q-17 0 -28.5 -11.5 q-11.5 -11.5 -11.5 -28.5 q0 -17 11.5 -28.5 q11.5 -11.5 28.5 -11.5 q17 0 28.5 11.5 q11.5 11.5 11.5 28.5 q0 17 -11.5 28.5 q-11.5 11.5 -28.5 11.5 ZM904 448 q50 0 85 35 q35 35 35 85 l0 80 q0 39 -22.5 70 q-22.5 31 -57.5 43 l0 47 q0 17 -11.5 28.5 q-11.5 11.5 -28.5 11.5 q-17 0 -28.5 -11.5 q-11.5 -11.5 -11.5 -28.5 l0 -40 l-704 0 l0 40 q0 17 -11.5 28.5 q-11.5 11.5 -28.5 11.5 q-17 0 -28.5 -11.5 q-11.5 -11.5 -11.5 -28.5 l0 -47 q-35 -12 -57.5 -43 q-22.5 -31 -22.5 -70 l0 -80 q0 -50 35 -85 q35 -35 85 -35 l784 0 l0 0 ZM944 568 q0 -17 -11.5 -28.5 q-11.5 -11.5 -28.5 -11.5 l-784 0 q-17 0 -28.5 11.5 q-11.5 11.5 -11.5 28.5 l0 80 q0 17 11.5 28.5 q11.5 11.5 28.5 11.5 l784 0 q17 0 28.5 -11.5 q11.5 -11.5 11.5 -28.5 l0 -80 ZM112 368 q-17 0 -28.5 -11.5 q-11.5 -11.5 -11.5 -28.5 q0 -41 16 -78 q15 -36 42.5 -63.5 q27.5 -27.5 63.5 -42.5 q37 -16 78 -16 l80 0 q28 -37 70.5 -58.5 q42.5 -21.5 89.5 -21.5 q47 0 89.5 21.5 q42.5 21.5 70.5 58.5 l80 0 q41 0 78 16 q36 15 63.5 42.5 q27.5 27.5 42.5 63.5 q16 37 16 78 q0 17 -11.5 28.5 q-11.5 11.5 -28.5 11.5 q-17 0 -28.5 -11.5 q-11.5 -11.5 -11.5 -28.5 q0 -50 -35 -85 q-35 -35 -85 -35 l-101 0 q-11 0 -20.5 -5.5 q-9.5 -5.5 -14.5 -14.5 q-16 -28 -44 -44 q-28 -16 -60 -16 q-32 0 -60 16 q-28 16 -44 44 q-5 9 -14.5 14.5 q-9.5 5.5 -20.5 5.5 l-101 0 q-50 0 -85 35 q-35 35 -35 85 q0 17 -11.5 28.5 q-11.5 11.5 -28.5 11.5 Z"></path></symbol><symbol id="uni-59705" viewBox="0 -64 1024 1024"><path d="M1024 880 l0 80 l-1024 0 l0 -80 l72 0 l0 -360 q0 -50 35 -85 q35 -35 85 -35 l120 0 l0 -120 q-35 -13 -57.5 -43.5 q-22.5 -30.5 -22.5 -70.5 q0 -12 7.5 -38 q7.5 -26 37.5 -78 q16 -27 28.5 -46 q12.5 -19 13.5 -20 l33 -48 l33 48 q1 1 13.5 20 q12.5 19 28.5 46 q30 52 37.5 78 q7.5 26 7.5 39 q0 39 -22.5 69.5 q-22.5 30.5 -57.5 43.5 l0 120 l240 0 l0 -120 q-35 -13 -57.5 -43.5 q-22.5 -30.5 -22.5 -70.5 q0 -12 7.5 -38 q7.5 -26 37.5 -78 q16 -27 28.5 -46 q12.5 -19 13.5 -20 l33 -48 l33 48 q1 1 13.5 20 q12.5 19 28.5 46 q30 52 37.5 78 q7.5 26 7.5 39 q0 39 -22.5 69.5 q-22.5 30.5 -57.5 43.5 l0 120 l120 0 q50 0 85 35 q35 35 35 85 l0 360 l72 0 ZM667 90 q-26 43 -30.5 59.5 q-4.5 16.5 -4.5 17.5 q0 16 11.5 27.5 q11.5 11.5 28.5 11.5 q17 0 28.5 -11.5 q11.5 -11.5 11.5 -27.5 q0 -1 -5 -17.5 q-5 -16.5 -30 -60.5 q-1 -2 -2.5 -4 q-1.5 -2 -2.5 -4 q-1 2 -2.5 4 q-1.5 2 -2.5 5 ZM347 90 q-26 43 -30.5 59.5 q-4.5 16.5 -4.5 17.5 q0 16 11.5 27.5 q11.5 11.5 28.5 11.5 q17 0 28.5 -11.5 q11.5 -11.5 11.5 -27.5 q0 -1 -5 -17.5 q-5 -16.5 -30 -60.5 q-1 -2 -2.5 -4 q-1.5 -2 -2.5 -4 q-1 2 -2.5 4 q-1.5 2 -2.5 5 l0 0 ZM872 880 l0 -164 q-30 -6 -49.5 -19 q-19.5 -13 -35.5 -26 q-18 -14 -33 -22.5 q-15 -8.5 -42 -8.5 q-27 0 -42 8.5 q-15 8.5 -33 22.5 q-20 17 -48.5 33 q-28.5 16 -76.5 16 q-48 0 -76.5 -16 q-28.5 -16 -48.5 -33 q-18 -14 -33 -22.5 q-15 -8.5 -42 -8.5 q-27 0 -42 8.5 q-15 8.5 -33 22.5 q-16 13 -35.5 26 q-19.5 13 -49.5 19 l0 164 l720 0 l0 0 ZM872 632 l0 -112 q0 -17 -11.5 -28.5 q-11.5 -11.5 -28.5 -11.5 l-640 0 q-17 0 -28.5 11.5 q-11.5 11.5 -11.5 28.5 l0 112 q9 -4 17.5 -10 q8.5 -6 17.5 -13 q20 -17 48.5 -33 q28.5 -16 76.5 -16 q48 0 76.5 16 q28.5 16 48.5 33 q18 14 33 22.5 q15 8.5 42 8.5 q27 0 42 -8.5 q15 -8.5 33 -22.5 q20 -17 48.5 -33 q28.5 -16 76.5 -16 q48 0 76.5 16 q28.5 16 48.5 33 q9 7 17.5 13 q8.5 6 17.5 10 l0 0 ZM312 800 q-17 0 -28.5 -11.5 q-11.5 -11.5 -11.5 -28.5 q0 -17 11.5 -28.5 q11.5 -11.5 28.5 -11.5 q17 0 28.5 11.5 q11.5 11.5 11.5 28.5 q0 17 -11.5 28.5 q-11.5 11.5 -28.5 11.5 ZM712 800 q-17 0 -28.5 -11.5 q-11.5 -11.5 -11.5 -28.5 q0 -17 11.5 -28.5 q11.5 -11.5 28.5 -11.5 q17 0 28.5 11.5 q11.5 11.5 11.5 28.5 q0 17 -11.5 28.5 q-11.5 11.5 -28.5 11.5 Z"></path></symbol><symbol id="uni-59706" viewBox="0 -64 1024 1024"><path d="M949 -21 q31 0 53 21.5 q22 21.5 22 52.5 l0 491 q0 31 -22 53 q-22 22 -53 22 l-106 0 q-31 0 -53 -22 q-22 -22 -22 -53 l0 -491 q0 -31 22 -52.5 q22 -21.5 53 -21.5 l106 0 ZM218 -32 l69 0 q79 0 145 8 q65 8 117 19.5 q52 11.5 91 25.5 q38 14 64 25 l0 529 q-24 16 -52 39 q-28 23 -52.5 51.5 q-24.5 28.5 -40.5 62.5 q-16 34 -16 72 q0 80 -16 104 q-16 24 -48 24 q-32 0 -85.5 -37.5 q-53.5 -37.5 -53.5 -133.5 q0 -80 16 -125 q16 -45 16 -45 l-201 0 q-80 0 -131 -61 q-51 -61 -37 -139 l47 -277 q11 -62 58.5 -102 q47.5 -40 109.5 -40 l0 0 Z"></path></symbol><symbol id="uni-59707" viewBox="0 -64 1024 1024"><path d="M1024 505 l0 -114 l-1024 0 l0 114 l1024 0 Z"></path></symbol><symbol id="uni-59708" viewBox="0 -64 1024 1024"><path d="M853 117 q24 0 45.5 9 q21.5 9 37.5 26 q17 16 26 37.5 q9 21.5 9 45.5 l0 290 q0 23 -9 44.5 q-9 21.5 -26 38.5 q-16 16 -37.5 25 q-21.5 9 -45.5 9 l-138 0 l0 105 q0 31 -12.5 60.5 q-12.5 29.5 -34.5 52.5 q-23 22 -52.5 34.5 q-29.5 12.5 -60.5 12.5 l-342 0 q-31 0 -60.5 -12.5 q-29.5 -12.5 -52.5 -34.5 q-22 -23 -34.5 -52.5 q-12.5 -29.5 -12.5 -60.5 l0 -598 q0 -31 12.5 -60.5 q12.5 -29.5 34.5 -52.5 q23 -22 52.5 -34.5 q29.5 -12.5 60.5 -12.5 l342 0 q27 0 53 9.5 q26 9.5 48 26.5 q21 18 35.5 41.5 q14.5 23.5 19.5 50.5 l142 0 l0 0 ZM651 747 l0 -105 l-23 0 l-123 108 q-5 3 -10 5 q-5 2 -11 2 q-4 0 -7.5 -0.5 q-3.5 -0.5 -6.5 -2.5 q-4 -2 -7.5 -5 q-3.5 -3 -5.5 -6 q-3 -4 -4 -8.5 q-1 -4.5 -1 -9.5 l0 -83 l-25 0 q-24 0 -45.5 -9 q-21.5 -9 -37.5 -25 q-17 -17 -26 -38.5 q-9 -21.5 -9 -44.5 l0 -290 q0 -24 9 -45.5 q9 -21.5 26 -37.5 q16 -17 37.5 -26 q21.5 -9 45.5 -9 l218 0 q-5 -14 -14 -25.5 q-9 -11.5 -21 -20.5 q-12 -9 -26 -13.5 q-14 -4.5 -29 -4.5 l-342 0 q-19 0 -36.5 7.5 q-17.5 7.5 -31.5 20.5 q-13 14 -20.5 31.5 q-7.5 17.5 -7.5 36.5 l0 598 q0 19 7.5 36.5 q7.5 17.5 20.5 31.5 q14 13 31.5 20.5 q17.5 7.5 36.5 7.5 l342 0 q19 0 36.5 -7.5 q17.5 -7.5 31.5 -20.5 q13 -14 20.5 -31.5 q7.5 -17.5 7.5 -36.5 l0 0 ZM907 235 q0 -11 -4 -21 q-4 -10 -12 -17 q-7 -8 -17 -12 q-10 -4 -21 -4 l-426 0 q-11 0 -21 4 q-10 4 -17 12 q-8 7 -12 17 q-4 10 -4 21 l0 290 q0 10 4 20 q4 10 12 18 q7 7 17 11 q10 4 21 4 l57 0 q6 0 12 2.5 q6 2.5 10 7.5 q5 4 7.5 10 q2.5 6 2.5 12 l0 45 l80 -69 q4 -4 9.5 -6 q5.5 -2 11.5 -2 l236 0 q11 0 21 -4 q10 -4 17 -11 q8 -8 12 -18 q4 -10 4 -20 l0 -290 ZM800 299 q0 -7 -2.5 -12.5 q-2.5 -5.5 -6.5 -10.5 q-5 -4 -11 -6.5 q-6 -2.5 -12 -2.5 l-256 0 q-6 0 -12 2.5 q-6 2.5 -11 6.5 q-4 5 -6.5 10.5 q-2.5 5.5 -2.5 12.5 q0 6 2.5 12 q2.5 6 6.5 10 q5 5 11 7.5 q6 2.5 12 2.5 l256 0 q6 0 12 -2.5 q6 -2.5 11 -7.5 q4 -4 6.5 -10 q2.5 -6 2.5 -12 ZM800 469 q0 -6 -2.5 -12 q-2.5 -6 -6.5 -10 q-5 -5 -11 -7.5 q-6 -2.5 -12 -2.5 l-256 0 q-6 0 -12 2.5 q-6 2.5 -11 7.5 q-4 4 -6.5 10 q-2.5 6 -2.5 12 q0 7 2.5 12.5 q2.5 5.5 6.5 10.5 q5 4 11 6.5 q6 2.5 12 2.5 l256 0 q6 0 12 -2.5 q6 -2.5 11 -6.5 q4 -5 6.5 -10.5 q2.5 -5.5 2.5 -12.5 Z"></path></symbol><symbol id="uni-59709" viewBox="0 -64 1024 1024"><path d="M899 323 q0 33 -11 73 q-12 40 -35 86.5 q-23 46.5 -58 100.5 q-34 53 -80 113 q-28 35 -54.5 67 q-26.5 32 -48.5 58 l0 109 q0 12 -9 21 q-9 9 -22 9 l-137 0 q-12 0 -21 -9 q-9 -9 -9 -21 l0 -109 q-23 -26 -49.5 -58 q-26.5 -32 -54.5 -67 q-45 -60 -80 -113 q-35 -54 -58 -100.5 q-23 -46.5 -34 -86.5 q-12 -40 -12 -73 q0 -80 30 -151 q31 -70 83.5 -122.5 q52.5 -52.5 122.5 -83.5 q71 -30 151 -30 q80 0 150 30 q70 31 123 83.5 q53 52.5 83 122.5 q30 71 30 151 l0 0 ZM838 323 q0 -51 -15 -98 q-15 -47 -42 -86.5 q-27 -39.5 -64 -69.5 q-37 -30 -82 -48 q5 8 10 17.5 q5 9.5 10 19.5 q24 54 37 122 q13 68 13 143 q0 29 -5 64 q-4 35 -12.5 76 q-8.5 41 -22.5 88 q-13 46 -30 98 l38 0 q33 -42 63 -87 q29 -44 52 -87 q23 -43 37 -82 q13 -39 13 -70 l0 0 ZM551 840 l-76 0 l0 59 l76 0 l0 -59 ZM567 779 q14 -16 29 -33 q15 -17 29 -36 q0 0 -30 0 q-30 0 -66 0 q-36 0 -66 0 q-30 0 -30 0 q0 0 0 0 q0 0 0 0 l-33 0 q15 19 30 36.5 q15 17.5 28 32.5 l109 0 l0 0 ZM513 -3 q-23 0 -45.5 22.5 q-22.5 22.5 -41.5 63.5 q-21 48 -32.5 110 q-11.5 62 -11.5 130 q0 27 4 62 q5 35 14 76.5 q9 41.5 23 88.5 q14 47 32 99 l116 0 q18 -52 31 -99 q14 -47 23 -88.5 q9 -41.5 14 -76.5 q5 -35 5 -62 q0 -68 -11.5 -130 q-11.5 -62 -33.5 -110 q-19 -41 -41.5 -63.5 q-22.5 -22.5 -44.5 -22.5 ZM187 323 q0 27 11 61 q10 35 31 76 q21 41 52 89 q30 47 71 100 l38 0 q-17 -52 -30 -98 q-13 -47 -22 -88 q-9 -41 -13 -76 q-4 -35 -4 -64 q0 -75 13 -143 q13 -68 37 -122 q4 -10 9 -19.5 q5 -9.5 10 -17.5 q-44 18 -82 48 q-37 30 -64 69.5 q-27 39.5 -42 86.5 q-15 47 -15 98 Z"></path></symbol><symbol id="uni-59710" viewBox="0 -64 1024 1024"><path d="M817 126.24 q29 0 49.5 20.5 q20.5 20.5 20.5 49.5 l0 694 q0 29 -20.5 49.5 q-20.5 20.5 -49.5 20.5 l-610 0 q-29 0 -49.5 -20.5 q-20.5 -20.5 -20.5 -49.5 l0 -722 q0 -23 13.5 -41.5 q13.5 -18.5 34.5 -25.5 l490 -161 q16 -6 32.5 -3.5 q16.5 2.5 30.5 12.5 q14 10 21.5 25 q7.5 15 7.5 32 l0 120 l50 0 ZM827 196.24 q0 -4 -3 -7 q-3 -3 -7 -3 l-610 0 q-4 0 -7 3 q-3 3 -3 7 l0 694 q0 4 3 7 q3 3 7 3 l610 0 q4 0 7 -3 q3 -3 3 -7 l0 -694 ZM694 -3.76 l-393 130 l406 0 l0 -120 q0 -3 -1.5 -5 q-1.5 -2 -2.5 -3 q-1 -1 -3.5 -2 q-2.5 -1 -5.5 0 l0 0 ZM312 533.24 q-12 0 -21 -9 q-9 -9 -9 -21 q0 -12 9 -21 q9 -9 21 -9 l9 0 q9 -62 54 -107 q45 -45 107 -54 l0 -15 q0 -13 9 -21.5 q9 -8.5 21 -8.5 q12 0 21 8.5 q9 8.5 9 21.5 l0 15 q62 9 107 54 q45 45 54 107 l9 0 q12 0 21 9 q9 9 9 21 q0 12 -9 21 q-9 9 -21 9 l-400 0 l0 0 ZM512 369.24 q-48 0 -84 29.5 q-36 29.5 -46 74.5 l260 0 q-10 -45 -46 -74.5 q-36 -29.5 -84 -29.5 ZM468 614.24 q12 0 21 9 q9 9 9 21 q0 12 -9 21 q-9 9 -21 9 l-144 0 q-13 0 -21.5 -9 q-8.5 -9 -8.5 -21 q0 -12 8.5 -21 q8.5 -9 21.5 -9 l144 0 ZM705 734.24 q12 0 21 9 q9 9 9 21 q0 12 -9 21 q-9 9 -21 9 l-385 0 q-13 0 -21.5 -9 q-8.5 -9 -8.5 -21 q0 -12 8.5 -21 q8.5 -9 21.5 -9 l385 0 Z"></path></symbol><symbol id="uni-59711" viewBox="0 -64 1024 1024"><path d="M923 687 q2 3 3.5 7.5 q1.5 4.5 1.5 8.5 q0 4 -1 8.5 q-1 4.5 -3 7.5 q-2 4 -5 7 q-3 3 -7 6 q-3 2 -7.5 3 q-4.5 1 -8.5 1 l-768 0 q-4 0 -8.5 -1 q-4.5 -1 -7.5 -3 q-4 -3 -7 -6 q-3 -3 -5 -6 q-2 -4 -3 -8.5 q-1 -4.5 -1 -8.5 q0 -4 1.5 -8 q1.5 -4 3.5 -8 l320 -512 q2 -3 5 -6 q3 -3 6 -5 q4 -2 8 -3 q4 -1 8 -1 q4 0 8 1 q4 1 8 3 q3 2 6 5 q3 3 5 6 l71 114 q2 3 3 5.5 q1 2.5 2 6.5 q0 3 0 6 q0 3 0 6 q-1 3 -2.5 6 q-1.5 3 -2.5 6 q-2 2 -4.5 4.5 q-2.5 2.5 -5.5 3.5 q-2 2 -5 3 q-3 1 -6 2 q-4 0 -7 0 q-3 0 -6 -1 q-3 0 -6 -1.5 q-3 -1.5 -6 -3.5 q-2 -2 -4 -4.5 q-2 -2.5 -4 -4.5 l-44 -71 l-262 420 l651 0 l-197 -306 l-115 184 q-3 6 -8.5 9.5 q-5.5 3.5 -11.5 5.5 q-3 0 -6 0 q-3 0 -6 0 q-4 -1 -6.5 -2 q-2.5 -1 -5.5 -3 q-3 -1 -5 -3 q-2 -2 -4 -5 q-2 -3 -3.5 -5.5 q-1.5 -2.5 -1.5 -5.5 q-1 -4 -1 -7 q0 -3 0 -6 q1 -3 2 -6 q1 -3 3 -6 l142 -227 q2 -4 5 -6.5 q3 -2.5 6 -4.5 q4 -2 8 -3 q4 -1 8 -1 q4 0 8 1 q4 1 7 3 q4 2 7 4.5 q3 2.5 5 5.5 l256 399 l0 0 Z"></path></symbol><symbol id="uni-59712" viewBox="0 -64 1024 1024"><path d="M512 906.67 q46 0 90 -9 q44 -9 85.5 -26.5 q41.5 -17.5 78.5 -42.5 q38 -25 70 -57 q32 -32 57 -70 q25 -37 42.5 -78.5 q17.5 -41.5 26.5 -85.5 q9 -44 9 -90 q0 -68 -20 -133 q-20 -65 -58 -122 q-37 -56 -90 -99.5 q-53 -43.5 -115 -69.5 q-63 -26 -131 -32.5 q-68 -6.5 -134 6.5 q-67 13 -127 45.5 q-60 32.5 -108 80.5 q-48 48 -80.5 108 q-32.5 60 -45.5 127 q-13 66 -6.5 134 q6.5 68 32.5 131 q26 62 69.5 115 q43.5 53 99.5 90 q57 38 122 58 q65 20 133 20 l0 0 ZM512 52.67 q78 0 150.5 30.5 q72.5 30.5 128.5 85.5 q55 56 85.5 128.5 q30.5 72.5 30.5 150.5 q0 59 -17 115 q-17 56 -50 104 q-32 49 -77.5 86 q-45.5 37 -99.5 60 q-54 22 -112.5 28 q-58.5 6 -115.5 -6 q-57 -11 -109 -39 q-52 -28 -93 -69 q-41 -41 -69 -93 q-28 -52 -39 -109 q-12 -57 -6 -115.5 q6 -58.5 28 -112.5 q23 -54 60 -99.5 q37 -45.5 86 -77.5 q48 -33 104 -50 q56 -17 115 -17 l0 0 ZM512 650.67 q6 0 12 -2.5 q6 -2.5 11 -7.5 q4 -4 6.5 -10 q2.5 -6 2.5 -12 l0 -342 q0 -6 -2.5 -12 q-2.5 -6 -6.5 -10 q-5 -5 -11 -7.5 q-6 -2.5 -12 -2.5 q-6 0 -12 2.5 q-6 2.5 -11 7.5 q-4 4 -6.5 10 q-2.5 6 -2.5 12 l0 342 q0 6 2.5 12 q2.5 6 6.5 10 q5 5 11 7.5 q6 2.5 12 2.5 ZM683 479.67 q6 0 12 -2.5 q6 -2.5 10 -6.5 q5 -5 7.5 -11 q2.5 -6 2.5 -12 q0 -6 -2.5 -12 q-2.5 -6 -7.5 -11 q-4 -4 -10 -6.5 q-6 -2.5 -12 -2.5 l-342 0 q-6 0 -12 2.5 q-6 2.5 -10 6.5 q-5 5 -7.5 11 q-2.5 6 -2.5 12 q0 6 2.5 12 q2.5 6 7.5 11 q4 4 10 6.5 q6 2.5 12 2.5 l342 0 Z"></path></symbol><symbol id="youtube-play-svgrepo-com" viewBox="0 -64 1024 1024"><path d="M29 227.9 q0 22 -2 178 q-2 156 -7 178 q-4 22 -6.5 178 q-2.5 156 -2.5 178 q151 -5 251 -105 q99 -100 103 -251 q-5 -151 -105 -250 q-101 -100 -251 -103 l0 11 q0 1 1 2 q0 0 0.5 -217 q0.5 -217 2.5 134 q2 350 7 437 q5 23 7 177 q2 155 2 177 q151 -3 252 -103 q101 -100 105 -251 q-3 -151 -103 -251 q-100 -101 -251 -105 l0 -11 q0 -2 -1 -2 q-1 -1 -2 -1 ZM17 231.9 l8 4 l-8 5 l0 -9 Z"></path></symbol><symbol id="youtube-168-svgrepo-com" viewBox="0 -64 1024 1024"><path d="M594 230.11 q202 100 386 203 q-167 91 -386 201 l0 -404 ZM1393 29.11 q-40 -51 -111 -66 q-143 -19 -544 -19 q-402 0 -543 19 q-55 11 -96 49 q-82 110 -80 394 q2 284 28 384 q17 61 47 90 q38 38 97 50 q100 18 427 21 q328 5 661 -18 q60 -11 101 -51 q79 -111 79 -416 q0 -305 -66 -437 Z"></path></symbol><symbol id="tripadvisor-logotype-svgrepo-com" viewBox="0 -64 1024 1024"><path d="M1064 -41.71 q71 12 140 33 q121 37 228 104 q8 4 17 5 l251 0 q11 0 21 1 l0 3 q-6 9 -12 18 q-44 64 -67 139 q-3 8 2 15 q112 162 67 352 q-42 167 -188 259 q-104 65 -228 65 q-51 0 -101 -13 q-122 -32 -210 -124 q-11 -12 -22 -25 q-45 68 -92 136 q-46 -68 -89 -134 l-3 1 l-2 2 q-105 125 -265 150 q-89 14 -176 -10 q-122 -34 -207 -129 q-82 -94 -102 -218 q-10 -58 -4 -106 q6 -47 11 -62 q21 -78 67 -145 q3 -5 2 -12 q-20 -69 -59 -128 q-11 -16 -23 -30 l0 -3 l5 0 l257 0 q6 0 11 -4 q91 -56 192 -92 q73 -26 148 -40 q74 -15 149 -20 q183 -8 282 12 ZM957 525.29 q3 144 99 241 q97 96 241 99 q144 -4 240 -98 q97 -96 100 -242 q-4 -150 -103 -245 q-99 -95 -245 -95 q-142 6 -235 102 q-93 95 -97 238 ZM447 184.29 q-142 2 -240 99.5 q-98 97.5 -100 246.5 q6 139 102 236 q95 95 242 97 q142 -4 237 -100 q95 -96 99 -237 q-3 -146 -99 -242 q-96 -97 -241 -100 ZM464 95.29 q155 9 270 113 q115 105 138 258 q24 -152 136 -255 q113 -104 266 -114 q-181 -78 -379 -79 q-224 -7 -431 77 ZM1296 310.29 q89 2 149 61 q60 59 62 149 q-2 89 -60 147 q-57 58 -143 63 q-93 1 -155 -59 q-61 -60 -64 -151 q3 -92 63.5 -151 q60.5 -59 147.5 -59 ZM1433 520.29 q-1 -58 -39.5 -97 q-38.5 -39 -97.5 -40 q-57 1 -97 39 q-39 39 -40 98 q1 57 40 96.5 q39 39.5 96 40.5 q59 -1 98 -39 q39 -40 40 -98 ZM443 310.29 q89 2 148 61 q60 59 62 149 q-3 90 -60.5 147.5 q-57.5 57.5 -139.5 62.5 q-95 2 -157 -59 q-63 -59 -65 -151 q3 -93 64 -151 q60 -59 148 -59 ZM579 520.29 q-1 -59 -40 -98 q-40 -38 -98 -39 q-58 1 -97 40 q-38 40 -40 97 q2 58 41 97 q39 39 98 40 q57 -1 96 -40 q39 -39 40 -97 ZM1296 450.29 q30 1 49.5 20.5 q19.5 19.5 20.5 50.5 q-6 62 -70 68 q-63 -6 -70 -68 q6 -65 70 -71 ZM442 450.29 q64 6 70 70 q0 30 -20 49.5 q-20 19.5 -49 20.5 q-66 -5 -71 -70 q5 -65 70 -70 Z"></path></symbol><symbol id="tripadvisor-svgrepo-com (1)" viewBox="0 -64 1024 1024"><path d="M1634 271.92 q20 -66 50 -117 q31 -51 34 -54 l-284 0 q-242 -156 -569 -157 q-338 1 -582 159 l-266 0 q3 3 33 53 q31 50 50 116 q-81 109 -83 253 q4 180 124 301 q121 121 302 125 q207 -8 332 -160 l90 136 l92 -137 q61 79 157 123 q160 71 325 13 q168 -68 239 -223 q71 -154 13 -326 q-23 -58 -57 -105 ZM1411 844.92 q-133 47 -261 -10 q-88 -42 -141 -122 q-22 -32 -36 -70 q-15 -41 -18 -86 q-9 -89 29 -174 q60 -126 191 -176 q137 -47 261 10 q123 57 176 191 q47 136 -10 260 q-57 124 -191 177 ZM724 715.92 q-99 141 -281 148 q-145 -3 -240 -99 q-97 -96 -101 -240 q4 -145 101 -240 q95 -97 240 -101 q144 4 240 100 q96 96 100 241 q-1 16 -4 34 q-8 87 -55 157 ZM226 520.92 q19 192 211 209 q193 -17 211 -209 q-18 -193 -211 -211 q-192 18 -211 211 ZM1080 520.92 q19 192 211 209 q192 -17 211 -209 q-19 -193 -211 -211 q-192 18 -211 211 ZM298 520.92 q14 -126 138 -139 q126 13 138 139 q-11 125 -138 138 q-126 -13 -138 -138 ZM1152 520.92 q13 -126 138 -139 q126 13 138 139 q-11 125 -138 138 q-126 -13 -138 -138 ZM865 17.92 q231 0 413 82 q-69 2 -135 26 q-165 62 -239 221 q-33 71 -39 147 q-15 -168 -132 -278 q-115 -110 -285 -117 q184 -80 414 -81 l3 0 Z"></path></symbol><symbol id="whatsapp-logo-thin-svgrepo-com" viewBox="0 -64 1024 1024"><path d="M233 156 q-1 0 -2 0 q-1 1 -1 1 q-1 1 -1 2 q0 1 1 2 l0 1 q0 0 0 1 q0 0 0 0 l1 -1 q1 1 2 1 q2 0 2 -1 q1 -1 2 -2 q0 -1 -1 -2 q0 -1 -1 -2 q-1 0 -2 0 ZM233 163 q-1 0 -2 -1 q-31 1 -52 22 q-21 21 -22 52 q1 31 22 52 q21 21 52 22 l-1 0 q0 0 0 0 q0 0 0 0 l0 -1 q1 31 22 52 q21 21 52 22 q32 -1 52 -22 q21 -21 22 -52 q-20 19 -46 26 q-26 7 -54 0 q-26 -8 -46 -27 q-19 -19 -26 -46 q-7 -27 0 -53 q7 -27 27 -46 ZM234 159 q-99 3 -165 69 q-66 65 -68 165 q2 99 68 165 q66 66 165 68 l-1 0 q0 0 0 0 l0 -1 q2 99 68 165 q66 66 165 68 q100 -2 165 -68 q66 -66 68 -165 l0 -1 q97 -102 97 -233 q0 -132 -97 -234 q-102 -97 -233 -97 q-132 0 -234 97 q0 0 -1 1 q0 0 0 0 q0 1 0 2 q0 0 1 1 q0 0 1 0 q0 0 1 0 l435 0 q-2 -92 -63 -153 q-61 -61 -153 -64 q-93 2 -154 63 q-61 61 -64 153 q0 0 0 0 l-1 -1 ZM273 161 q-1 9 -7 15 q-6 5 -15 5 q-9 -1 -15 -7 q-5 -7 -5 -16 q0 0 0 0 q1 0 1 0 q0 0 0 0 l1 0 q0 0 0 0 q0 0 0 0 q1 0 1 0 q0 0 0 0 l0 1 q4 168 115 279 q112 112 280 116 q168 -4 279 -116 q112 -111 116 -279 q0 0 0 1 q1 0 1 0 q-168 4 -280 116 q-112 112 -116 280 q4 168 116 280 q112 112 280 116 l-791 -792 q34 1 56 23 q23 22 23 56 q0 34 -23 56 q-22 23 -56 24 l1 0 q-34 -1 -56 -23 q-23 -22 -24 -56 q1 -34 24 -56 q22 -23 56 -24 q0 1 0 1 q-1 0 -1 0 l39 0 Z"></path></symbol><symbol id="whatsapp-whats-app-svgrepo-com" viewBox="0 -64 1024 1024"><path d="M485 -56 q-199 6 -332 139 q-134 132 -138 331 q4 177 110 303 l-77 235 l245 -108 q88 41 192 41 q200 -5 332 -138 q133 -133 139 -333 q-6 -199 -139 -331 q-132 -133 -332 -139 ZM743 586 q14 -47 8 -60 q-5 -7 -24 -14 q-13 -7 -43.5 -21.5 q-30.5 -14.5 -40.5 -19.5 q-18 -7 -30 11 q-19 27 -34 44 q-13 12 -30 3 q-25 -5 -102 -60 q-55 -59 -69 -88 q-8 -18 6 -27 q10 -10 20 -19 q9 -9 14 -21 q3 -12 -4 -24 q-3 -8 -15 -39 q-13 -30 -21 -52 q-9 -24 -28 -20 l-13 0 q-26 -2 -44 18 q-31 16 -43 104 q2 46 22 83 q20 38 28 44 q6 11 62 77 q55 65 150 112 q71 28 103 33 q31 4 45 0 q59 -17 83 -64 Z"></path></symbol><symbol id="whatsapp-svgrepo-com (1)" viewBox="0 -64 1024 1024"><path d="M872 90 q-70 -70 -161 -109 q-92 -37 -191 -37 q-134 1 -250 67 q-115 67 -182 183 q-67 115 -68 249 q1 134 67 250 l-71 259 l265 -69 q111 61 238 63 q206 -3 355 -147 q145 -146 149 -353 q-1 -100 -40 -193 q-39 -92 -111 -163 ZM520 859 q-113 -1 -212 -58 l-15 -9 l-157 42 l41 -154 l-10 -15 q-80 -135 -56 -290 q29 -155 151 -255 q124 -96 281 -89 q157 9 270 119 q121 122 126 294 q-4 171 -124 293 q-124 120 -295 122 ZM747 548 q-43 -22 -85 -40 q-16 -9 -28 6 q-19 26 -39 48 q-10 14 -28 0 q-110 -44 -169 -147 q-10 -15 36 -68 q3 -5 3 -11 q0 -6 -3 -11 q-12 -34 -38 -94 q-16 -28 -29 -20 l-24 0 q-10 0 -19 4 q-8 4 -15 12 q-21 20 -32 48 q-11 28 -9 58 q7 72 51 129 q82 122 214 189 q69 40 149 31 q27 -5 48 -20 q22 -16 36 -39 q13 -28 8 -59 q-8 -8 -27 -16 Z"></path></symbol><symbol id="whatsapp-svgrepo-com" viewBox="0 -64 1024 1024"><path d="M244 254.41 q5 -33 35 -61 q30 -29 63 -27 q30 9 53 45 q23 36 37 62 q15 38 -7 56 q-34 20 -36 49 q12 27 69 86 q59 59 105 87 q30 4 49 -35 q17 -23 54 -8 q50 30 95 67 q22 20 8 50 q-39 67 -108 69 q-60 -8 -199.5 -102 q-139.5 -94 -214.5 -314 q-6 -19 -3 -24 ZM508 918.41 q-70 2 -132 -22 l-94 46 q-46 21 -86 -4 q-39 -23 -42 -75 l0 -100 q-138 -127 -132 -332 q5 -207 142 -345 q137 -137 344 -142 q207 5 345 142 q138 138 142 345 q-4 207 -142 344 q-138 138 -345 143 ZM215 698.41 q-109 -95 -105 -267 q4 -170 117 -282 q112 -113 281 -116 q170 3 283 116 q112 112 116 282 q-4 169 -116 282 q-113 112 -283 116 q-55 2 -104 -17 l-35 -12 l-126 63 l0 -138 l-28 -27 Z"></path></symbol><symbol id="whatsapp-svgrepo-com" viewBox="0 -64 1024 1024"><path d="M244 254.41 q5 -33 35 -61 q30 -29 63 -27 q30 9 53 45 q23 36 37 62 q15 38 -7 56 q-34 20 -36 49 q12 27 69 86 q59 59 105 87 q30 4 49 -35 q17 -23 54 -8 q50 30 95 67 q22 20 8 50 q-39 67 -108 69 q-60 -8 -199.5 -102 q-139.5 -94 -214.5 -314 q-6 -19 -3 -24 ZM508 918.41 q-70 2 -132 -22 l-94 46 q-46 21 -86 -4 q-39 -23 -42 -75 l0 -100 q-138 -127 -132 -332 q5 -207 142 -345 q137 -137 344 -142 q207 5 345 142 q138 138 142 345 q-4 207 -142 344 q-138 138 -345 143 ZM215 698.41 q-109 -95 -105 -267 q4 -170 117 -282 q112 -113 281 -116 q170 3 283 116 q112 112 116 282 q-4 169 -116 282 q-113 112 -283 116 q-55 2 -104 -17 l-35 -12 l-126 63 l0 -138 l-28 -27 Z"></path></symbol><symbol id="whatsapp-svgrepo-com (1)" viewBox="0 -64 1024 1024"><path d="M872 90 q-70 -70 -161 -109 q-92 -37 -191 -37 q-134 1 -250 67 q-115 67 -182 183 q-67 115 -68 249 q1 134 67 250 l-71 259 l265 -69 q111 61 238 63 q206 -3 355 -147 q145 -146 149 -353 q-1 -100 -40 -193 q-39 -92 -111 -163 ZM520 859 q-113 -1 -212 -58 l-15 -9 l-157 42 l41 -154 l-10 -15 q-80 -135 -56 -290 q29 -155 151 -255 q124 -96 281 -89 q157 9 270 119 q121 122 126 294 q-4 171 -124 293 q-124 120 -295 122 ZM747 548 q-43 -22 -85 -40 q-16 -9 -28 6 q-19 26 -39 48 q-10 14 -28 0 q-110 -44 -169 -147 q-10 -15 36 -68 q3 -5 3 -11 q0 -6 -3 -11 q-12 -34 -38 -94 q-16 -28 -29 -20 l-24 0 q-10 0 -19 4 q-8 4 -15 12 q-21 20 -32 48 q-11 28 -9 58 q7 72 51 129 q82 122 214 189 q69 40 149 31 q27 -5 48 -20 q22 -16 36 -39 q13 -28 8 -59 q-8 -8 -27 -16 Z"></path></symbol><symbol id="whatsapp-whats-app-svgrepo-com" viewBox="0 -64 1024 1024"><path d="M485 -56 q-199 6 -332 139 q-134 132 -138 331 q4 177 110 303 l-77 235 l245 -108 q88 41 192 41 q200 -5 332 -138 q133 -133 139 -333 q-6 -199 -139 -331 q-132 -133 -332 -139 ZM743 586 q14 -47 8 -60 q-5 -7 -24 -14 q-13 -7 -43.5 -21.5 q-30.5 -14.5 -40.5 -19.5 q-18 -7 -30 11 q-19 27 -34 44 q-13 12 -30 3 q-25 -5 -102 -60 q-55 -59 -69 -88 q-8 -18 6 -27 q10 -10 20 -19 q9 -9 14 -21 q3 -12 -4 -24 q-3 -8 -15 -39 q-13 -30 -21 -52 q-9 -24 -28 -20 l-13 0 q-26 -2 -44 18 q-31 16 -43 104 q2 46 22 83 q20 38 28 44 q6 11 62 77 q55 65 150 112 q71 28 103 33 q31 4 45 0 q59 -17 83 -64 Z"></path></symbol><symbol id="tripadvisor-svgrepo-com (1)" viewBox="0 -64 1024 1024"><path d="M1634 271.92 q20 -66 50 -117 q31 -51 34 -54 l-284 0 q-242 -156 -569 -157 q-338 1 -582 159 l-266 0 q3 3 33 53 q31 50 50 116 q-81 109 -83 253 q4 180 124 301 q121 121 302 125 q207 -8 332 -160 l90 136 l92 -137 q61 79 157 123 q160 71 325 13 q168 -68 239 -223 q71 -154 13 -326 q-23 -58 -57 -105 ZM1411 844.92 q-133 47 -261 -10 q-88 -42 -141 -122 q-22 -32 -36 -70 q-15 -41 -18 -86 q-9 -89 29 -174 q60 -126 191 -176 q137 -47 261 10 q123 57 176 191 q47 136 -10 260 q-57 124 -191 177 ZM724 715.92 q-99 141 -281 148 q-145 -3 -240 -99 q-97 -96 -101 -240 q4 -145 101 -240 q95 -97 240 -101 q144 4 240 100 q96 96 100 241 q-1 16 -4 34 q-8 87 -55 157 ZM226 520.92 q19 192 211 209 q193 -17 211 -209 q-18 -193 -211 -211 q-192 18 -211 211 ZM1080 520.92 q19 192 211 209 q192 -17 211 -209 q-19 -193 -211 -211 q-192 18 -211 211 ZM298 520.92 q14 -126 138 -139 q126 13 138 139 q-11 125 -138 138 q-126 -13 -138 -138 ZM1152 520.92 q13 -126 138 -139 q126 13 138 139 q-11 125 -138 138 q-126 -13 -138 -138 ZM865 17.92 q231 0 413 82 q-69 2 -135 26 q-165 62 -239 221 q-33 71 -39 147 q-15 -168 -132 -278 q-115 -110 -285 -117 q184 -80 414 -81 l3 0 Z"></path></symbol><symbol id="tripadvisor-svgrepo-com (1)" viewBox="0 -64 1024 1024"><path d="M1634 271.92 q20 -66 50 -117 q31 -51 34 -54 l-284 0 q-242 -156 -569 -157 q-338 1 -582 159 l-266 0 q3 3 33 53 q31 50 50 116 q-81 109 -83 253 q4 180 124 301 q121 121 302 125 q207 -8 332 -160 l90 136 l92 -137 q61 79 157 123 q160 71 325 13 q168 -68 239 -223 q71 -154 13 -326 q-23 -58 -57 -105 ZM1411 844.92 q-133 47 -261 -10 q-88 -42 -141 -122 q-22 -32 -36 -70 q-15 -41 -18 -86 q-9 -89 29 -174 q60 -126 191 -176 q137 -47 261 10 q123 57 176 191 q47 136 -10 260 q-57 124 -191 177 ZM724 715.92 q-99 141 -281 148 q-145 -3 -240 -99 q-97 -96 -101 -240 q4 -145 101 -240 q95 -97 240 -101 q144 4 240 100 q96 96 100 241 q-1 16 -4 34 q-8 87 -55 157 ZM226 520.92 q19 192 211 209 q193 -17 211 -209 q-18 -193 -211 -211 q-192 18 -211 211 ZM1080 520.92 q19 192 211 209 q192 -17 211 -209 q-19 -193 -211 -211 q-192 18 -211 211 ZM298 520.92 q14 -126 138 -139 q126 13 138 139 q-11 125 -138 138 q-126 -13 -138 -138 ZM1152 520.92 q13 -126 138 -139 q126 13 138 139 q-11 125 -138 138 q-126 -13 -138 -138 ZM865 17.92 q231 0 413 82 q-69 2 -135 26 q-165 62 -239 221 q-33 71 -39 147 q-15 -168 -132 -278 q-115 -110 -285 -117 q184 -80 414 -81 l3 0 Z"></path></symbol><symbol id="whatsapp-svgrepo-com" viewBox="0 -64 1024 1024"><path d="M244 254.41 q5 -33 35 -61 q30 -29 63 -27 q30 9 53 45 q23 36 37 62 q15 38 -7 56 q-34 20 -36 49 q12 27 69 86 q59 59 105 87 q30 4 49 -35 q17 -23 54 -8 q50 30 95 67 q22 20 8 50 q-39 67 -108 69 q-60 -8 -199.5 -102 q-139.5 -94 -214.5 -314 q-6 -19 -3 -24 ZM508 918.41 q-70 2 -132 -22 l-94 46 q-46 21 -86 -4 q-39 -23 -42 -75 l0 -100 q-138 -127 -132 -332 q5 -207 142 -345 q137 -137 344 -142 q207 5 345 142 q138 138 142 345 q-4 207 -142 344 q-138 138 -345 143 ZM215 698.41 q-109 -95 -105 -267 q4 -170 117 -282 q112 -113 281 -116 q170 3 283 116 q112 112 116 282 q-4 169 -116 282 q-113 112 -283 116 q-55 2 -104 -17 l-35 -12 l-126 63 l0 -138 l-28 -27 Z"></path></symbol></defs></svg>