<svg xmlns:xlink="http://www.w3.org/1999/xlink" width="230" height="85" viewBox="0 0 230 85" fill="none" xmlns="http://www.w3.org/2000/svg">
<path d="M82.4602 63.4347C81.7969 63.202 81.078 63.5652 80.8495 64.2349C78.6314 70.8293 72.8966 77.9005 68.8505 80.6756C68.2708 81.0728 68.1148 81.8787 68.5049 82.4689C68.7501 82.8378 69.1514 83.0364 69.5583 83.0364C69.8035 83.0364 70.0487 82.9626 70.266 82.8151C74.7413 79.7448 80.8216 72.2708 83.246 65.0691C83.48 64.4052 83.1234 63.6674 82.4602 63.4347Z" fill="#27787D"></path>
<path d="M52.1086 23.5277C52.1086 19.4359 48.8427 16.1104 44.8245 16.1104C40.8062 16.1104 37.5403 19.4359 37.5403 23.5277C37.5403 27.6194 40.8062 30.945 44.8245 30.945C48.8427 30.9506 52.1086 27.6194 52.1086 23.5277ZM44.8245 28.3685C42.2051 28.3685 40.0761 26.2006 40.0761 23.5333C40.0761 20.8661 42.2051 18.6982 44.8245 18.6982C47.4439 18.6982 49.5728 20.8661 49.5728 23.5333C49.5728 26.2006 47.4439 28.3685 44.8245 28.3685Z" fill="#27787D"></path>
<path d="M7.48302 36.9861L8.16138 35.497C8.23163 35.337 8.19349 35.1524 8.06627 35.0382L7.10739 34.1594C6.98016 34.0452 6.94154 33.8549 7.01227 33.7006L8.09573 31.3217C8.16646 31.1674 8.33183 31.0732 8.50178 31.0982L9.78633 31.2707C9.95628 31.2957 10.1161 31.202 10.1924 31.0472L10.8753 29.5464C10.9883 29.2973 10.8239 29.0097 10.5535 28.9878L1.2527 28.2231C1.08927 28.2089 0.935006 28.3022 0.869342 28.4503L0.191456 29.945C0.12024 30.0937 0.152347 30.2731 0.268948 30.3939L6.86138 37.1088C7.04485 37.2921 7.36448 37.2357 7.48302 36.9861ZM6.15213 31.2922L5.7328 32.2118C5.62488 32.4548 5.31685 32.5159 5.1172 32.3397L3.87273 31.1953C3.58762 30.9354 3.80393 30.4551 4.18318 30.5074L5.84699 30.7322C6.11278 30.7659 6.26559 31.0488 6.15213 31.2922Z" fill="#27787D"></path>
<path d="M10.9997 28.6419C11.1733 28.7749 11.4162 28.7366 11.547 28.5656L13.6437 25.7395C14.3346 24.7905 14.6698 23.9353 14.6546 23.1676C14.6337 22.4004 14.2518 21.7275 13.5092 21.1544C13.0961 20.8373 12.6688 20.6809 12.2262 20.674C12.0022 20.6708 11.7876 20.7123 11.5708 20.7939C11.3267 20.8836 11.0508 20.7311 11.0452 20.4696C11.0389 20.2651 11.0049 20.063 10.938 19.8695C10.7977 19.4716 10.5271 19.1193 10.1321 18.8177C9.44933 18.2906 8.73835 18.1534 7.99264 18.3951C7.24693 18.6368 6.51139 19.2593 5.76839 20.2527L3.94299 22.7191C3.81264 22.8957 3.85056 23.143 4.01859 23.2764L10.9997 28.6419ZM10.4298 23.2177C10.9066 22.5779 11.4654 22.5063 12.0999 22.992C12.3751 23.2015 12.52 23.4566 12.5401 23.7567C12.5596 24.0512 12.4414 24.3692 12.1908 24.71L11.5188 25.6175C11.3884 25.7941 11.1451 25.8267 10.9715 25.6938L9.76798 24.7679C9.59439 24.6349 9.56202 24.3871 9.69237 24.2106L10.4298 23.2177ZM6.72885 21.9346L7.17012 21.3378C7.48103 20.9176 7.77312 20.67 8.0575 20.5939C8.33584 20.5126 8.63979 20.6 8.96282 20.8452C9.24408 21.0598 9.38847 21.3093 9.40152 21.5929C9.41458 21.8766 9.27651 22.2247 8.97574 22.6327L8.48934 23.2903C8.35899 23.4669 8.11565 23.4996 7.94206 23.3666L6.80446 22.4919C6.63642 22.3585 6.59802 22.1055 6.72885 21.9346Z" fill="#27787D"></path>
<path d="M16.0642 21.9902C16.2069 22.1543 16.449 22.173 16.6156 22.0274L17.7593 21.0104C17.9203 20.8654 17.9384 20.6189 17.7957 20.4547L16.0871 18.4622C15.9444 18.2981 15.962 18.0459 16.1235 17.9065L16.5863 17.4958C16.6951 17.3952 16.8552 17.3698 16.9887 17.4265L20.0291 18.7046C20.1627 18.7613 20.3227 18.7359 20.4316 18.6352L22.1059 17.1504L22.0436 17.0761L18.3707 15.5969C18.1852 15.522 18.0776 15.3092 18.1449 15.1154C18.2955 14.6522 18.3365 14.2157 18.2674 13.8002C18.1841 13.2835 17.9226 12.7766 17.4876 12.2677C16.8847 11.5628 16.18 11.237 15.372 11.2734C14.5645 11.3155 13.7314 11.7129 12.8787 12.471L10.3467 14.72C10.1857 14.8651 10.1676 15.1116 10.3103 15.2757L16.0642 21.9902ZM13.2338 14.5304L14.0342 13.8169C14.3618 13.5262 14.6812 13.4015 15.0025 13.4304C15.3239 13.4593 15.6184 13.6329 15.8917 13.9508C16.165 14.2687 16.2874 14.5884 16.2756 14.9084C16.2587 15.2346 16.089 15.5399 15.7615 15.8305L14.961 16.5441C14.8 16.6892 14.5523 16.671 14.4152 16.5064L13.1978 15.0918C13.0552 14.9277 13.0728 14.6755 13.2338 14.5304Z" fill="#27787D"></path>
<path d="M20.2248 13.0085C20.6729 13.801 21.2181 14.4199 21.8607 14.8707C22.5029 15.3159 23.1888 15.5522 23.9184 15.5796C24.6479 15.607 25.3702 15.4186 26.0802 15.0205C26.7901 14.6224 27.3326 14.0965 27.7014 13.4377C28.0707 12.7846 28.2319 12.0528 28.1906 11.2418C28.1497 10.4365 27.9005 9.61525 27.4551 8.78834L27.2426 8.39677C26.7981 7.58117 26.2515 6.94537 25.5967 6.48421C24.9475 6.02257 24.2496 5.77594 23.514 5.74336C22.7729 5.71126 22.0501 5.89402 21.3452 6.28598C20.6297 6.68456 20.0877 7.21607 19.7133 7.87536C19.339 8.53465 19.1777 9.26645 19.2186 10.0717C19.265 10.8765 19.5082 11.6927 19.9602 12.5304L20.2248 13.0085ZM22.2151 7.89037C22.7329 7.6002 23.2476 7.60081 23.7582 7.88089C24.2749 8.16614 24.7592 8.72763 25.2117 9.57102L25.4241 9.96258C25.8641 10.79 26.0703 11.5011 26.0317 12.0969C25.9931 12.6926 25.723 13.132 25.2158 13.4156C24.6818 13.7129 24.1565 13.7189 23.6444 13.4218C23.1324 13.1248 22.6481 12.5633 22.1961 11.7256L21.8629 11.0996C21.0907 9.52656 21.2063 8.45697 22.2151 7.89037Z" fill="#27787D"></path>
<path d="M30.0291 12.7225L31.5729 12.2629C31.7365 12.2145 31.8522 12.062 31.8543 11.8909L31.8709 10.5793C31.873 10.4082 31.9887 10.2557 32.1523 10.2073L34.6236 9.47303C34.7873 9.42455 34.9607 9.48916 35.057 9.63454L35.777 10.728C35.8733 10.8734 36.0466 10.938 36.2103 10.8895L37.7648 10.4233C38.0264 10.3435 38.1281 10.027 37.9694 9.80735L32.4007 2.1824C32.3053 2.04832 32.1324 1.98937 31.9799 2.03688L30.4305 2.4969C30.2724 2.54489 30.1613 2.68561 30.1532 2.85151L29.5416 12.3208C29.5143 12.5909 29.7669 12.7966 30.0291 12.7225ZM31.9064 7.85342L31.9285 6.14833C31.9345 5.76046 32.4306 5.6089 32.6433 5.93779L33.5704 7.3606C33.718 7.58126 33.6098 7.8869 33.3588 7.9601L32.404 8.24287C32.1585 8.31558 31.9069 8.1211 31.9064 7.85342Z" fill="#27787D"></path>
<path d="M38.928 10.2927L41.6687 10.0931C42.491 10.027 43.2191 9.77542 43.8631 9.32612C44.5021 8.88296 44.9832 8.2941 45.3014 7.56568C45.6195 6.83725 45.7462 6.02872 45.6814 5.14007L45.6488 4.69292C45.5794 3.81607 45.3341 3.04003 44.9068 2.35964C44.4794 1.67925 43.9157 1.17026 43.2211 0.832199C42.521 0.494622 41.754 0.356558 40.9146 0.418488L38.2405 0.612208C38.0234 0.62547 37.8663 0.81578 37.8796 1.03677L38.5161 9.92421C38.5239 10.1457 38.7114 10.3116 38.928 10.2927ZM40.296 2.67126C40.2827 2.45027 40.4404 2.26561 40.6569 2.2467L41.0405 2.21888C41.7133 2.1715 42.2449 2.37 42.6303 2.82052C43.0156 3.27104 43.2426 3.96324 43.3112 4.89711L43.3414 5.316C43.4105 6.25553 43.2821 6.97877 42.9669 7.47909C42.6461 7.9799 42.1606 8.25585 41.5045 8.30178L41.0986 8.33153C40.8816 8.34479 40.7001 8.18407 40.6812 7.96356L40.296 2.67126Z" fill="#27787D"></path>
<path d="M48.3476 9.76068C48.9326 10.1254 49.6068 10.357 50.376 10.455C51.4624 10.5994 52.3464 10.4709 53.0286 10.0752C53.7108 9.67953 54.1108 9.05788 54.2179 8.21688C54.3516 7.16279 53.9452 6.26981 52.9988 5.53792C52.6094 5.23586 52.1024 4.93268 51.4784 4.63403C50.8543 4.33538 50.4229 4.06547 50.1901 3.82948C49.9574 3.59348 49.8528 3.35198 49.8876 3.104C49.925 2.82162 50.0686 2.60401 50.33 2.45586C50.591 2.30205 50.9227 2.25599 51.3302 2.31153C51.7322 2.36756 52.0359 2.51761 52.2469 2.7612C52.3905 2.93663 52.4755 3.14566 52.4963 3.38878C52.5127 3.58102 52.6438 3.74045 52.8305 3.76402L54.341 3.96245C54.573 3.99345 54.7862 3.80395 54.7825 3.56503C54.775 3.14986 54.6856 2.75893 54.5089 2.39272C54.2706 1.89518 53.8947 1.48941 53.3862 1.16927C52.8778 0.849126 52.2841 0.644654 51.6053 0.555854C50.9093 0.462854 50.2683 0.490362 49.6774 0.644517C49.0919 0.798186 48.6161 1.05621 48.2615 1.42326C47.9069 1.79031 47.6938 2.24184 47.6272 2.77171C47.4894 3.84324 47.9991 4.76707 49.1447 5.53852C49.495 5.77564 49.9592 6.03699 50.5259 6.31787C51.0925 6.59875 51.4831 6.84944 51.6922 7.07042C51.9013 7.29139 51.9865 7.56876 51.9428 7.90865C51.9069 8.20799 51.7633 8.4256 51.5286 8.56003C51.2884 8.69493 50.9789 8.73905 50.6052 8.68626C50.0166 8.60666 49.6045 8.4319 49.379 8.1497C49.2042 7.93712 49.113 7.65458 49.1112 7.30726C49.111 7.10792 48.9678 6.93815 48.7752 6.90941L47.2586 6.70581C47.0266 6.67481 46.8185 6.85817 46.8161 7.09193C46.8169 7.55895 46.9096 7.98946 47.1008 8.39427C47.3445 8.954 47.7626 9.39596 48.3476 9.76068Z" fill="#27787D"></path>
<path d="M82.8029 35.4159C82.7202 36.1057 82.7946 36.8217 83.0287 37.5688C83.354 38.6266 83.8396 39.3844 84.4807 39.845C85.1218 40.3056 85.8477 40.4124 86.648 40.1586C87.6508 39.8398 88.2827 39.0928 88.5438 37.9175C88.652 37.4335 88.712 36.8411 88.7189 36.1431C88.7258 35.4451 88.7876 34.936 88.9021 34.6235C89.0166 34.311 89.1897 34.1138 89.427 34.0419C89.6963 33.958 89.952 33.9987 90.1945 34.1767C90.442 34.3518 90.6222 34.637 90.743 35.0344C90.861 35.4269 90.8534 35.7685 90.723 36.0643C90.6256 36.2696 90.4734 36.4352 90.2638 36.5561C90.098 36.6517 90.0097 36.8388 90.0666 37.02L90.521 38.4898C90.5903 38.7158 90.8498 38.8321 91.0629 38.7287C91.4327 38.548 91.7464 38.3022 92.0013 37.9866C92.3484 37.5594 92.5555 37.0444 92.6301 36.4436C92.7047 35.8427 92.6398 35.2121 92.4352 34.5517C92.2273 33.8738 91.9341 33.2969 91.5482 32.8189C91.165 32.3458 90.734 32.0171 90.2558 31.8452C89.7776 31.6734 89.2827 31.6668 88.7789 31.8276C87.7587 32.1499 87.1423 33.0047 86.9292 34.3794C86.8629 34.8003 86.8226 35.336 86.8075 35.9738C86.7925 36.6116 86.731 37.0752 86.62 37.3597C86.5091 37.6442 86.2957 37.8386 85.9721 37.9408C85.6881 38.0332 85.4325 37.9925 85.2135 37.8334C84.9917 37.6694 84.8225 37.4037 84.7134 37.0385C84.5384 36.4648 84.5228 36.0133 84.6819 35.6881C84.7996 35.4386 85.0152 35.2365 85.3264 35.0895C85.5054 35.0058 85.5979 34.8032 85.543 34.6143L85.0908 33.1368C85.0215 32.9108 84.7696 32.7966 84.5587 32.8923C84.1395 33.0885 83.7916 33.354 83.5081 33.6991C83.1073 34.1571 82.8855 34.7261 82.8029 35.4159Z" fill="#27787D"></path>
<path d="M60.1307 12.9916L61.5206 13.6107C61.718 13.696 61.9454 13.6078 62.0345 13.4063L64.8233 6.89686C64.9069 6.6959 65.1398 6.60719 65.3373 6.69248L67.245 7.54545C67.4425 7.63073 67.6699 7.54251 67.759 7.34106L68.1551 6.41216C68.2386 6.21119 68.1516 5.97954 67.9537 5.88861L61.365 2.95528C61.1676 2.87 60.9401 2.95822 60.8511 3.15967L60.455 4.08858C60.3715 4.28954 60.4584 4.52119 60.6564 4.61213L62.5172 5.44071C62.7147 5.52599 62.8021 5.76329 62.7186 5.96426L59.9298 12.4737C59.8402 12.6695 59.9332 12.9063 60.1307 12.9916Z" fill="#27787D"></path>
<path d="M67.4322 10.8503L67.1232 11.2931C66.6173 12.0493 66.3025 12.8173 66.1906 13.6018C66.073 14.3867 66.1631 15.1137 66.4568 15.8001C66.7499 16.4808 67.2301 17.0597 67.8923 17.543C68.5541 18.0206 69.254 18.2899 69.997 18.3446C70.7401 18.3993 71.4588 18.234 72.1526 17.843C72.8464 17.452 73.4682 16.8737 74.0065 16.1032L74.2607 15.7392C74.7884 14.9754 75.1137 14.2008 75.2414 13.4036C75.369 12.6063 75.283 11.862 74.989 11.1699C74.6949 10.4779 74.2197 9.89282 73.5635 9.4147C72.9013 8.9314 72.1959 8.66265 71.4472 8.60842C70.7042 8.55371 69.9799 8.7195 69.2912 9.10435C68.5914 9.49017 67.9756 10.0737 67.4322 10.8503ZM69.1101 12.5493L69.5195 11.9724C70.5754 10.5814 71.5738 10.2208 72.5108 10.9079C72.9879 11.2536 73.2187 11.729 73.1912 12.3238C73.1638 12.9186 72.8756 13.6045 72.3276 14.3929L72.0734 14.7569C71.5346 15.5217 70.9949 16.0131 70.449 16.2374C69.9088 16.4612 69.3999 16.3974 68.9289 16.0569C68.4337 15.6957 68.2024 15.2147 68.241 14.6189C68.2786 14.0118 68.5723 13.3254 69.1101 12.5493Z" fill="#27787D"></path>
<path d="M73.0895 20.6263C73.0895 21.5434 73.4792 22.4378 74.2591 23.3153C74.7731 23.8969 75.3226 24.3046 75.8969 24.545C76.4768 24.7848 77.0579 24.8423 77.6402 24.7174C78.228 24.592 78.7782 24.2876 79.3018 23.8033L83.6373 19.8131C83.7983 19.6681 83.8103 19.4164 83.6621 19.2527L82.6411 18.1059C82.4984 17.9417 82.2512 17.9292 82.0906 18.0799L77.7657 22.0634C77.3303 22.466 76.9334 22.6658 76.5747 22.6573C76.2159 22.6488 75.876 22.4677 75.56 22.108C74.9284 21.3941 74.9901 20.6767 75.7442 19.9444L80.1471 15.8914C80.3081 15.7464 80.3202 15.4947 80.1719 15.331L79.1444 14.1733C79.0017 14.0092 78.7545 13.9966 78.594 14.1474L74.2275 18.1686C73.4725 18.8897 73.0899 19.7149 73.0895 20.6263Z" fill="#27787D"></path>
<path d="M87.5587 25.308L85.8734 22.3451C85.7677 22.155 85.5272 22.0905 85.3406 22.198L77.7729 26.6584C77.5863 26.7658 77.5233 27.0106 77.629 27.2007L78.3925 28.541C78.4982 28.7311 78.7387 28.7955 78.9253 28.6881L81.1672 27.3644C81.3538 27.257 81.5887 27.3219 81.7 27.5115L82.0093 28.0542C82.082 28.1845 82.0788 28.3443 82.0002 28.4708L80.1912 31.2604C80.1125 31.3869 80.1038 31.5472 80.182 31.6771L81.2949 33.6362L81.3798 33.5832L83.5014 30.1966C83.6095 30.022 83.8338 29.9625 84.01 30.061C84.4275 30.298 84.8412 30.427 85.256 30.4364C85.7661 30.4488 86.3117 30.2872 86.8816 29.9526C87.6751 29.4845 88.1236 28.8416 88.2387 28.0283C88.3534 27.2095 88.1302 26.3005 87.5587 25.308ZM86.2202 27.2534C86.1297 27.5689 85.9062 27.8334 85.5491 28.0411C85.1921 28.2489 84.8623 28.3176 84.5538 28.242C84.2453 28.1664 83.9792 27.9333 83.7617 27.5479L83.2283 26.6091C83.1226 26.4189 83.186 26.1798 83.3722 26.0667L84.9698 25.124C85.1564 25.0166 85.3913 25.0815 85.5026 25.2712L86.0359 26.21C86.2475 26.5903 86.3107 26.9379 86.2202 27.2534Z" fill="#27787D"></path>
<path d="M64.3138 62.6004C63.6116 62.6004 63.0487 63.1793 63.0487 63.8887V67.1064L60.485 65.0634V59.4564C60.485 58.7414 59.9166 58.1682 59.2199 58.1682C58.5177 58.1682 57.9548 58.7471 57.9548 59.4564V63.0431L54.1428 60.0012V54.2127C54.1428 53.4976 53.5743 52.9245 52.8777 52.9245C52.1754 52.9245 51.6125 53.5033 51.6125 54.2127V57.9809L50.0855 56.7608V51.2787C50.0855 50.5636 49.517 49.9904 48.8204 49.9904C48.1237 49.9904 47.5553 50.5693 47.5553 51.2787V54.7405L45.6214 53.1969C45.1644 52.828 44.5179 52.828 44.0553 53.1969L42.0657 54.7802V51.2787C42.0657 50.5636 41.4972 49.9904 40.8006 49.9904C40.0984 49.9904 39.5355 50.5693 39.5355 51.2787V56.8062L38.0642 57.9809V54.2127C38.0642 53.4976 37.4957 52.9245 36.799 52.9245C36.0968 52.9245 35.5339 53.5033 35.5339 54.2127V60.0012L31.7163 63.0488V59.4564C31.7163 58.7414 31.1478 58.1682 30.4512 58.1682C29.749 58.1682 29.1861 58.7471 29.1861 59.4564V65.0748L26.6336 67.1121V63.8943C26.6336 63.1793 26.0651 62.6061 25.3685 62.6061C24.6662 62.6061 24.1034 63.185 24.1034 63.8943V69.7567V81.7311C24.1034 82.0999 23.8526 82.2702 23.7467 82.3326C23.6408 82.3894 23.3565 82.5029 23.0612 82.2929C15.6321 77.0662 10.3655 69.3992 8.0136 60.7504H13.0517V65.7047C13.0517 66.4197 13.6202 66.9929 14.3169 66.9929H20.6981C21.4004 66.9929 21.9633 66.4141 21.9633 65.7047V48.566L26.5946 45.3142L30.9193 48.5433V53.2536C30.9193 53.9687 31.4878 54.5418 32.1845 54.5418C32.8867 54.5418 33.4496 53.963 33.4496 53.2536V47.885C33.4496 47.8736 33.4496 47.8623 33.4496 47.8509C33.4496 47.8282 33.4496 47.8055 33.444 47.7772C33.444 47.7545 33.4384 47.7374 33.4384 47.7147C33.4384 47.692 33.4328 47.675 33.4273 47.6523C33.4217 47.6296 33.4217 47.6069 33.4161 47.5842C33.4106 47.5672 33.405 47.5502 33.405 47.5331C33.3994 47.5104 33.3938 47.4877 33.3827 47.465C33.3771 47.448 33.3715 47.431 33.366 47.414C33.3604 47.3913 33.3492 47.3742 33.3381 47.3515C33.3325 47.3345 33.3214 47.3118 33.3102 47.2948C33.2991 47.2778 33.2935 47.2607 33.2824 47.2437C33.2712 47.2267 33.2601 47.204 33.2489 47.187C33.2378 47.1699 33.2266 47.1586 33.2211 47.1416C33.2099 47.1245 33.1932 47.1018 33.1821 47.0848C33.1709 47.0678 33.1598 47.0564 33.1486 47.0451C33.1319 47.0281 33.1208 47.011 33.104 46.994C33.0929 46.977 33.0762 46.9656 33.0594 46.9486C33.0427 46.9316 33.0316 46.9202 33.0149 46.9089C32.9981 46.8919 32.9814 46.8805 32.9591 46.8635C32.948 46.8578 32.9424 46.8465 32.9313 46.8408L27.3637 42.6866C26.929 42.3632 26.3382 42.3518 25.8923 42.6639L19.9792 46.8124L19.9681 46.8181C19.9569 46.8238 19.9458 46.8351 19.9346 46.8465C19.9123 46.8635 19.8956 46.8748 19.8733 46.8919C19.8566 46.9089 19.8399 46.9202 19.8232 46.9373C19.812 46.9486 19.7953 46.96 19.7841 46.977C19.7674 46.994 19.7507 47.0167 19.734 47.0337C19.7228 47.0451 19.7117 47.0564 19.7005 47.0678C19.6838 47.0848 19.6727 47.1075 19.656 47.1302C19.6448 47.1416 19.6392 47.1586 19.6281 47.1699C19.6169 47.187 19.6058 47.2097 19.5947 47.2324C19.5835 47.2494 19.5779 47.2664 19.5668 47.2834C19.5556 47.3005 19.5501 47.3232 19.5389 47.3402C19.5278 47.3572 19.5222 47.3799 19.5111 47.4026C19.5055 47.4196 19.4999 47.4367 19.4943 47.4537C19.4888 47.4764 19.4776 47.4991 19.472 47.5218C19.4665 47.5388 19.4609 47.5558 19.4609 47.5729C19.4553 47.5956 19.4498 47.6183 19.4442 47.641C19.4386 47.6637 19.4386 47.6807 19.433 47.7034C19.433 47.7261 19.4275 47.7431 19.4275 47.7658C19.4275 47.7942 19.4219 47.8226 19.4219 47.8566C19.4219 47.868 19.4219 47.8793 19.4219 47.8907V47.902V47.9077V64.4164H15.5764V59.4621C15.5764 58.7471 15.0079 58.1739 14.3113 58.1739H7.37268C6.86553 55.6485 6.60359 53.0607 6.60359 50.4331V47.221C6.60359 46.506 6.03512 45.9328 5.33848 45.9328C4.63626 45.9328 4.07336 46.5116 4.07336 47.221V50.4331C4.07336 53.5601 4.42448 56.6416 5.09326 59.6267C5.1044 59.7118 5.12112 59.7969 5.14899 59.8821C7.42842 69.7397 13.2245 78.5303 21.5899 84.421C22.136 84.8069 22.7714 84.9999 23.4067 84.9999C23.9139 84.9999 24.4266 84.875 24.8947 84.6253C25.9536 84.0578 26.6113 82.9569 26.6113 81.7424V70.4036L44.83 55.8641L58.3672 66.6694C58.4174 66.7148 58.4676 66.7546 58.5177 66.7886L63.0431 70.4036V82.6674C63.0431 83.3825 63.6116 83.9557 64.3082 83.9557C65.0049 83.9557 65.5733 83.3768 65.5733 82.6674V69.7567V63.8887C65.5789 63.1793 65.0105 62.6004 64.3138 62.6004Z" fill="#27787D"></path>
<path d="M44.8244 61.0964C42.3555 61.0964 40.3492 63.1395 40.3492 65.6535V78.4451C40.3492 79.1601 40.9176 79.7333 41.6143 79.7333H48.0346C48.7368 79.7333 49.2997 79.1545 49.2997 78.4451V65.6535C49.2997 63.1451 47.2934 61.0964 44.8244 61.0964ZM46.7639 77.1569H42.8794V65.6535C42.8794 64.5639 43.7488 63.6786 44.8189 63.6786C45.8889 63.6786 46.7583 64.5639 46.7583 65.6535V77.1569H46.7639Z" fill="#27787D"></path>
<path d="M34.1352 69.127C31.956 69.127 30.1838 70.9316 30.1838 73.1506V81.7483C30.1838 82.4633 30.7522 83.0365 31.4489 83.0365H36.8159C37.5181 83.0365 38.081 82.4577 38.081 81.7483V73.1506C38.0865 70.9316 36.3143 69.127 34.1352 69.127ZM35.5507 80.46H32.7196V73.1506C32.7196 72.3561 33.3549 71.7091 34.1352 71.7091C34.9154 71.7091 35.5507 72.3561 35.5507 73.1506V80.46Z" fill="#27787D"></path>
<path d="M55.5138 69.127C53.3347 69.127 51.5624 70.9316 51.5624 73.1506V81.7483C51.5624 82.4633 52.1309 83.0365 52.8275 83.0365H58.1945C58.8967 83.0365 59.4596 82.4577 59.4596 81.7483V73.1506C59.4652 70.9316 57.6929 69.127 55.5138 69.127ZM56.9294 80.46H54.0982V73.1506C54.0982 72.3561 54.7336 71.7091 55.5138 71.7091C56.2941 71.7091 56.9294 72.3561 56.9294 73.1506V80.46Z" fill="#27787D"></path>
<path d="M23.0389 30.0596L5.86243 41.1033C5.27167 41.4835 5.09333 42.2837 5.46673 42.8852C5.84013 43.4868 6.62595 43.6684 7.21671 43.2882L20.2691 34.8948L23.0947 36.7335C24.0365 37.3464 25.2571 37.3521 26.2045 36.7335L28.339 35.3431C28.4505 35.2693 28.601 35.2693 28.7124 35.3431L30.8414 36.7335C31.3151 37.0399 31.8557 37.1932 32.3963 37.1932C32.9369 37.1932 33.4775 37.0399 33.9512 36.7335L36.9552 34.7756C36.9607 34.7756 36.9607 34.7699 36.9663 34.7699L54.0815 45.7739C54.2933 45.9101 54.5274 45.9725 54.7559 45.9725C55.1739 45.9725 55.5863 45.7568 55.8315 45.3709C56.2049 44.7694 56.0266 43.9692 55.4358 43.589L34.3804 30.0596C30.9361 27.8463 26.4832 27.8463 23.0389 30.0596ZM32.5802 34.5599C32.4688 34.6337 32.3183 34.6337 32.2068 34.5599L30.0779 33.1695C29.136 32.5566 27.9155 32.5566 26.968 33.1695L24.8335 34.5599C24.722 34.6337 24.5716 34.6337 24.4601 34.5599L22.6377 33.3682L24.3932 32.2388C27.0182 30.5533 30.4067 30.5533 33.0261 32.2388L34.5921 33.2433L32.5802 34.5599Z" fill="#27787D"></path>
<path d="M87.0022 45.3086L65.6792 31.6034C62.3966 29.4922 58.161 29.4922 54.8784 31.6034L49.2551 35.2184C48.6643 35.5986 48.486 36.3988 48.8594 37.0003C49.2328 37.6019 50.0186 37.7835 50.6093 37.4033L52.8163 35.9845C52.8386 36.0015 52.8553 36.0129 52.8776 36.0299L55.5026 37.7438C55.9317 38.0275 56.4277 38.1637 56.9238 38.1637C57.4198 38.1637 57.9102 38.0219 58.3393 37.7438L60.145 36.569C60.1785 36.5463 60.2175 36.5463 60.2509 36.569L62.0511 37.7438C62.9093 38.3056 64.024 38.3056 64.8878 37.7438L67.4236 36.0923C67.5016 36.0413 67.5741 35.9845 67.6354 35.9164L85.6479 47.4992C85.8597 47.6354 86.0937 47.6978 86.3222 47.6978C86.7402 47.6978 87.1527 47.4822 87.3979 47.0963C87.7713 46.489 87.5985 45.6889 87.0022 45.3086ZM63.5224 35.5646C63.489 35.5873 63.4499 35.5873 63.4165 35.5646L61.6164 34.3898C60.7525 33.828 59.6435 33.828 58.7796 34.3898L56.9739 35.5646C56.9405 35.5873 56.9015 35.5873 56.868 35.5646L55.1794 34.4636L56.2327 33.7883C58.6905 32.2106 61.8672 32.2106 64.3249 33.7883L65.2947 34.4125L63.5224 35.5646Z" fill="#27787D"></path>
<path d="M83.3184 49.0543H74.0725C73.3703 49.0543 72.8074 49.6332 72.8074 50.3425V57.0334H64.9213V48.5492C64.9213 47.8342 64.3529 47.261 63.6562 47.261H57.2972C56.595 47.261 56.0321 47.8398 56.0321 48.5492V53.2425C56.0321 53.9576 56.6006 54.5307 57.2972 54.5307C57.9994 54.5307 58.5623 53.9519 58.5623 53.2425V49.8431H62.3855V58.3274C62.3855 59.0424 62.954 59.6156 63.6506 59.6156H74.0725C74.7747 59.6156 75.3376 59.0367 75.3376 58.3274V51.6365H82.0477V59.7915C82.0477 60.5066 82.6162 61.0798 83.3128 61.0798C84.015 61.0798 84.5779 60.5009 84.5779 59.7915V50.3482C84.5835 49.6332 84.0206 49.0543 83.3184 49.0543Z" fill="#27787D"></path>
<path d="M115.062 15.7656L107.531 36.5H104.453L113.125 13.75H115.109L115.062 15.7656ZM121.375 36.5L113.828 15.7656L113.781 13.75H115.766L124.469 36.5H121.375ZM120.984 28.0781V30.5469H108.203V28.0781H120.984ZM127.702 12.5H130.609V33.2188L130.359 36.5H127.702V12.5ZM142.031 27.9062V28.2344C142.031 29.4635 141.885 30.6042 141.593 31.6562C141.301 32.6979 140.874 33.6042 140.312 34.375C139.749 35.1458 139.062 35.7448 138.249 36.1719C137.437 36.599 136.505 36.8125 135.452 36.8125C134.38 36.8125 133.437 36.6302 132.624 36.2656C131.822 35.8906 131.145 35.3542 130.593 34.6562C130.041 33.9583 129.598 33.1146 129.265 32.125C128.942 31.1354 128.718 30.0208 128.593 28.7812V27.3438C128.718 26.0938 128.942 24.974 129.265 23.9844C129.598 22.9948 130.041 22.151 130.593 21.4531C131.145 20.7448 131.822 20.2083 132.624 19.8438C133.426 19.4688 134.359 19.2812 135.421 19.2812C136.484 19.2812 137.426 19.4896 138.249 19.9062C139.072 20.3125 139.76 20.8958 140.312 21.6562C140.874 22.4167 141.301 23.3281 141.593 24.3906C141.885 25.4427 142.031 26.6146 142.031 27.9062ZM139.124 28.2344V27.9062C139.124 27.0625 139.046 26.2708 138.89 25.5312C138.734 24.7812 138.484 24.125 138.14 23.5625C137.796 22.9896 137.343 22.5417 136.781 22.2188C136.218 21.8854 135.525 21.7188 134.702 21.7188C133.973 21.7188 133.338 21.8438 132.796 22.0938C132.265 22.3438 131.812 22.6823 131.437 23.1094C131.062 23.526 130.755 24.0052 130.515 24.5469C130.286 25.0781 130.114 25.6302 129.999 26.2031V29.9688C130.166 30.6979 130.437 31.401 130.812 32.0781C131.197 32.7448 131.708 33.2917 132.343 33.7188C132.989 34.1458 133.786 34.3594 134.734 34.3594C135.515 34.3594 136.182 34.2031 136.734 33.8906C137.296 33.5677 137.749 33.125 138.093 32.5625C138.447 32 138.708 31.349 138.874 30.6094C139.041 29.8698 139.124 29.0781 139.124 28.2344ZM149.217 22.25V36.5H146.327V19.5938H149.139L149.217 22.25ZM154.499 19.5L154.483 22.1875C154.244 22.1354 154.014 22.1042 153.796 22.0938C153.587 22.0729 153.348 22.0625 153.077 22.0625C152.41 22.0625 151.822 22.1667 151.311 22.375C150.801 22.5833 150.369 22.875 150.014 23.25C149.66 23.625 149.379 24.0729 149.171 24.5938C148.973 25.1042 148.842 25.6667 148.78 26.2812L147.967 26.75C147.967 25.7292 148.066 24.7708 148.264 23.875C148.473 22.9792 148.79 22.1875 149.217 21.5C149.645 20.8021 150.186 20.2604 150.842 19.875C151.509 19.4792 152.301 19.2812 153.217 19.2812C153.426 19.2812 153.665 19.3073 153.936 19.3594C154.207 19.401 154.395 19.4479 154.499 19.5ZM156.732 28.2344V27.875C156.732 26.6562 156.91 25.526 157.264 24.4844C157.618 23.4323 158.128 22.5208 158.795 21.75C159.462 20.9688 160.269 20.3646 161.217 19.9375C162.165 19.5 163.227 19.2812 164.404 19.2812C165.592 19.2812 166.66 19.5 167.607 19.9375C168.566 20.3646 169.378 20.9688 170.045 21.75C170.722 22.5208 171.238 23.4323 171.592 24.4844C171.946 25.526 172.123 26.6562 172.123 27.875V28.2344C172.123 29.4531 171.946 30.5833 171.592 31.625C171.238 32.6667 170.722 33.5781 170.045 34.3594C169.378 35.1302 168.571 35.7344 167.623 36.1719C166.686 36.599 165.623 36.8125 164.436 36.8125C163.248 36.8125 162.18 36.599 161.232 36.1719C160.285 35.7344 159.472 35.1302 158.795 34.3594C158.128 33.5781 157.618 32.6667 157.264 31.625C156.91 30.5833 156.732 29.4531 156.732 28.2344ZM159.623 27.875V28.2344C159.623 29.0781 159.722 29.875 159.92 30.625C160.118 31.3646 160.415 32.0208 160.811 32.5938C161.217 33.1667 161.722 33.6198 162.326 33.9531C162.93 34.276 163.634 34.4375 164.436 34.4375C165.227 34.4375 165.92 34.276 166.514 33.9531C167.118 33.6198 167.618 33.1667 168.014 32.5938C168.41 32.0208 168.706 31.3646 168.904 30.625C169.113 29.875 169.217 29.0781 169.217 28.2344V27.875C169.217 27.0417 169.113 26.2552 168.904 25.5156C168.706 24.7656 168.404 24.1042 167.998 23.5312C167.602 22.9479 167.102 22.4896 166.498 22.1562C165.904 21.8229 165.206 21.6562 164.404 21.6562C163.613 21.6562 162.915 21.8229 162.311 22.1562C161.717 22.4896 161.217 22.9479 160.811 23.5312C160.415 24.1042 160.118 24.7656 159.92 25.5156C159.722 26.2552 159.623 27.0417 159.623 27.875ZM186.357 33.6094V24.9062C186.357 24.2396 186.221 23.6615 185.951 23.1719C185.69 22.6719 185.294 22.2865 184.763 22.0156C184.232 21.7448 183.576 21.6094 182.794 21.6094C182.065 21.6094 181.425 21.7344 180.872 21.9844C180.331 22.2344 179.904 22.5625 179.591 22.9688C179.289 23.375 179.138 23.8125 179.138 24.2812H176.247C176.247 23.6771 176.404 23.0781 176.716 22.4844C177.029 21.8906 177.477 21.3542 178.06 20.875C178.654 20.3854 179.362 20 180.185 19.7188C181.018 19.4271 181.945 19.2812 182.966 19.2812C184.195 19.2812 185.279 19.4896 186.216 19.9062C187.164 20.3229 187.904 20.9531 188.435 21.7969C188.977 22.6302 189.247 23.6771 189.247 24.9375V32.8125C189.247 33.375 189.294 33.974 189.388 34.6094C189.492 35.2448 189.643 35.7917 189.841 36.25V36.5H186.826C186.68 36.1667 186.565 35.724 186.482 35.1719C186.399 34.6094 186.357 34.0885 186.357 33.6094ZM186.857 26.25L186.888 28.2812H183.966C183.143 28.2812 182.409 28.349 181.763 28.4844C181.117 28.6094 180.576 28.8021 180.138 29.0625C179.701 29.3229 179.367 29.651 179.138 30.0469C178.909 30.4323 178.794 30.8854 178.794 31.4062C178.794 31.9375 178.914 32.4219 179.154 32.8594C179.393 33.2969 179.753 33.6458 180.232 33.9062C180.721 34.1562 181.32 34.2812 182.029 34.2812C182.914 34.2812 183.695 34.0938 184.372 33.7188C185.05 33.3438 185.586 32.8854 185.982 32.3438C186.388 31.8021 186.607 31.276 186.638 30.7656L187.872 32.1562C187.8 32.5938 187.602 33.0781 187.279 33.6094C186.956 34.1406 186.524 34.651 185.982 35.1406C185.451 35.6198 184.815 36.0208 184.076 36.3438C183.346 36.6562 182.524 36.8125 181.607 36.8125C180.461 36.8125 179.456 36.5885 178.591 36.1406C177.737 35.6927 177.07 35.0938 176.591 34.3438C176.122 33.5833 175.888 32.7344 175.888 31.7969C175.888 30.8906 176.065 30.0938 176.419 29.4062C176.774 28.7083 177.284 28.1302 177.951 27.6719C178.617 27.2031 179.419 26.849 180.357 26.6094C181.294 26.3698 182.341 26.25 183.497 26.25H186.857ZM205.091 33.2188V12.5H207.997V36.5H205.341L205.091 33.2188ZM193.716 28.2344V27.9062C193.716 26.6146 193.872 25.4427 194.184 24.3906C194.507 23.3281 194.96 22.4167 195.544 21.6562C196.137 20.8958 196.841 20.3125 197.653 19.9062C198.476 19.4896 199.393 19.2812 200.403 19.2812C201.466 19.2812 202.393 19.4688 203.184 19.8438C203.986 20.2083 204.664 20.7448 205.216 21.4531C205.778 22.151 206.221 22.9948 206.544 23.9844C206.867 24.974 207.091 26.0938 207.216 27.3438V28.7812C207.101 30.0208 206.877 31.1354 206.544 32.125C206.221 33.1146 205.778 33.9583 205.216 34.6562C204.664 35.3542 203.986 35.8906 203.184 36.2656C202.382 36.6302 201.445 36.8125 200.372 36.8125C199.382 36.8125 198.476 36.599 197.653 36.1719C196.841 35.7448 196.137 35.1458 195.544 34.375C194.96 33.6042 194.507 32.6979 194.184 31.6562C193.872 30.6042 193.716 29.4635 193.716 28.2344ZM196.622 27.9062V28.2344C196.622 29.0781 196.705 29.8698 196.872 30.6094C197.049 31.349 197.32 32 197.684 32.5625C198.049 33.125 198.512 33.5677 199.075 33.8906C199.637 34.2031 200.309 34.3594 201.091 34.3594C202.049 34.3594 202.835 34.1562 203.45 33.75C204.075 33.3438 204.575 32.8073 204.95 32.1406C205.325 31.474 205.617 30.75 205.825 29.9688V26.2031C205.7 25.6302 205.518 25.0781 205.278 24.5469C205.049 24.0052 204.747 23.526 204.372 23.1094C204.007 22.6823 203.554 22.3438 203.012 22.0938C202.481 21.8438 201.851 21.7188 201.122 21.7188C200.33 21.7188 199.648 21.8854 199.075 22.2188C198.512 22.5417 198.049 22.9896 197.684 23.5625C197.32 24.125 197.049 24.7812 196.872 25.5312C196.705 26.2708 196.622 27.0625 196.622 27.9062ZM222.981 32.0156C222.981 31.599 222.887 31.2135 222.699 30.8594C222.522 30.4948 222.152 30.1667 221.59 29.875C221.038 29.5729 220.205 29.3125 219.09 29.0938C218.152 28.8958 217.304 28.6615 216.543 28.3906C215.793 28.1198 215.152 27.7917 214.621 27.4062C214.1 27.0208 213.699 26.5677 213.418 26.0469C213.137 25.526 212.996 24.9167 212.996 24.2188C212.996 23.5521 213.142 22.9219 213.434 22.3281C213.736 21.7344 214.158 21.2083 214.699 20.75C215.251 20.2917 215.913 19.9323 216.684 19.6719C217.455 19.4115 218.314 19.2812 219.262 19.2812C220.616 19.2812 221.772 19.5208 222.731 20C223.689 20.4792 224.423 21.1198 224.934 21.9219C225.444 22.7135 225.699 23.5938 225.699 24.5625H222.809C222.809 24.0938 222.668 23.6406 222.387 23.2031C222.116 22.7552 221.715 22.3854 221.184 22.0938C220.663 21.8021 220.022 21.6562 219.262 21.6562C218.46 21.6562 217.809 21.7812 217.309 22.0312C216.819 22.2708 216.46 22.5781 216.231 22.9531C216.012 23.3281 215.902 23.724 215.902 24.1406C215.902 24.4531 215.955 24.7344 216.059 24.9844C216.173 25.224 216.371 25.4479 216.652 25.6562C216.934 25.8542 217.33 26.0417 217.84 26.2188C218.35 26.3958 219.001 26.5729 219.793 26.75C221.179 27.0625 222.319 27.4375 223.215 27.875C224.111 28.3125 224.777 28.849 225.215 29.4844C225.652 30.1198 225.871 30.8906 225.871 31.7969C225.871 32.5365 225.715 33.2135 225.402 33.8281C225.1 34.4427 224.658 34.974 224.074 35.4219C223.501 35.8594 222.814 36.2031 222.012 36.4531C221.22 36.6927 220.33 36.8125 219.34 36.8125C217.85 36.8125 216.59 36.5469 215.559 36.0156C214.527 35.4844 213.746 34.7969 213.215 33.9531C212.684 33.1094 212.418 32.2188 212.418 31.2812H215.324C215.366 32.0729 215.595 32.7031 216.012 33.1719C216.429 33.6302 216.939 33.9583 217.543 34.1562C218.147 34.3438 218.746 34.4375 219.34 34.4375C220.132 34.4375 220.793 34.3333 221.324 34.125C221.866 33.9167 222.277 33.6302 222.559 33.2656C222.84 32.901 222.981 32.4844 222.981 32.0156ZM115.047 47.75V70.5H112.078V47.75H115.047ZM122.359 47.75V50.2188H104.781V47.75H122.359ZM123.609 62.2344V61.875C123.609 60.6562 123.786 59.526 124.14 58.4844C124.494 57.4323 125.005 56.5208 125.671 55.75C126.338 54.9688 127.145 54.3646 128.093 53.9375C129.041 53.5 130.104 53.2812 131.281 53.2812C132.468 53.2812 133.536 53.5 134.484 53.9375C135.442 54.3646 136.255 54.9688 136.921 55.75C137.598 56.5208 138.114 57.4323 138.468 58.4844C138.822 59.526 138.999 60.6562 138.999 61.875V62.2344C138.999 63.4531 138.822 64.5833 138.468 65.625C138.114 66.6667 137.598 67.5781 136.921 68.3594C136.255 69.1302 135.447 69.7344 134.499 70.1719C133.562 70.599 132.499 70.8125 131.312 70.8125C130.124 70.8125 129.057 70.599 128.109 70.1719C127.161 69.7344 126.348 69.1302 125.671 68.3594C125.005 67.5781 124.494 66.6667 124.14 65.625C123.786 64.5833 123.609 63.4531 123.609 62.2344ZM126.499 61.875V62.2344C126.499 63.0781 126.598 63.875 126.796 64.625C126.994 65.3646 127.291 66.0208 127.687 66.5938C128.093 67.1667 128.598 67.6198 129.202 67.9531C129.807 68.276 130.51 68.4375 131.312 68.4375C132.104 68.4375 132.796 68.276 133.39 67.9531C133.994 67.6198 134.494 67.1667 134.89 66.5938C135.286 66.0208 135.583 65.3646 135.781 64.625C135.989 63.875 136.093 63.0781 136.093 62.2344V61.875C136.093 61.0417 135.989 60.2552 135.781 59.5156C135.583 58.7656 135.281 58.1042 134.874 57.5312C134.479 56.9479 133.979 56.4896 133.374 56.1562C132.781 55.8229 132.083 55.6562 131.281 55.6562C130.489 55.6562 129.791 55.8229 129.187 56.1562C128.593 56.4896 128.093 56.9479 127.687 57.5312C127.291 58.1042 126.994 58.7656 126.796 59.5156C126.598 60.2552 126.499 61.0417 126.499 61.875ZM153.608 66.5938V53.5938H156.514V70.5H153.749L153.608 66.5938ZM154.155 63.0312L155.358 63C155.358 64.125 155.238 65.1667 154.999 66.125C154.77 67.0729 154.395 67.8958 153.874 68.5938C153.353 69.2917 152.671 69.8385 151.827 70.2344C150.983 70.6198 149.957 70.8125 148.749 70.8125C147.926 70.8125 147.171 70.6927 146.483 70.4531C145.806 70.2135 145.223 69.8438 144.733 69.3438C144.244 68.8438 143.863 68.1927 143.592 67.3906C143.332 66.5885 143.202 65.625 143.202 64.5V53.5938H146.092V64.5312C146.092 65.2917 146.176 65.9219 146.342 66.4219C146.52 66.9115 146.754 67.3021 147.046 67.5938C147.348 67.875 147.681 68.0729 148.046 68.1875C148.421 68.3021 148.806 68.3594 149.202 68.3594C150.431 68.3594 151.405 68.125 152.124 67.6562C152.842 67.1771 153.358 66.5365 153.671 65.7344C153.994 64.9219 154.155 64.0208 154.155 63.0312ZM164.451 56.25V70.5H161.561V53.5938H164.373L164.451 56.25ZM169.732 53.5L169.717 56.1875C169.477 56.1354 169.248 56.1042 169.029 56.0938C168.821 56.0729 168.581 56.0625 168.311 56.0625C167.644 56.0625 167.055 56.1667 166.545 56.375C166.035 56.5833 165.602 56.875 165.248 57.25C164.894 57.625 164.613 58.0729 164.404 58.5938C164.206 59.1042 164.076 59.6667 164.014 60.2812L163.201 60.75C163.201 59.7292 163.3 58.7708 163.498 57.875C163.706 56.9792 164.024 56.1875 164.451 55.5C164.878 54.8021 165.42 54.2604 166.076 53.875C166.743 53.4792 167.535 53.2812 168.451 53.2812C168.66 53.2812 168.899 53.3073 169.17 53.3594C169.441 53.401 169.628 53.4479 169.732 53.5ZM182.888 66.0156C182.888 65.599 182.794 65.2135 182.607 64.8594C182.43 64.4948 182.06 64.1667 181.497 63.875C180.945 63.5729 180.112 63.3125 178.997 63.0938C178.06 62.8958 177.211 62.6615 176.451 62.3906C175.701 62.1198 175.06 61.7917 174.529 61.4062C174.008 61.0208 173.607 60.5677 173.326 60.0469C173.044 59.526 172.904 58.9167 172.904 58.2188C172.904 57.5521 173.05 56.9219 173.341 56.3281C173.643 55.7344 174.065 55.2083 174.607 54.75C175.159 54.2917 175.82 53.9323 176.591 53.6719C177.362 53.4115 178.221 53.2812 179.169 53.2812C180.524 53.2812 181.68 53.5208 182.638 54C183.596 54.4792 184.331 55.1198 184.841 55.9219C185.352 56.7135 185.607 57.5938 185.607 58.5625H182.716C182.716 58.0938 182.576 57.6406 182.294 57.2031C182.024 56.7552 181.622 56.3854 181.091 56.0938C180.57 55.8021 179.93 55.6562 179.169 55.6562C178.367 55.6562 177.716 55.7812 177.216 56.0312C176.727 56.2708 176.367 56.5781 176.138 56.9531C175.919 57.3281 175.81 57.724 175.81 58.1406C175.81 58.4531 175.862 58.7344 175.966 58.9844C176.081 59.224 176.279 59.4479 176.56 59.6562C176.841 59.8542 177.237 60.0417 177.747 60.2188C178.258 60.3958 178.909 60.5729 179.701 60.75C181.086 61.0625 182.227 61.4375 183.122 61.875C184.018 62.3125 184.685 62.849 185.122 63.4844C185.56 64.1198 185.779 64.8906 185.779 65.7969C185.779 66.5365 185.622 67.2135 185.31 67.8281C185.008 68.4427 184.565 68.974 183.982 69.4219C183.409 69.8594 182.721 70.2031 181.919 70.4531C181.128 70.6927 180.237 70.8125 179.247 70.8125C177.758 70.8125 176.497 70.5469 175.466 70.0156C174.435 69.4844 173.654 68.7969 173.122 67.9531C172.591 67.1094 172.326 66.2188 172.326 65.2812H175.232C175.274 66.0729 175.503 66.7031 175.919 67.1719C176.336 67.6302 176.846 67.9583 177.451 68.1562C178.055 68.3438 178.654 68.4375 179.247 68.4375C180.039 68.4375 180.701 68.3333 181.232 68.125C181.774 67.9167 182.185 67.6302 182.466 67.2656C182.747 66.901 182.888 66.4844 182.888 66.0156Z" fill="#27787D"></path>
</svg>