<svg xmlns="http://www.w3.org/2000/svg" viewBox="0 0 600 257"><path d="M175.75 24.83v12.56q0 .64-.64.63l-3.68-.07q-.68-.01-.68-.7V6.33a.41.41 0 0 1 .37-.41c5.09-.54 13.69-.57 16.51 4.68 2.77 5.17.67 11.57-5.32 13.31q-.8.23-.31.91l9.18 12.55a.39.39 0 0 1-.31.62l-4.31.02q-.62 0-.98-.51l-8.99-12.93a.46.46 0 0 0-.84.26Zm6.31-13.64q-2.52-1.41-5.98-.94-.45.06-.46.52l-.16 9.01a.9.89 3.1 0 0 .81.9q4.19.38 6.43-1.68c2.3-2.12 2.33-6.16-.64-7.81Z"/><circle cx="243.29" cy="9.25" r="2.91"/><path d="m300.91 17.81 4.3-.08a.31.31 0 0 1 .28.44l-9.93 20.46a.31.31 0 0 1-.56-.01l-5.14-11.86a.31.31 0 0 0-.56-.01l-5.18 11.9a.31.31 0 0 1-.56.02l-9.9-20.29a.31.31 0 0 1 .27-.44l4.33-.13a.31.31 0 0 1 .29.18l4.95 11.06a.31.31 0 0 0 .57-.01l5.22-12.36a.31.31 0 0 1 .58 0l5.19 12.27a.31.31 0 0 0 .56.01l5.01-10.97a.31.31 0 0 1 .28-.18ZM213.7 32.2q.95.51.34 1.4-3.86 5.6-10.8 4.64c-9.57-1.33-10.8-15.27-3.43-19.54 7.59-4.4 14.97 1.07 14.48 9.75q-.03.58-.61.57l-13.02-.07q-.45 0-.52.44c-.9 5.71 7.24 6.78 10.17 1.66q.28-.48.78-.22l2.61 1.37Zm-12.94-6.92 8.4-.17q.81-.02.47-.75c-1.97-4.23-7.6-4.15-9.4.15a.56.56 0 0 0 .53.77ZM270.07 33.74c-9.23 11.46-24.23.16-17.49-11.97 5.02-9.05 18.59-4.22 17.71 6.7q-.05.56-.61.55l-13.02-.07q-.45 0-.52.45c-.89 5.71 7.25 6.76 10.17 1.65q.28-.48.78-.22l2.67 1.41a.99.99 0 0 1 .31 1.5Zm-13.78-9.54q-.69 1.14.64 1.1l8.24-.2q.81-.02.46-.75c-2.07-4.26-6.96-4.06-9.34-.15ZM352.1 24.35c3.08 1.61 8.41 3.34 7.84 7.97-.89 7.29-10.9 8.24-13.9 1.74q-.23-.5.27-.72l2.69-1.17q.62-.26.92.33 1.4 2.71 4.59 1.71.65-.21.66-.89l.01-1.95q0-.58-.5-.85l-6.41-3.49q-.5-.27-.72-.78c-3.36-7.58 6.3-12.7 10.81-5.78q.35.53-.2.85l-2.58 1.49q-.63.37-1-.26c-1.77-3.02-5.65.14-2.48 1.8ZM398.53 27.84a10.69 10.69 0 0 1-10.69 10.69 10.69 10.69 0 0 1-10.69-10.69 10.69 10.69 0 0 1 10.69-10.69 10.69 10.69 0 0 1 10.69 10.69Zm-10.407 6.744a6.72 6.22 87.5 0 0 5.921-6.985 6.72 6.22 87.5 0 0-6.507-6.443 6.72 6.22 87.5 0 0-5.921 6.985 6.72 6.22 87.5 0 0 6.507 6.443ZM404.01 18.4a.58.58 0 0 1 .46-.57q2.55-.59 4.55.94.45.34.9.01c3.33-2.35 7.94-2.01 10.08 1.29 2.22 3.43 1.33 12.87 1.48 17.37q.02.62-.6.6l-3.52-.13q-.65-.02-.65-.67.13-10.3-.01-13.17c-.18-3.72-5.74-3.56-7.26-.94-1.48 2.55-.66 10.88-.72 14.11q-.01.7-.71.71l-3.37.07q-.65.01-.65-.63l.02-18.99ZM227.06 28.77l4.89-10.78a.37.37 0 0 1 .34-.22l4.24-.03a.37.37 0 0 1 .34.54l-9.86 20.15a.37.37 0 0 1-.67 0l-9.66-20.16a.37.37 0 0 1 .33-.53l4.22.03a.37.37 0 0 1 .34.22l4.81 10.78a.37.37 0 0 0 .68 0Z"/><rect width="4.74" height="20.26" x="-2.37" y="-10.13" rx=".87" transform="rotate(.2 -7865.334 69737.103)"/><path d="M323.13 18.23a.52.52 0 0 1 .52-.49l3.33.05q.63.01.65.64c.11 3.09-.7 13.1 1.28 15.04 1.44 1.4 4.56 1.49 5.93-.39 1.54-2.11.97-11.74.99-14.72q0-.63.62-.62l3 .06q.79.01.79.8c.03 4.48 1.06 13.16-1.7 16.78-3.57 4.68-12.86 3.8-14.94-1.94-1.35-3.75-.67-11.06-.47-15.21Z"/><path fill="#3074f2" d="M146.56 144.44c18.22 1.39 32.53-7.91 36.46-25.95a2.05 2.05 0 0 0-2-2.49h-29.85a1.34 1.34 0 0 1-1.34-1.33l-.12-10.65a1.02 1.01-.3 0 1 1.02-1.02h44.25a.88.87 87.1 0 1 .87.79c6.67 60.24-71.13 72.61-93.04 23.15-12.68-28.62 4.54-60.6 34.07-68.5 16.61-4.44 33.22.02 46.04 11.38q.42.38.03.78l-8.06 8.32q-.37.38-.77.05c-13.51-11.2-31.84-12.51-46.04-2.35-27.63 19.79-16.03 65.19 18.48 67.82Z"/><rect width="13.5" height="95.44" x="416.25" y="60.08" fill="#239a40" rx=".3"/><path fill="#e73124" d="M266.35 125.26a32.34 32.34 0 0 1-32.34 32.34 32.34 32.34 0 0 1-32.34-32.34 32.34 32.34 0 0 1 32.34-32.34 32.34 32.34 0 0 1 32.34 32.34Zm-32.4 20.21a20.22 18.83 90.2 0 0 18.9-20.154 20.22 18.83 90.2 0 0-18.76-20.286 20.22 18.83 90.2 0 0-18.9 20.154 20.22 18.83 90.2 0 0 18.76 20.286Z"/><path fill="#fdb000" d="M337.7 125.25a32.46 32.46 0 0 1-32.46 32.46 32.46 32.46 0 0 1-32.46-32.46 32.46 32.46 0 0 1 32.46-32.46 32.46 32.46 0 0 1 32.46 32.46Zm-32.425 20.12a20.15 18.69 89.9 0 0 18.655-20.183 20.15 18.69 89.9 0 0-18.725-20.117 20.15 18.69 89.9 0 0-18.655 20.183 20.15 18.69 89.9 0 0 18.725 20.117Z"/><path fill="#3074f2" d="M392.94 151.59a1 1 0 0 0-1.66-.67c-13.61 12.23-33.1 5.89-42.03-8.41-11.9-19.04-1.41-44.13 20.55-48.81 8.23-1.75 15.6.33 21.55 6.03a1.01 1.01 0 0 0 1.71-.79l-.21-3.19a.7.69-1.9 0 1 .7-.74l11.66-.01q.43 0 .44.44.39 47.53-.09 63.06-.11 3.63-2.74 10.65c-4.57 12.2-18.13 19.73-30.92 17.75q-16.71-2.6-24.72-17.98-.28-.53.27-.76l10.32-4.38q.56-.24.87.29 7.34 13 20.67 10.46c11.95-2.28 14.44-12.43 13.63-22.94Zm-17.146-6.05a20.27 18.21 90.3 0 0 18.316-20.175A20.27 18.21 90.3 0 0 376.006 105a20.27 18.21 90.3 0 0-18.316 20.175 20.27 18.21 90.3 0 0 18.104 20.365Z"/><path fill="#e73124" d="M452.82 134.59a.99.98 61.8 0 0-.44 1.46c2.83 4.18 5.75 7.53 10.82 8.78q12.88 3.18 21.22-7.79.27-.35.63-.11l9.61 6.47q.34.23.09.57c-9.34 12.4-24.25 16.81-38.68 11.06-21.01-8.36-25.86-38.7-8.93-54.43 7.48-6.94 19.29-9.53 29.11-5.98 9.46 3.42 16.26 12.25 19.16 21.76q.14.44-.29.61l-42.3 17.6Zm26.63-23.17c-9.6-14-29.53-3.09-29.21 11.97a.71.71 0 0 0 .98.63l27.94-11.62a.66.66 0 0 0 .29-.98Z"/><path fill="#ffd201" d="m191.53 209.26 19.15-.03a.34.34 0 0 1 .2.61l-15.51 11.23a.34.34 0 0 0-.13.38l5.96 18.2a.34.34 0 0 1-.53.38l-15.47-11.28a.34.34 0 0 0-.4 0l-15.47 11.28a.34.34 0 0 1-.53-.38l5.96-18.2a.34.34 0 0 0-.13-.38l-15.51-11.23a.34.34 0 0 1 .2-.61l19.15.03a.34.34 0 0 0 .32-.23l5.89-18.23a.34.34 0 0 1 .64 0l5.89 18.23a.34.34 0 0 0 .32.23ZM247.39 209.28l19.24-.03a.31.31 0 0 1 .18.57l-15.58 11.28a.31.31 0 0 0-.11.35l5.97 18.29a.31.31 0 0 1-.48.34l-15.55-11.33a.31.31 0 0 0-.36 0l-15.55 11.33a.31.31 0 0 1-.48-.34l5.97-18.29a.31.31 0 0 0-.11-.35l-15.58-11.28a.31.31 0 0 1 .18-.57l19.24.03a.31.31 0 0 0 .3-.21l5.92-18.31a.31.31 0 0 1 .58 0l5.92 18.31a.31.31 0 0 0 .3.21ZM303.28 209.26l19.27-.03a.31.31 0 0 1 .19.56l-15.62 11.3a.31.31 0 0 0-.11.35l5.99 18.33a.31.31 0 0 1-.48.34l-15.58-11.36a.31.31 0 0 0-.36 0L281 240.11a.31.31 0 0 1-.48-.34l5.99-18.33a.31.31 0 0 0-.11-.35l-15.62-11.3a.31.31 0 0 1 .19-.56l19.27.03a.31.31 0 0 0 .3-.21l5.93-18.35a.31.31 0 0 1 .58 0l5.93 18.35a.31.31 0 0 0 .3.21ZM359.15 209.27h19.19a.31.31 0 0 1 .19.56L363 221.11a.31.31 0 0 0-.11.34l5.93 18.26a.31.31 0 0 1-.48.34l-15.53-11.28a.31.31 0 0 0-.36 0l-15.53 11.28a.31.31 0 0 1-.48-.34l5.93-18.26a.31.31 0 0 0-.11-.34l-15.53-11.28a.31.31 0 0 1 .19-.56h19.19a.31.31 0 0 0 .29-.22l5.94-18.25a.31.31 0 0 1 .58 0l5.94 18.25a.31.31 0 0 0 .29.22ZM414.88 209.17l19.22-.13a.34.34 0 0 1 .2.61l-15.58 11.25a.34.34 0 0 0-.13.38l6.07 18.24a.34.34 0 0 1-.53.38l-15.51-11.34a.34.34 0 0 0-.4 0l-15.48 11.4a.34.34 0 0 1-.52-.38l6-18.26a.34.34 0 0 0-.13-.38l-15.62-11.2a.34.34 0 0 1 .2-.61l19.22.06a.34.34 0 0 0 .32-.24l5.82-18.32a.34.34 0 0 1 .65 0l5.88 18.3a.34.34 0 0 0 .32.24Z"/></svg>