<?xml version="1.0" encoding="UTF-8" standalone="no"?><!-- Generator: Gravit.io --><svg xmlns="http://www.w3.org/2000/svg" xmlns:xlink="http://www.w3.org/1999/xlink" style="isolation:isolate" viewBox="0 0 228.4 96.2" width="228.4pt" height="96.2pt"><defs><clipPath id="_clipPath_yvB9RRCPS4WJEOHWWpOm5LoyxGUjfsdq"><rect width="228.4" height="96.2"/></clipPath></defs><g clip-path="url(#_clipPath_yvB9RRCPS4WJEOHWWpOm5LoyxGUjfsdq)"><clipPath id="_clipPath_qshw0jDCFP9lyUuC4MIvgWSo40MMyt4P"><rect x="0" y="0" width="228.4" height="96.2" transform="matrix(1,0,0,1,0,0)" fill="rgb(255,255,255)"/></clipPath><g clip-path="url(#_clipPath_qshw0jDCFP9lyUuC4MIvgWSo40MMyt4P)"><g><g><g><clipPath id="_clipPath_u5k4YWjCq6cyP2RZt1fzKhip7jaNUCmO"><path d=" M 76.213 43.222 L 51.214 43.222 L 51.214 53.588 L 65.604 53.588 C 64.262 60.173 58.653 63.953 51.214 63.953 C 42.434 63.953 35.361 56.88 35.361 48.1 C 35.361 39.32 42.434 32.247 51.214 32.247 C 54.995 32.247 58.41 33.588 61.092 35.784 L 68.897 27.979 C 64.14 23.833 58.043 21.272 51.214 21.272 C 36.336 21.272 24.386 33.222 24.386 48.1 C 24.386 62.978 36.336 74.928 51.214 74.928 C 64.629 74.928 76.823 65.173 76.823 48.1 C 76.823 46.514 76.579 44.808 76.213 43.222 Z " fill="rgb(255,255,255)"/></clipPath><g clip-path="url(#_clipPath_u5k4YWjCq6cyP2RZt1fzKhip7jaNUCmO)"><g><path d=" M 21.947 63.953 L 21.947 32.247 L 42.678 48.1 L 21.947 63.953 Z " fill="rgb(251,188,5)"/></g></g></g><g><clipPath id="_clipPath_zGQAvPZ38013H1YwFBxLbF89XtKdLKLI"><path d=" M 76.213 43.222 L 51.214 43.222 L 51.214 53.588 L 65.604 53.588 C 64.262 60.173 58.653 63.953 51.214 63.953 C 42.434 63.953 35.361 56.88 35.361 48.1 C 35.361 39.32 42.434 32.247 51.214 32.247 C 54.995 32.247 58.41 33.588 61.092 35.784 L 68.897 27.979 C 64.14 23.833 58.043 21.272 51.214 21.272 C 36.336 21.272 24.386 33.222 24.386 48.1 C 24.386 62.978 36.336 74.928 51.214 74.928 C 64.629 74.928 76.823 65.173 76.823 48.1 C 76.823 46.514 76.579 44.808 76.213 43.222 Z " fill="rgb(255,255,255)"/></clipPath><g clip-path="url(#_clipPath_zGQAvPZ38013H1YwFBxLbF89XtKdLKLI)"><g><path d=" M 21.947 32.247 L 42.678 48.1 L 51.214 40.662 L 80.482 35.905 L 80.482 18.833 L 21.947 18.833 L 21.947 32.247 Z " fill="rgb(234,67,53)"/></g></g></g><g><clipPath id="_clipPath_Kt4BIPOnotR8MhfJZ9I33XmD2t8Qut09"><path d=" M 76.213 43.222 L 51.214 43.222 L 51.214 53.588 L 65.604 53.588 C 64.262 60.173 58.653 63.953 51.214 63.953 C 42.434 63.953 35.361 56.88 35.361 48.1 C 35.361 39.32 42.434 32.247 51.214 32.247 C 54.995 32.247 58.41 33.588 61.092 35.784 L 68.897 27.979 C 64.14 23.833 58.043 21.272 51.214 21.272 C 36.336 21.272 24.386 33.222 24.386 48.1 C 24.386 62.978 36.336 74.928 51.214 74.928 C 64.629 74.928 76.823 65.173 76.823 48.1 C 76.823 46.514 76.579 44.808 76.213 43.222 Z " fill="rgb(255,255,255)"/></clipPath><g clip-path="url(#_clipPath_Kt4BIPOnotR8MhfJZ9I33XmD2t8Qut09)"><g><path d=" M 21.947 63.953 L 58.531 35.905 L 68.165 37.125 L 80.482 18.833 L 80.482 77.367 L 21.947 77.367 L 21.947 63.953 Z " fill="rgb(52,168,83)"/></g></g></g><g><clipPath id="_clipPath_4nVJOMEoZ1RVgTOJVSz2AqGsCyxgFTYA"><path d=" M 76.213 43.222 L 51.214 43.222 L 51.214 53.588 L 65.604 53.588 C 64.262 60.173 58.653 63.953 51.214 63.953 C 42.434 63.953 35.361 56.88 35.361 48.1 C 35.361 39.32 42.434 32.247 51.214 32.247 C 54.995 32.247 58.41 33.588 61.092 35.784 L 68.897 27.979 C 64.14 23.833 58.043 21.272 51.214 21.272 C 36.336 21.272 24.386 33.222 24.386 48.1 C 24.386 62.978 36.336 74.928 51.214 74.928 C 64.629 74.928 76.823 65.173 76.823 48.1 C 76.823 46.514 76.579 44.808 76.213 43.222 Z " fill="rgb(255,255,255)"/></clipPath><g clip-path="url(#_clipPath_4nVJOMEoZ1RVgTOJVSz2AqGsCyxgFTYA)"><g><path d=" M 80.482 77.367 L 42.678 48.1 L 37.8 44.441 L 80.482 32.247 L 80.482 77.367 Z " fill="rgb(66,133,244)"/></g></g></g><g><path d=" M 96.457 47.856 L 92.676 42.368 L 92.433 42.368 L 88.53 42.368 L 88.53 47.856 L 84.018 47.856 L 84.018 28.223 L 92.555 28.223 C 97.798 28.223 101.09 30.906 101.09 35.295 C 101.09 38.222 99.627 40.417 97.066 41.515 L 101.457 47.856 L 96.457 47.856 Z  M 92.188 31.881 L 88.53 31.881 L 88.53 38.71 L 92.188 38.71 C 94.993 38.71 96.335 37.368 96.335 35.295 C 96.335 33.101 94.871 31.881 92.188 31.881 Z " fill="rgb(46,32,87)"/><path d=" M 118.895 41.515 L 107.432 41.515 C 107.798 43.344 109.505 44.563 111.7 44.563 C 113.286 44.563 114.505 44.076 115.481 43.1 L 117.797 45.661 C 116.334 47.246 114.261 48.1 111.578 48.1 C 106.335 48.1 102.92 44.808 102.92 40.295 C 102.92 35.784 106.335 32.49 110.968 32.49 C 115.359 32.49 118.773 35.417 118.773 40.295 C 119.017 40.662 118.895 41.149 118.895 41.515 Z  M 107.432 38.954 L 114.871 38.954 C 114.505 37.003 113.163 35.784 111.213 35.784 C 109.139 35.784 107.798 37.003 107.432 38.954 Z " fill="rgb(46,32,87)"/><path d=" M 136.577 32.735 L 130.236 47.856 L 125.724 47.856 L 119.383 32.735 L 123.895 32.735 L 128.041 42.978 L 132.309 32.735 L 136.577 32.735 Z " fill="rgb(46,32,87)"/><path d=" M 137.919 28.223 C 137.919 26.881 139.016 25.784 140.602 25.784 C 142.187 25.784 143.285 26.76 143.285 28.101 C 143.285 29.564 142.187 30.661 140.602 30.661 C 139.016 30.661 137.919 29.564 137.919 28.223 Z  M 138.407 32.735 L 142.796 32.735 L 142.796 47.856 L 138.407 47.856 L 138.407 32.735 Z " fill="rgb(46,32,87)"/><path d=" M 161.576 41.515 L 150.114 41.515 C 150.479 43.344 152.187 44.563 154.382 44.563 C 155.967 44.563 157.187 44.076 158.162 43.1 L 160.479 45.661 C 159.015 47.246 156.942 48.1 154.26 48.1 C 149.016 48.1 145.601 44.808 145.601 40.295 C 145.601 35.784 149.016 32.49 153.65 32.49 C 158.04 32.49 161.455 35.417 161.455 40.295 C 161.576 40.662 161.576 41.149 161.576 41.515 Z  M 150.114 38.954 L 157.552 38.954 C 157.187 37.003 155.845 35.784 153.894 35.784 C 151.821 35.784 150.358 37.003 150.114 38.954 Z " fill="rgb(46,32,87)"/><path d=" M 188.527 32.735 L 183.04 47.856 L 178.893 47.856 L 175.479 38.466 L 171.942 47.856 L 167.796 47.856 L 162.308 32.735 L 166.454 32.735 L 169.99 42.978 L 173.649 32.735 L 177.308 32.735 L 180.844 42.978 L 184.503 32.735 L 188.527 32.735 Z " fill="rgb(46,32,87)"/><path d=" M 188.892 46.393 L 190.356 43.222 C 191.697 44.076 193.77 44.686 195.6 44.686 C 197.673 44.686 198.405 44.198 198.405 43.344 C 198.405 40.905 189.259 43.344 189.259 37.368 C 189.259 34.564 191.819 32.49 196.21 32.49 C 198.283 32.49 200.6 32.979 202.063 33.832 L 200.6 37.003 C 199.137 36.149 197.673 35.905 196.21 35.905 C 194.259 35.905 193.405 36.515 193.405 37.247 C 193.405 39.808 202.551 37.368 202.551 43.222 C 202.551 46.027 199.99 47.978 195.478 47.978 C 192.795 48.1 190.234 47.368 188.892 46.393 Z " fill="rgb(46,32,87)"/></g><path d=" M 91.701 59.441 L 95.359 52.49 L 99.139 59.441 L 106.457 60.661 L 101.335 66.026 L 102.188 74.197 L 95.359 70.782 L 88.408 74.318 L 89.261 66.026 L 83.896 60.661 L 91.701 59.441 Z " fill="rgb(252,176,2)"/><path d=" M 116.09 59.441 L 119.749 52.49 L 123.529 59.441 L 130.846 60.661 L 125.724 66.026 L 126.578 74.197 L 119.749 70.782 L 112.798 74.318 L 113.651 66.026 L 108.286 60.661 L 116.09 59.441 Z " fill="rgb(252,176,2)"/><path d=" M 140.48 59.441 L 144.138 52.49 L 147.918 59.441 L 155.236 60.661 L 150.114 66.026 L 150.967 74.197 L 144.138 70.782 L 137.187 74.318 L 138.04 66.026 L 132.675 60.661 L 140.48 59.441 Z " fill="rgb(252,176,2)"/><path d=" M 164.869 59.441 L 168.528 52.49 L 172.308 59.441 L 179.625 60.661 L 174.503 66.026 L 175.357 74.197 L 168.528 70.782 L 161.576 74.318 L 162.43 66.026 L 157.065 60.661 L 164.869 59.441 Z " fill="rgb(252,176,2)"/><path d=" M 189.259 59.441 L 192.917 52.49 L 196.697 59.441 L 204.014 60.661 L 198.892 66.026 L 199.746 74.197 L 192.917 70.782 L 185.966 74.318 L 186.819 66.026 L 181.454 60.661 L 189.259 59.441 Z " fill="rgb(252,176,2)"/></g></g></g></g></svg>