<svg xmlns:xlink="http://www.w3.org/1999/xlink" width="251" height="60" viewBox="0 0 251 60" fill="none" xmlns="http://www.w3.org/2000/svg">
<path d="M4.96875 17.0977C6.78516 13.3126 9.35156 10.1134 12.5859 7.45321C16.9688 3.83212 21.9961 1.65243 27.6328 0.984461C34.2539 0.199305 40.4766 1.45321 46.2305 4.89852C47.6602 5.75399 48.9961 6.72665 50.2734 7.78134C50.5898 8.03915 50.5547 8.19149 50.2852 8.44931C47.6719 11.0509 45.0586 13.6524 42.4688 16.2774C42.1641 16.5821 42 16.5587 41.6719 16.3126C34.0781 10.4649 23.0039 12.047 17.3438 19.7813C16.3477 21.1407 15.5391 22.6056 14.9766 24.1993C14.9297 24.3399 14.8359 24.4688 14.7656 24.6095C13.2539 23.461 11.7305 22.3126 10.2305 21.1524C8.47266 19.8048 6.71484 18.4571 4.96875 17.0977Z" fill="#E94335"></path>
<path d="M14.7656 35.6016C15.2695 36.7148 15.6914 37.875 16.3242 38.918C18.9844 43.2773 22.7812 46.0781 27.7852 47.0742C32.2969 47.9766 36.6328 47.3672 40.6758 45.1055C40.8164 45.0352 40.957 44.9648 41.0859 44.8945C41.1563 44.9648 41.2148 45.0469 41.2852 45.1055C44.3086 47.4492 47.3438 49.793 50.3672 52.1367C48.9141 53.5781 47.2617 54.7383 45.5039 55.7461C40.4062 58.6523 34.8867 59.8242 29.0742 59.3789C21.832 58.8164 15.5859 55.957 10.4297 50.8008C8.16797 48.5391 6.30469 45.9844 4.95703 43.0664C6.21094 42.1055 7.46484 41.1563 8.71875 40.1953C10.7344 38.6602 12.75 37.1367 14.7656 35.6016Z" fill="#34A853"></path>
<path d="M50.3788 52.1367C47.3554 49.793 44.3202 47.4492 41.2968 45.1055C41.2265 45.0469 41.1562 44.9648 41.0976 44.8945C42.1405 44.0859 43.207 43.3008 44.0624 42.2695C45.4921 40.5586 46.4413 38.625 46.9335 36.457C46.9921 36.1875 46.9452 36.0938 46.6757 36.1055C46.5351 36.1172 46.4062 36.1055 46.2655 36.1055C41.4843 36.1055 36.6913 36.0938 31.9101 36.1172C31.3827 36.1172 31.2655 35.9766 31.2773 35.4727C31.3007 32.0742 31.3007 28.6758 31.2773 25.2773C31.2773 24.8437 31.3945 24.7266 31.828 24.7266C40.5937 24.7383 49.3593 24.7383 58.1366 24.7266C58.5116 24.7266 58.664 24.8203 58.7577 25.2187C59.4726 28.4414 59.4257 31.6758 58.9921 34.9336C58.6405 37.5352 58.0077 40.0547 57.0351 42.4922C55.5937 46.0898 53.4726 49.2305 50.6835 51.9258C50.578 52.0078 50.4726 52.0664 50.3788 52.1367Z" fill="#4285F3"></path>
<path d="M14.7656 35.6016C12.75 37.1367 10.7343 38.6602 8.71872 40.1953C7.46481 41.1445 6.21091 42.1055 4.957 43.0664C3.98434 41.2617 3.35153 39.3516 2.83591 37.3828C1.85153 33.5742 1.69919 29.707 2.23825 25.8281C2.66013 22.7812 3.53903 19.8516 4.957 17.1094C6.71481 18.457 8.46091 19.8164 10.2187 21.1641C11.7304 22.3242 13.2422 23.4727 14.7539 24.6211C14.4961 25.875 14.1328 27.1055 14.0156 28.3945C13.8047 30.7383 14.0273 33.0234 14.6953 35.2734C14.7422 35.3672 14.7539 35.4844 14.7656 35.6016Z" fill="#FABB06"></path>
<path d="M86.404 10.09C86.08 9.466 85.63 8.998 85.054 8.686C84.478 8.362 83.812 8.2 83.056 8.2C82.228 8.2 81.49 8.386 80.842 8.758C80.194 9.13 79.684 9.658 79.312 10.342C78.952 11.026 78.772 11.818 78.772 12.718C78.772 13.618 78.952 14.416 79.312 15.112C79.684 15.796 80.194 16.324 80.842 16.696C81.49 17.068 82.228 17.254 83.056 17.254C84.172 17.254 85.078 16.942 85.774 16.318C86.47 15.694 86.896 14.848 87.052 13.78H82.354V12.142H89.248V13.744C89.116 14.716 88.768 15.61 88.204 16.426C87.652 17.242 86.926 17.896 86.026 18.388C85.138 18.868 84.148 19.108 83.056 19.108C81.88 19.108 80.806 18.838 79.834 18.298C78.862 17.746 78.088 16.984 77.512 16.012C76.948 15.04 76.666 13.942 76.666 12.718C76.666 11.494 76.948 10.396 77.512 9.424C78.088 8.452 78.862 7.696 79.834 7.156C80.818 6.604 81.892 6.328 83.056 6.328C84.388 6.328 85.57 6.658 86.602 7.318C87.646 7.966 88.402 8.89 88.87 10.09H86.404ZM95.9339 19.162C94.9979 19.162 94.1519 18.952 93.3959 18.532C92.6399 18.1 92.0459 17.5 91.6139 16.732C91.1819 15.952 90.9659 15.052 90.9659 14.032C90.9659 13.024 91.1879 12.13 91.6319 11.35C92.0759 10.57 92.6819 9.97 93.4499 9.55C94.2179 9.13 95.0759 8.92 96.0239 8.92C96.9719 8.92 97.8299 9.13 98.5979 9.55C99.3659 9.97 99.9719 10.57 100.416 11.35C100.86 12.13 101.082 13.024 101.082 14.032C101.082 15.04 100.854 15.934 100.398 16.714C99.9419 17.494 99.3179 18.1 98.5259 18.532C97.7459 18.952 96.8819 19.162 95.9339 19.162ZM95.9339 17.38C96.4619 17.38 96.9539 17.254 97.4099 17.002C97.8779 16.75 98.2559 16.372 98.5439 15.868C98.8319 15.364 98.9759 14.752 98.9759 14.032C98.9759 13.312 98.8379 12.706 98.5619 12.214C98.2859 11.71 97.9199 11.332 97.4639 11.08C97.0079 10.828 96.5159 10.702 95.9879 10.702C95.4599 10.702 94.9679 10.828 94.5119 11.08C94.0679 11.332 93.7139 11.71 93.4499 12.214C93.1859 12.706 93.0539 13.312 93.0539 14.032C93.0539 15.1 93.3239 15.928 93.8639 16.516C94.4159 17.092 95.1059 17.38 95.9339 17.38ZM107.772 19.162C106.836 19.162 105.99 18.952 105.234 18.532C104.478 18.1 103.884 17.5 103.452 16.732C103.02 15.952 102.804 15.052 102.804 14.032C102.804 13.024 103.026 12.13 103.47 11.35C103.914 10.57 104.52 9.97 105.288 9.55C106.056 9.13 106.914 8.92 107.862 8.92C108.81 8.92 109.668 9.13 110.436 9.55C111.204 9.97 111.81 10.57 112.254 11.35C112.698 12.13 112.92 13.024 112.92 14.032C112.92 15.04 112.692 15.934 112.236 16.714C111.78 17.494 111.156 18.1 110.364 18.532C109.584 18.952 108.72 19.162 107.772 19.162ZM107.772 17.38C108.3 17.38 108.792 17.254 109.248 17.002C109.716 16.75 110.094 16.372 110.382 15.868C110.67 15.364 110.814 14.752 110.814 14.032C110.814 13.312 110.676 12.706 110.4 12.214C110.124 11.71 109.758 11.332 109.302 11.08C108.846 10.828 108.354 10.702 107.826 10.702C107.298 10.702 106.806 10.828 106.35 11.08C105.906 11.332 105.552 11.71 105.288 12.214C105.024 12.706 104.892 13.312 104.892 14.032C104.892 15.1 105.162 15.928 105.702 16.516C106.254 17.092 106.944 17.38 107.772 17.38ZM119.305 8.92C120.073 8.92 120.751 9.076 121.339 9.388C121.939 9.688 122.407 10.066 122.743 10.522V9.082H124.813V19.162C124.813 20.074 124.621 20.884 124.237 21.592C123.853 22.312 123.295 22.876 122.563 23.284C121.843 23.692 120.979 23.896 119.971 23.896C118.627 23.896 117.511 23.578 116.623 22.942C115.735 22.318 115.231 21.466 115.111 20.386H117.145C117.301 20.902 117.631 21.316 118.135 21.628C118.651 21.952 119.263 22.114 119.971 22.114C120.799 22.114 121.465 21.862 121.969 21.358C122.485 20.854 122.743 20.122 122.743 19.162V17.506C122.395 17.974 121.921 18.37 121.321 18.694C120.733 19.006 120.061 19.162 119.305 19.162C118.441 19.162 117.649 18.946 116.929 18.514C116.221 18.07 115.657 17.458 115.237 16.678C114.829 15.886 114.625 14.992 114.625 13.996C114.625 13 114.829 12.118 115.237 11.35C115.657 10.582 116.221 9.988 116.929 9.568C117.649 9.136 118.441 8.92 119.305 8.92ZM122.743 14.032C122.743 13.348 122.599 12.754 122.311 12.25C122.035 11.746 121.669 11.362 121.213 11.098C120.757 10.834 120.265 10.702 119.737 10.702C119.209 10.702 118.717 10.834 118.261 11.098C117.805 11.35 117.433 11.728 117.145 12.232C116.869 12.724 116.731 13.312 116.731 13.996C116.731 14.68 116.869 15.28 117.145 15.796C117.433 16.312 117.805 16.708 118.261 16.984C118.729 17.248 119.221 17.38 119.737 17.38C120.265 17.38 120.757 17.248 121.213 16.984C121.669 16.72 122.035 16.336 122.311 15.832C122.599 15.316 122.743 14.716 122.743 14.032ZM129.92 5.68V19H127.868V5.68H129.92ZM142.064 13.798C142.064 14.17 142.04 14.506 141.992 14.806H134.414C134.474 15.598 134.768 16.234 135.296 16.714C135.824 17.194 136.472 17.434 137.24 17.434C138.344 17.434 139.124 16.972 139.58 16.048H141.794C141.494 16.96 140.948 17.71 140.156 18.298C139.376 18.874 138.404 19.162 137.24 19.162C136.292 19.162 135.44 18.952 134.684 18.532C133.94 18.1 133.352 17.5 132.92 16.732C132.5 15.952 132.29 15.052 132.29 14.032C132.29 13.012 132.494 12.118 132.902 11.35C133.322 10.57 133.904 9.97 134.648 9.55C135.404 9.13 136.268 8.92 137.24 8.92C138.176 8.92 139.01 9.124 139.742 9.532C140.474 9.94 141.044 10.516 141.452 11.26C141.86 11.992 142.064 12.838 142.064 13.798ZM139.922 13.15C139.91 12.394 139.64 11.788 139.112 11.332C138.584 10.876 137.93 10.648 137.15 10.648C136.442 10.648 135.836 10.876 135.332 11.332C134.828 11.776 134.528 12.382 134.432 13.15H139.922ZM151.531 10.522C151.831 10.018 152.227 9.628 152.719 9.352C153.223 9.064 153.817 8.92 154.501 8.92V11.044H153.979C153.175 11.044 152.563 11.248 152.143 11.656C151.735 12.064 151.531 12.772 151.531 13.78V19H149.479V9.082H151.531V10.522ZM156.064 13.996C156.064 13 156.268 12.118 156.676 11.35C157.096 10.582 157.66 9.988 158.368 9.568C159.088 9.136 159.88 8.92 160.744 8.92C161.524 8.92 162.202 9.076 162.778 9.388C163.366 9.688 163.834 10.066 164.182 10.522V9.082H166.252V19H164.182V17.524C163.834 17.992 163.36 18.382 162.76 18.694C162.16 19.006 161.476 19.162 160.708 19.162C159.856 19.162 159.076 18.946 158.368 18.514C157.66 18.07 157.096 17.458 156.676 16.678C156.268 15.886 156.064 14.992 156.064 13.996ZM164.182 14.032C164.182 13.348 164.038 12.754 163.75 12.25C163.474 11.746 163.108 11.362 162.652 11.098C162.196 10.834 161.704 10.702 161.176 10.702C160.648 10.702 160.156 10.834 159.7 11.098C159.244 11.35 158.872 11.728 158.584 12.232C158.308 12.724 158.17 13.312 158.17 13.996C158.17 14.68 158.308 15.28 158.584 15.796C158.872 16.312 159.244 16.708 159.7 16.984C160.168 17.248 160.66 17.38 161.176 17.38C161.704 17.38 162.196 17.248 162.652 16.984C163.108 16.72 163.474 16.336 163.75 15.832C164.038 15.316 164.182 14.716 164.182 14.032ZM171.701 10.756V16.246C171.701 16.618 171.785 16.888 171.953 17.056C172.133 17.212 172.433 17.29 172.853 17.29H174.113V19H172.493C171.569 19 170.861 18.784 170.369 18.352C169.877 17.92 169.631 17.218 169.631 16.246V10.756H168.461V9.082H169.631V6.616H171.701V9.082H174.113V10.756H171.701ZM177.408 7.768C177.036 7.768 176.724 7.642 176.472 7.39C176.22 7.138 176.094 6.826 176.094 6.454C176.094 6.082 176.22 5.77 176.472 5.518C176.724 5.266 177.036 5.14 177.408 5.14C177.768 5.14 178.074 5.266 178.326 5.518C178.578 5.77 178.704 6.082 178.704 6.454C178.704 6.826 178.578 7.138 178.326 7.39C178.074 7.642 177.768 7.768 177.408 7.768ZM178.416 9.082V19H176.364V9.082H178.416ZM186.474 8.92C187.254 8.92 187.95 9.082 188.562 9.406C189.186 9.73 189.672 10.21 190.02 10.846C190.368 11.482 190.542 12.25 190.542 13.15V19H188.508V13.456C188.508 12.568 188.286 11.89 187.842 11.422C187.398 10.942 186.792 10.702 186.024 10.702C185.256 10.702 184.644 10.942 184.188 11.422C183.744 11.89 183.522 12.568 183.522 13.456V19H181.47V9.082H183.522V10.216C183.858 9.808 184.284 9.49 184.8 9.262C185.328 9.034 185.886 8.92 186.474 8.92ZM197.516 8.92C198.284 8.92 198.962 9.076 199.55 9.388C200.15 9.688 200.618 10.066 200.954 10.522V9.082H203.024V19.162C203.024 20.074 202.832 20.884 202.448 21.592C202.064 22.312 201.506 22.876 200.774 23.284C200.054 23.692 199.19 23.896 198.182 23.896C196.838 23.896 195.722 23.578 194.834 22.942C193.946 22.318 193.442 21.466 193.322 20.386H195.356C195.512 20.902 195.842 21.316 196.346 21.628C196.862 21.952 197.474 22.114 198.182 22.114C199.01 22.114 199.676 21.862 200.18 21.358C200.696 20.854 200.954 20.122 200.954 19.162V17.506C200.606 17.974 200.132 18.37 199.532 18.694C198.944 19.006 198.272 19.162 197.516 19.162C196.652 19.162 195.86 18.946 195.14 18.514C194.432 18.07 193.868 17.458 193.448 16.678C193.04 15.886 192.836 14.992 192.836 13.996C192.836 13 193.04 12.118 193.448 11.35C193.868 10.582 194.432 9.988 195.14 9.568C195.86 9.136 196.652 8.92 197.516 8.92ZM200.954 14.032C200.954 13.348 200.81 12.754 200.522 12.25C200.246 11.746 199.88 11.362 199.424 11.098C198.968 10.834 198.476 10.702 197.948 10.702C197.42 10.702 196.928 10.834 196.472 11.098C196.016 11.35 195.644 11.728 195.356 12.232C195.08 12.724 194.942 13.312 194.942 13.996C194.942 14.68 195.08 15.28 195.356 15.796C195.644 16.312 196.016 16.708 196.472 16.984C196.94 17.248 197.432 17.38 197.948 17.38C198.476 17.38 198.968 17.248 199.424 16.984C199.88 16.72 200.246 16.336 200.522 15.832C200.81 15.316 200.954 14.716 200.954 14.032Z" fill="#FFFFFF"></path>
<path d="M85.54 42.642H79.51V46.224C79.762 45.888 80.134 45.606 80.626 45.378C81.13 45.15 81.664 45.036 82.228 45.036C83.236 45.036 84.052 45.252 84.676 45.684C85.312 46.116 85.762 46.662 86.026 47.322C86.302 47.982 86.44 48.678 86.44 49.41C86.44 50.298 86.266 51.09 85.918 51.786C85.582 52.47 85.072 53.01 84.388 53.406C83.716 53.802 82.888 54 81.904 54C80.596 54 79.546 53.676 78.754 53.028C77.962 52.38 77.488 51.522 77.332 50.454H79.33C79.462 51.018 79.756 51.468 80.212 51.804C80.668 52.128 81.238 52.29 81.922 52.29C82.774 52.29 83.41 52.032 83.83 51.516C84.262 51 84.478 50.316 84.478 49.464C84.478 48.6 84.262 47.94 83.83 47.484C83.398 47.016 82.762 46.782 81.922 46.782C81.334 46.782 80.836 46.932 80.428 47.232C80.032 47.52 79.744 47.916 79.564 48.42H77.62V40.842H85.54V42.642ZM90.0341 54.126C89.6621 54.126 89.3501 54 89.0981 53.748C88.8461 53.496 88.7201 53.184 88.7201 52.812C88.7201 52.44 88.8461 52.128 89.0981 51.876C89.3501 51.624 89.6621 51.498 90.0341 51.498C90.3941 51.498 90.7001 51.624 90.9521 51.876C91.2041 52.128 91.3301 52.44 91.3301 52.812C91.3301 53.184 91.2041 53.496 90.9521 53.748C90.7001 54 90.3941 54.126 90.0341 54.126ZM93.6379 47.268C93.6379 45.192 93.9859 43.572 94.6819 42.408C95.3899 41.232 96.6019 40.644 98.3179 40.644C100.034 40.644 101.24 41.232 101.936 42.408C102.644 43.572 102.998 45.192 102.998 47.268C102.998 49.368 102.644 51.012 101.936 52.2C101.24 53.376 100.034 53.964 98.3179 53.964C96.6019 53.964 95.3899 53.376 94.6819 52.2C93.9859 51.012 93.6379 49.368 93.6379 47.268ZM100.982 47.268C100.982 46.296 100.916 45.474 100.784 44.802C100.664 44.13 100.412 43.584 100.028 43.164C99.6439 42.732 99.0739 42.516 98.3179 42.516C97.5619 42.516 96.9919 42.732 96.6079 43.164C96.2239 43.584 95.9659 44.13 95.8339 44.802C95.7139 45.474 95.6539 46.296 95.6539 47.268C95.6539 48.276 95.7139 49.122 95.8339 49.806C95.9539 50.49 96.2059 51.042 96.5899 51.462C96.9859 51.882 97.5619 52.092 98.3179 52.092C99.0739 52.092 99.6439 51.882 100.028 51.462C100.424 51.042 100.682 50.49 100.802 49.806C100.922 49.122 100.982 48.276 100.982 47.268Z" fill="#FFFFFF"></path>
<path d="M152.871 43.6699L155 37.118L157.129 43.6699C157.249 44.0407 157.595 44.2918 157.985 44.2918H164.874L159.3 48.3411C158.985 48.5703 158.853 48.9765 158.974 49.3473L161.102 55.8992L155.529 51.8499C155.214 51.6207 154.786 51.6207 154.471 51.8499L148.898 55.8992L151.026 49.3473C151.147 48.9765 151.015 48.5703 150.7 48.3411L145.126 44.2918H152.015C152.405 44.2918 152.751 44.0407 152.871 43.6699ZM161.351 56.0801L161.351 56.0799L161.351 56.0801Z" fill="#FFAA33" stroke="#FFAA33"></path>
<path d="M124.871 43.6699L127 37.118L129.129 43.6699C129.249 44.0407 129.595 44.2918 129.985 44.2918H136.874L131.3 48.3411C130.985 48.5703 130.853 48.9765 130.974 49.3473L133.102 55.8992L127.529 51.8499C127.214 51.6207 126.786 51.6207 126.471 51.8499L120.898 55.8992L123.026 49.3473C123.147 48.9765 123.015 48.5703 122.7 48.3411L117.126 44.2918H124.015C124.405 44.2918 124.751 44.0407 124.871 43.6699ZM133.351 56.0801L133.351 56.0799L133.351 56.0801Z" fill="#FFAA33" stroke="#FFAA33"></path>
<path d="M180.871 43.6699L183 37.118L185.129 43.6699C185.249 44.0407 185.595 44.2918 185.985 44.2918H192.874L187.3 48.3411C186.985 48.5703 186.853 48.9765 186.974 49.3473L189.102 55.8992L183.529 51.8499C183.214 51.6207 182.786 51.6207 182.471 51.8499L176.898 55.8992L179.026 49.3473C179.147 48.9765 179.015 48.5703 178.7 48.3411L173.126 44.2918H180.015C180.405 44.2918 180.751 44.0407 180.871 43.6699ZM189.351 56.0801L189.351 56.0799L189.351 56.0801Z" fill="#FFAA33" stroke="#FFAA33"></path>
<path d="M208.871 43.6699L211 37.118L213.129 43.6699C213.249 44.0407 213.595 44.2918 213.985 44.2918H220.874L215.3 48.3411C214.985 48.5703 214.853 48.9765 214.974 49.3473L217.102 55.8992L211.529 51.8499C211.214 51.6207 210.786 51.6207 210.471 51.8499L204.898 55.8992L207.026 49.3473C207.147 48.9765 207.015 48.5703 206.7 48.3411L201.126 44.2918H208.015C208.405 44.2918 208.751 44.0407 208.871 43.6699ZM217.351 56.0801L217.351 56.0799L217.351 56.0801Z" fill="#FFAA33" stroke="#FFAA33"></path>
<path d="M236.871 43.6699L239 37.118L241.129 43.6699C241.249 44.0407 241.595 44.2918 241.985 44.2918H248.874L243.3 48.3411C242.985 48.5703 242.853 48.9765 242.974 49.3473L245.102 55.8992L239.529 51.8499C239.214 51.6207 238.786 51.6207 238.471 51.8499L232.898 55.8992L235.026 49.3473C235.147 48.9765 235.015 48.5703 234.7 48.3411L229.126 44.2918H236.015C236.405 44.2918 236.751 44.0407 236.871 43.6699ZM245.351 56.0801L245.351 56.0799L245.351 56.0801Z" fill="#FFAA33" stroke="#FFAA33"></path>
</svg>